<?xml version="1.0" encoding="utf-8"?>
<!-- Generator: Adobe Illustrator 18.1.0, SVG Export Plug-In . SVG Version: 6.00 Build 0)  -->
<svg version="1.1" id="Layer_1" xmlns="http://www.w3.org/2000/svg" xmlns:xlink="http://www.w3.org/1999/xlink" x="0px" y="0px"
	 viewBox="0 231.6 612 333" enable-background="new 0 231.6 612 333" xml:space="preserve">
<g id="just_blaze">
	<g>
		<g>
			<path fill="#FFFFFF" d="M124.7,446.1c0,15.2-7.8,19.5-19.9,19.5c-3.5,0-6.4-0.5-8.8-1.4l0.7-12.3c1.2,0.5,3.2,0.8,5.4,0.8
				c4.9,0,7.2-1.7,7.2-7v-29.5h15.4L124.7,446.1L124.7,446.1z"/>
			<path fill="#FFFFFF" d="M174.8,448.2c0,11.2-6.2,17.4-19.2,17.4s-19.4-6.1-19.4-17.4v-31.9h15.2v31.6c0,3.1,1,4.5,4.3,4.5
				c3.3,0,4.1-1.2,4.1-4.5v-31.6h15.1L174.8,448.2L174.8,448.2z"/>
			<path fill="#FFFFFF" d="M199.4,465.5c-5.1,0-10.4-1.1-14.5-3.3l1.9-12.4c4.1,1.9,8.1,3.1,12.3,3.1c3.2,0,4.2-0.8,4.2-2.4
				c0-4.6-18.5-3.4-18.5-19.2c0-8.8,5.5-15.8,18.1-15.8c4.5,0,9.6,0.8,13.2,2.3l-1.6,12.3c-3.9-1-7.7-1.6-10.7-1.6
				c-4.1,0-4.6,0.8-4.6,2.2c0,4.8,18.4,3.4,18.4,19C217.6,459.4,210.7,465.5,199.4,465.5z"/>
			<path fill="#FFFFFF" d="M250.4,429.4v35.3H235v-35.3h-10.2l0.3-13.2h35.3l0.3,13.2H250.4z"/>
			<path fill="#FFFFFF" d="M310.1,464.7h-19.8v-48.4h20.1c11,0,16.7,5.2,16.7,12.7c0,4.9-2.3,8.1-5.9,9.9v0.1
				c4.8,1.7,7.3,5.5,7.3,11.2C328.5,458.9,322.9,464.7,310.1,464.7z M309.9,428.5h-5v6.3h5c2.1,0,2.6-0.6,2.6-3.2
				C312.6,429.2,312,428.5,309.9,428.5z M310.1,445.8h-5.2v6.9h5.4c2.4,0,2.9-0.6,2.9-3.5C313.2,446.7,312.8,445.8,310.1,445.8z"/>
			<path fill="#FFFFFF" d="M369.4,451.6l-0.3,13h-30v-48.4h15.2v35.4H369.4z"/>
			<path fill="#FFFFFF" d="M404.7,457.3h-10.8l-1.4,7.4h-15.9l13.8-48.4h18.5l14.1,48.4h-16.8L404.7,457.3z M398.4,434.8l-2.1,10.3
				h6.1l-2-10.3l-0.8-5.2h-0.2L398.4,434.8z"/>
			<path fill="#FFFFFF" d="M430.6,464.7v-9.6l13.7-21.4l2.8-4.2l-0.1-0.1h-16.1l0.3-13.2h33.6v10.5l-13.1,20.5l-2.8,4.1l0.1,0.2h16
				l-0.1,13L430.6,464.7L430.6,464.7z"/>
			<path fill="#FFFFFF" d="M508.6,452l-0.3,12.7h-32.5v-48.4h31.8l0.3,12.9h-16.9v5h13.7v11.7h-13.7v6.1H508.6z"/>
		</g>
		<g>
			<path fill="#FFFFFF" d="M65.6,505.6l-4.3,7.5c-4.7-2.6-11.1-5.5-16.4-7.3l4.3-7.6C54.4,500,61.7,503.3,65.6,505.6z M91.3,497.6
				l5.9,6.8c-9.1,14.3-27.2,27.4-44.4,33l-4.8-8.7C65.1,524.6,82.4,512,91.3,497.6z M72.4,491.4l-4.3,7.4
				c-4.7-2.7-10.7-5.7-15.9-7.7l4.3-7.4C62,485.9,68.6,489.1,72.4,491.4z M85.7,485.2c3,2.3,4.8,4.1,7.3,7.2L89,496
				c-2.3-3-4.3-4.9-7.2-7.2L85.7,485.2z M93,479.3c3,2.3,4.8,4.1,7.2,7.2l-4,3.7c-2.3-3-4.3-4.8-7.2-7.2L93,479.3z"/>
			<path fill="#FFFFFF" d="M118.4,506.4l-2.4-11l8.2-1.9l2.5,11.2l19.1-3.7l6.5,3.8c-2.2,5.2-6.2,13.3-9.7,18.4l-6.8-3.6
				c2.3-3,4.8-7.4,5.7-9.7l-13,2.6l5.2,23.8l-8.1,1.9l-5.3-24.1l-11.4,2.3l-1.7-7.8L118.4,506.4z"/>
			<path fill="#FFFFFF" d="M217.1,532.1l-8.3,5.7c-4.2-5.8-10.1-12.3-16-17.6c-6.7,7.4-14.5,13.3-22.8,17.6l-5.9-7.5
				c17-7.6,29.8-22.5,33.6-34.8h-29.2v-8.3h34.7l6.4,3.6c-2.8,8.5-6.6,15.9-11.2,22.5C205,519.1,211.7,525.8,217.1,532.1z"/>
			<path fill="#FFFFFF" d="M271.5,514.4l-6.1,7.7c-6.3-4.8-14.5-9.6-22.2-13.4v29h-9.4v-56.4h9.4v17.5
				C252.5,503,263.2,508.9,271.5,514.4z"/>
			<path fill="#FFFFFF" d="M294.3,516.4c-3.7,0-6.8-3.1-6.8-6.9c0-3.8,3.1-6.9,6.9-6.9c3.8,0,6.9,3.1,6.9,6.9
				C301.3,513.3,298.2,516.4,294.3,516.4L294.3,516.4z"/>
			<path fill="#FFFFFF" d="M359.3,488.7l1.7,1c-1.5-2.5-3-4.5-5.1-6.7l4.3-2.9c2.5,2.7,4,4.6,5.9,8l-3.7,2.4l3.9,2.1
				c-4.8,21.6-15.5,36.5-35.4,45l-6.4-7.4c18.5-7,27.6-18.3,30.7-32.9h-37v-8.6H359.3z M374.5,485.3l-4.5,2.8
				c-1.7-3.2-3.3-5.4-5.7-7.9l4.3-2.9C371.2,480,372.6,482,374.5,485.3z"/>
			<path fill="#FFFFFF" d="M398.1,484.3v40.9c10-3,21.8-10.8,29.8-21.3l4.5,8.9c-8.6,10.3-22,19.2-36.9,24.4l-7-4.3v-48.7H398.1z"/>
			<path fill="#FFFFFF" d="M476.3,537.7h-9.7v-29c-6.6,4.1-13.4,7.7-19.5,10.2l-4.9-8.2c14.7-4.6,35.8-19.3,43.8-29.4l7.3,5.7
				c-4.3,4.8-10.3,10.1-17,15.1L476.3,537.7L476.3,537.7z"/>
			<path fill="#FFFFFF" d="M556.8,532l-8.3,5.7c-4.2-5.8-10.1-12.3-16.1-17.6c-6.7,7.4-14.5,13.3-22.9,17.6l-5.9-7.6
				c17.2-7.7,29.8-22.4,33.6-34.7h-29.1v-8.3h34.7l6.4,3.6c-2.7,8.5-6.6,15.9-11.2,22.5C544.8,519.1,551.4,525.8,556.8,532z
				 M550,482.1c2.5,2.4,4,4.1,5.9,6.9l-3.7,3c-1.9-2.8-3.5-4.8-5.8-6.9L550,482.1z M556.4,477.4c2.6,2.3,4,4.1,6,6.9l-3.7,3
				c-1.9-2.8-3.4-4.7-5.9-6.8L556.4,477.4z"/>
		</g>
		<polygon fill="#FFFFFF" points="297.9,284.3 297.9,383.6 306.6,383.6 306.6,284.3 321.5,284.3 302.3,251 283,284.3 		"/>
	</g>
</g>
<g id="toki" display="none">
	<g display="inline">
		<g>
			<path fill="#FFFFFF" d="M95,257.2v35.4H79.6v-35.4H69.3l0.3-13.2H105l0.3,13.2H95z"/>
			<path fill="#FFFFFF" d="M134.1,293.4c-14.4,0-21.2-7.6-21.2-25.1c0-17.6,6.5-25.1,21.2-25.1s21.2,7.4,21.2,25.1
				C155.3,286.5,148.8,293.4,134.1,293.4z M134,256.4c-4.1,0-5.2,1.7-5.2,11.9c0,10.2,1.2,12.1,5.4,12.1c4.2,0,5.2-1.9,5.2-12.1
				C139.4,258,138.3,256.4,134,256.4z"/>
			<path fill="#FFFFFF" d="M190.5,292.6l-7.4-18.8h-1.8v18.8h-15.2V244h15.1v18.1h2.1l7.4-18.1h16.9l-10.5,23.3l10.9,25.3H190.5
				L190.5,292.6z"/>
			<path fill="#FFFFFF" d="M217.9,244h15.5v48.6h-15.5V244z"/>
			<path fill="#FFFFFF" d="M262.4,244l7.2,20.9l1.6,5h0.2l1.6-5l7.3-20.9h16.6v48.6H283v-16l0.1-5.2l-0.2-0.1l-1.6,5.1l-5.4,16.3
				h-9.7l-5.4-16.3l-1.6-5.1l-0.1,0.1l0.1,5.2v16.1h-13.3V244L262.4,244L262.4,244z"/>
			<path fill="#FFFFFF" d="M329,293.4c-14.4,0-21.2-7.6-21.2-25.1c0-17.6,6.5-25.1,21.2-25.1c14.7,0,21.2,7.4,21.2,25.1
				C350.3,286.5,343.7,293.4,329,293.4z M329,256.4c-4.1,0-5.2,1.7-5.2,11.9c0,10.2,1.2,12.1,5.4,12.1c4.2,0,5.2-1.9,5.2-12.1
				C334.3,258,333.3,256.4,329,256.4z"/>
			<path fill="#FFFFFF" d="M389.5,292.6L377.3,274l-2.8-4.5l-0.1,0.1l0.1,5.2v17.7h-13.3V244h12.5l13.3,21.1l0.1-0.1l-0.1-5.2
				l0.1-15.9h13.3v48.6H389.5z"/>
			<path fill="#FFFFFF" d="M425.8,293.4c-5.1,0-10.4-1.1-14.6-3.3l1.9-12.4c4.1,1.9,8.2,3.1,12.3,3.1c3.2,0,4.2-0.8,4.2-2.4
				c0-4.6-18.5-3.4-18.5-19.3c0-8.8,5.5-15.9,18.2-15.9c4.5,0,9.6,0.8,13.3,2.3l-1.6,12.3c-3.9-1-7.7-1.6-10.7-1.6
				c-4.1,0-4.6,0.8-4.6,2.2c0,4.8,18.5,3.4,18.5,19.1C444.1,287.3,437.2,293.4,425.8,293.4z"/>
			<path fill="#FFFFFF" d="M477,257.2v35.4h-15.4v-35.4h-10.2l0.3-13.2h35.4l0.3,13.2H477z"/>
			<path fill="#FFFFFF" d="M517.8,285.2h-10.9l-1.4,7.4h-15.9l13.8-48.6h18.6l14.1,48.6h-16.8L517.8,285.2z M511.4,262.6l-2.1,10.4
				h6.1l-2-10.3l-0.8-5.2h-0.2L511.4,262.6z"/>
		</g>
		<g>
			<path fill="#FFFFFF" d="M166.4,342.2l-6.1,7.8c-6.3-4.9-14.5-9.7-22.3-13.5v29.1h-9.5V309h9.5v17.6
				C147.3,330.8,158.1,336.7,166.4,342.2z"/>
			<path fill="#FFFFFF" d="M199.6,339l-1.5-10.4l-18.7,2.3l-1.3-8.3l18.8-2.4l-1.6-10.6l9.3-1.1l1.5,10.5l17.4-2.2l1.3,8.3
				l-17.4,2.2l1.6,10.4l20.8-2.7l1.3,8.2l-20.9,2.7l2.7,18.8l-9.3,1.4l-2.7-19l-22.8,3l-1.4-8.4L199.6,339z"/>
			<path fill="#FFFFFF" d="M261.7,332.5v-10.7h-15.2v-8.4h46v8.4H271v10.7h25.1v8.4H271v9c0,4,1.1,5.2,5.6,5.4
				c1.2,0.1,3.5,0.1,6,0.1c4.1,0,8.4-0.1,11.4-0.4v8.8c-3,0.1-7.5,0.2-11.7,0.2c-2.6,0-5.1,0-6.7-0.1c-10.2-0.3-14.1-3.9-14.1-13.5
				v-0.1V341h-18.5v-8.4H261.7L261.7,332.5z"/>
			<path fill="#FFFFFF" d="M330.6,325.2l-6,7.6c-3.6-3.3-10.9-8.5-16.5-11.3l5.7-7.4C319.5,317.2,326.5,321.7,330.6,325.2z
				 M353.2,325.2l6,7.1c-9.1,14.3-27.3,27.5-44.5,33.1l-4.8-8.9C326.9,352.2,344.3,339.7,353.2,325.2z"/>
			<path fill="#FFFFFF" d="M422.9,359.9l-8.4,5.7c-4.2-5.8-10.1-12.3-16.1-17.6c-6.7,7.4-14.6,13.3-22.9,17.6l-6-7.5
				c17-7.6,29.9-22.5,33.7-34.9h-29.3v-8.3h34.8l6.4,3.6c-2.8,8.5-6.6,16-11.3,22.5C410.8,346.9,417.4,353.6,422.9,359.9z"/>
			<path fill="#FFFFFF" d="M452.5,331c3.8,2.1,8.5,5.2,12.2,8c2.9-4.8,4.9-9.8,5.9-14.8h-16.7c-4.7,7.3-10.6,14.3-16.3,18.8
				l-6.9-5.8c8.9-6.4,17.6-19,21.2-28.5l8.7,2.8c-0.6,1.5-1.2,3-2,4.5h17l6.3,3.6c-4.8,21.4-16.6,39.3-35.2,46.4l-6.3-7.5
				c7.6-2.5,14.1-7,19-12.4c-3.9-3-8.6-6.3-12.4-8.5L452.5,331z"/>
		</g>
		<polygon fill="#FFFFFF" points="283,513.2 302.3,546.5 321.5,513.2 306.6,513.2 306.6,413.9 297.9,413.9 297.9,513.2 		"/>
	</g>
</g>
</svg>
