<?xml version="1.0" encoding="utf-8"?>
<!-- Generator: Adobe Illustrator 18.1.0, SVG Export Plug-In . SVG Version: 6.00 Build 0)  -->
<svg version="1.1" id="Layer_1" xmlns="http://www.w3.org/2000/svg" xmlns:xlink="http://www.w3.org/1999/xlink" x="0px" y="0px"
	 viewBox="0 0 612 792" enable-background="new 0 0 612 792" xml:space="preserve">
<g>
	<g>
		<path d="M392.9,377.6"/>
	</g>
	<path d="M306,602.2c-113.8,0-206.2-92.4-206.2-206.2S192.2,189.8,306,189.8S512.2,282.2,512.2,396S419.8,602.2,306,602.2z
		 M306,208.7c-103.4,0-187.3,83.8-187.3,187.3S202.6,583.3,306,583.3c103.4,0,187.3-83.8,187.3-187.3S409.4,208.7,306,208.7z"/>
</g>
<g>
	<path d="M310.9,417.4l-3.7-11h-0.6l-8.6,27.5h-33l21.4-43.5l-20.8-42.8h34.9l8,25.7h0.6l3.1-11l4.9-14.7h33.7l-20.2,42.2l20.2,44.1
		h-34.3L310.9,417.4z"/>
</g>
</svg>
