<?xml version="1.0" encoding="utf-8"?>
<!-- Generator: Adobe Illustrator 15.1.0, SVG Export Plug-In . SVG Version: 6.00 Build 0)  -->
<!DOCTYPE svg PUBLIC "-//W3C//DTD SVG 1.1//EN" "http://www.w3.org/Graphics/SVG/1.1/DTD/svg11.dtd">
<svg version="1.1" id="Layer_1" xmlns="http://www.w3.org/2000/svg" xmlns:xlink="http://www.w3.org/1999/xlink" x="0px" y="0px"
	 width="100px" height="100px" viewBox="0 0 100 100" enable-background="new 0 0 100 100" xml:space="preserve">
<g>
	<g>
		<path fill="#FFFFFF" d="M30.238,43.457h4.408V57.23h-4.408V43.457z"/>
		<path fill="#FFFFFF" d="M44.198,57.23l-3.471-5.254l-0.79-1.266L39.9,50.729l0.018,1.488v5.014h-3.783V43.457h3.545l3.764,5.987
			l0.038-0.019l-0.038-1.47l0.02-4.499h3.783V57.23H44.198z"/>
		<path fill="#FFFFFF" d="M52.893,47.203v1.764h3.949l-0.037,3.543h-3.912v4.721h-4.298V43.457h9.017l0.055,3.746H52.893z"/>
		<path fill="#FFFFFF" d="M64.172,57.467c-4.076,0-6.021-2.146-6.021-7.124c0-4.995,1.854-7.107,6.021-7.107
			c4.17,0,6.023,2.112,6.023,7.107C70.195,55.502,68.342,57.467,64.172,57.467z M64.154,46.964c-1.174,0-1.486,0.496-1.486,3.379
			c0,2.901,0.33,3.434,1.523,3.434s1.486-0.551,1.486-3.434C65.678,47.442,65.385,46.964,64.154,46.964z"/>
	</g>
	<path fill="#FFFFFF" d="M50,83.688c-18.575,0-33.687-15.113-33.687-33.687c0-18.576,15.112-33.688,33.687-33.688
		S83.688,31.425,83.688,50C83.688,68.574,68.574,83.688,50,83.688z M50,19.375c-16.886,0-30.624,13.738-30.624,30.625
		c0,16.884,13.738,30.625,30.624,30.625c16.887,0,30.625-13.74,30.625-30.625C80.625,33.114,66.887,19.375,50,19.375z"/>
</g>
</svg>
