<?xml version="1.0" encoding="utf-8"?>
<!-- Generator: Adobe Illustrator 18.1.0, SVG Export Plug-In . SVG Version: 6.00 Build 0)  -->
<svg version="1.1" id="Layer_1" xmlns="http://www.w3.org/2000/svg" xmlns:xlink="http://www.w3.org/1999/xlink" x="0px" y="0px"
	 viewBox="0 0 135.4 91.2" enable-background="new 0 0 135.4 91.2" xml:space="preserve">
<g>
	<path fill="#FFFFFF" d="M27.1,19.8c0,3.5-1.8,4.5-4.6,4.5c-0.8,0-1.5-0.1-2-0.3l0.2-2.8c0.3,0.1,0.7,0.2,1.3,0.2
		c1.1,0,1.7-0.4,1.7-1.6v-6.8h3.6V19.8z"/>
	<path fill="#FFFFFF" d="M38.7,20.3c0,2.6-1.4,4-4.5,4c-3,0-4.5-1.4-4.5-4v-7.4h3.5v7.3c0,0.7,0.2,1,1,1c0.8,0,1-0.3,1-1v-7.3h3.5
		V20.3z"/>
	<path fill="#FFFFFF" d="M44.4,24.3c-1.2,0-2.4-0.3-3.4-0.8l0.4-2.9c0.9,0.4,1.9,0.7,2.8,0.7c0.7,0,1-0.2,1-0.6
		c0-1.1-4.3-0.8-4.3-4.5c0-2,1.3-3.7,4.2-3.7c1,0,2.2,0.2,3.1,0.5l-0.4,2.8c-0.9-0.2-1.8-0.4-2.5-0.4c-0.9,0-1.1,0.2-1.1,0.5
		c0,1.1,4.3,0.8,4.3,4.4C48.6,22.9,47,24.3,44.4,24.3z"/>
	<path fill="#FFFFFF" d="M56.2,15.9v8.2h-3.6v-8.2h-2.4l0.1-3h8.2l0.1,3H56.2z"/>
	<path fill="#FFFFFF" d="M70,24.1h-4.6V12.9h4.7c2.6,0,3.9,1.2,3.9,2.9c0,1.1-0.5,1.9-1.4,2.3v0c1.1,0.4,1.7,1.3,1.7,2.6
		C74.3,22.8,73,24.1,70,24.1z M70,15.7h-1.2v1.5H70c0.5,0,0.6-0.1,0.6-0.7C70.6,15.9,70.5,15.7,70,15.7z M70,19.7h-1.2v1.6h1.3
		c0.6,0,0.7-0.1,0.7-0.8C70.8,19.9,70.7,19.7,70,19.7z"/>
	<path fill="#FFFFFF" d="M83.8,21.1l-0.1,3h-6.9V12.9h3.5v8.2H83.8z"/>
	<path fill="#FFFFFF" d="M91.9,22.4h-2.5l-0.3,1.7h-3.7l3.2-11.2h4.3l3.3,11.2h-3.9L91.9,22.4z M90.5,17.2L90,19.6h1.4l-0.5-2.4
		L90.7,16h0L90.5,17.2z"/>
	<path fill="#FFFFFF" d="M97.9,24.1v-2.2l3.2-5l0.7-1l0,0H98l0.1-3h7.8v2.4l-3,4.8l-0.7,1l0,0h3.7l0,3H97.9z"/>
	<path fill="#FFFFFF" d="M116,21.1l-0.1,2.9h-7.5V12.9h7.4l0.1,3h-3.9V17h3.2v2.7h-3.2v1.4H116z"/>
</g>
<g>
	<path fill="#FFFFFF" d="M13.4,33.6l-1,1.7c-1.1-0.6-2.6-1.3-3.8-1.7l1-1.8C10.8,32.3,12.5,33,13.4,33.6z M19.4,31.7l1.4,1.6
		c-2.1,3.3-6.3,6.4-10.3,7.6l-1.1-2C13.3,38,17.3,35.1,19.4,31.7z M15,30.3L14,32c-1.1-0.6-2.5-1.3-3.7-1.8l1-1.7
		C12.6,29,14.1,29.7,15,30.3z M18.1,28.8c0.7,0.5,1.1,1,1.7,1.7l-0.9,0.9c-0.5-0.7-1-1.1-1.7-1.7L18.1,28.8z M19.8,27.5
		c0.7,0.5,1.1,1,1.7,1.7L20.5,30c-0.5-0.7-1-1.1-1.7-1.7L19.8,27.5z"/>
	<path fill="#FFFFFF" d="M25.6,33.7l-0.6-2.5l1.9-0.4l0.6,2.6l4.4-0.9l1.5,0.9c-0.5,1.2-1.4,3.1-2.2,4.3l-1.6-0.8
		c0.5-0.7,1.1-1.7,1.3-2.2l-3,0.6l1.2,5.5l-1.9,0.4L26,35.6l-2.6,0.5L23,34.3L25.6,33.7z"/>
	<path fill="#FFFFFF" d="M48.5,39.7L46.6,41c-1-1.3-2.3-2.8-3.7-4.1c-1.6,1.7-3.4,3.1-5.3,4.1l-1.4-1.7c3.9-1.8,6.9-5.2,7.8-8.1
		h-6.8v-1.9h8l1.5,0.8c-0.6,2-1.5,3.7-2.6,5.2C45.7,36.7,47.2,38.2,48.5,39.7z"/>
	<path fill="#FFFFFF" d="M61.1,35.6l-1.4,1.8c-1.5-1.1-3.3-2.2-5.1-3.1V41h-2.2V27.9h2.2V32C56.7,33,59.2,34.3,61.1,35.6z"/>
	<path fill="#FFFFFF" d="M66.4,36.1c-0.9,0-1.6-0.7-1.6-1.6c0-0.9,0.7-1.6,1.6-1.6c0.9,0,1.6,0.7,1.6,1.6
		C68,35.4,67.3,36.1,66.4,36.1L66.4,36.1z"/>
	<path fill="#FFFFFF" d="M81.4,29.7l0.4,0.2c-0.3-0.6-0.7-1-1.2-1.6l1-0.7c0.6,0.6,0.9,1.1,1.4,1.9l-0.9,0.6l0.9,0.5
		c-1.1,5-3.6,8.5-8.2,10.4l-1.5-1.7c4.3-1.6,6.4-4.2,7.1-7.6H72v-2H81.4z M84.9,28.9l-1,0.7c-0.4-0.7-0.8-1.2-1.3-1.8l1-0.7
		C84.2,27.6,84.5,28.1,84.9,28.9z"/>
	<path fill="#FFFFFF" d="M90.4,28.6v9.5c2.3-0.7,5-2.5,6.9-4.9l1,2.1c-2,2.4-5.1,4.5-8.5,5.7l-1.6-1V28.6H90.4z"/>
	<path fill="#FFFFFF" d="M108.5,41h-2.2v-6.7c-1.5,1-3.1,1.8-4.5,2.4l-1.1-1.9c3.4-1.1,8.3-4.5,10.1-6.8l1.7,1.3
		c-1,1.1-2.4,2.3-3.9,3.5V41z"/>
	<path fill="#FFFFFF" d="M127.2,39.7l-1.9,1.3c-1-1.3-2.3-2.8-3.7-4.1c-1.5,1.7-3.4,3.1-5.3,4.1l-1.4-1.8c4-1.8,6.9-5.2,7.8-8h-6.7
		v-1.9h8l1.5,0.8c-0.6,2-1.5,3.7-2.6,5.2C124.4,36.7,125.9,38.2,127.2,39.7z M125.6,28.1c0.6,0.6,0.9,1,1.4,1.6l-0.9,0.7
		c-0.4-0.6-0.8-1.1-1.3-1.6L125.6,28.1z M127.1,27c0.6,0.5,0.9,0.9,1.4,1.6l-0.9,0.7c-0.4-0.6-0.8-1.1-1.4-1.6L127.1,27z"/>
</g>
<polygon fill="#FFFFFF" points="69.2,71.3 69.2,48.3 67.2,48.3 67.2,71.3 63.8,71.3 68.2,79 72.7,71.3 "/>
</svg>
