<?xml version="1.0" encoding="utf-8"?>
<!-- Generator: Adobe Illustrator 18.1.0, SVG Export Plug-In . SVG Version: 6.00 Build 0)  -->
<svg version="1.1" id="Layer_1" xmlns="http://www.w3.org/2000/svg" xmlns:xlink="http://www.w3.org/1999/xlink" x="0px" y="0px"
	 viewBox="0 0 612 792" enable-background="new 0 0 612 792" xml:space="preserve">
<g>
	<path fill="#FFFFFF" d="M306,604.8c-113.7,0-206.2-92.5-206.2-206.2c0-113.7,92.5-206.2,206.2-206.2
		c113.7,0,206.2,92.5,206.2,206.2S419.7,604.8,306,604.8z M306,208.3c-104.9,0-190.3,85.4-190.3,190.3S201.1,588.9,306,588.9
		s190.3-85.4,190.3-190.3C496.3,293.7,410.9,208.3,306,208.3z"/>
	<g>
		<path fill="#FFFFFF" d="M171.4,359.5l8.4,24.4l1.9,5.8h0.2l1.8-5.8l8.6-24.4h19.5v56.9h-16.2v-18.7l0.1-6.1l-0.2-0.1l-1.9,5.9
			l-6.4,19h-11.4l-6.4-19.1l-1.8-5.9l-0.2,0.1l0.1,6.1v18.8H152v-56.9H171.4z"/>
		<path fill="#FFFFFF" d="M250.9,407.8h-12.7l-1.7,8.7h-18.7l16.2-56.9h21.8l16.5,56.9h-19.7L250.9,407.8z M243.4,381.3l-2.4,12.1
			h7.1l-2.3-12.1l-1-6.2h-0.2L243.4,381.3z"/>
		<path fill="#FFFFFF" d="M306.8,416.4l-8.6-22H296v22h-17.8v-56.9H296v21.2h2.5l8.7-21.2H327l-12.3,27.2l12.8,29.7H306.8z"/>
		<path fill="#FFFFFF" d="M334.5,359.5h18.2v56.9h-18.2V359.5z"/>
		<path fill="#FFFFFF" d="M396,416.4l-14.3-21.7l-3.3-5.2l-0.2,0.1l0.1,6.2v20.7h-15.6v-56.9h14.6l15.6,24.7l0.1-0.1l-0.1-6.1
			l0.1-18.6h15.6v56.9H396z"/>
		<path fill="#FFFFFF" d="M460,414.4c-4.1,1.9-10.9,3.1-16.8,3.1c-19.7,0-26.5-10.5-26.5-29.6c0-19.5,8.1-29.4,27.2-29.4
			c5.2,0,11,0.8,15.3,2.4l-1.6,14.7c-3.7-1.3-8.7-2.1-12.6-2.1c-8.6,0-9.7,2.9-9.7,14c0,12.3,1.4,14.5,7.3,14.5c0.5,0,1,0,1.4-0.1
			v-16.9H460L460,414.4L460,414.4z"/>
		<path fill="#FFFFFF" d="M283.3,489.5c-16.8,0-24.9-8.9-24.9-29.4c0-20.6,7.7-29.4,24.9-29.4c17.2,0,24.9,8.7,24.9,29.4
			C308.2,481.4,300.6,489.5,283.3,489.5z M283.3,446.1c-4.9,0-6.1,2.1-6.1,14c0,12,1.4,14.2,6.3,14.2c4.9,0,6.1-2.3,6.1-14.2
			C289.6,448.1,288.3,446.1,283.3,446.1z"/>
		<path fill="#FFFFFF" d="M334.2,447.1v7.3h16.3l-0.1,14.7h-16.2v19.5h-17.8v-56.9h37.3l0.2,15.5H334.2z"/>
	</g>
</g>
</svg>
