<?xml version="1.0" encoding="utf-8"?>
<!-- Generator: Adobe Illustrator 18.1.0, SVG Export Plug-In . SVG Version: 6.00 Build 0)  -->
<svg version="1.1" id="Layer_1" xmlns="http://www.w3.org/2000/svg" xmlns:xlink="http://www.w3.org/1999/xlink" x="0px" y="0px"
	 viewBox="421 238 594 320" enable-background="new 421 238 594 320" xml:space="preserve">
<g id="just_x5F_blaze">
	<g>
		<path fill="#FFFFFF" d="M457.9,542.7c6.5,0,11.8-5.3,11.8-11.8s-5.3-11.8-11.8-11.8c-6.5,0-11.8,5.3-11.8,11.8
			S451.3,542.7,457.9,542.7"/>
		<path fill="#FFFFFF" d="M586.2,542.7c6.5,0,11.8-5.3,11.8-11.8s-5.3-11.8-11.8-11.8c-6.5,0-11.8,5.3-11.8,11.8
			S579.6,542.7,586.2,542.7"/>
		<path fill="#FFFFFF" d="M718,542.7c6.5,0,11.8-5.3,11.8-11.8S724.5,519,718,519s-11.8,5.3-11.8,11.8S711.5,542.7,718,542.7"/>
		<path fill="#FFFFFF" d="M848,542.7c6.5,0,11.8-5.3,11.8-11.8S854.5,519,848,519s-11.8,5.3-11.8,11.8S841.4,542.7,848,542.7"/>
		<path fill="#FFFFFF" d="M974.2,542.7c6.5,0,11.8-5.3,11.8-11.8s-5.3-11.8-11.8-11.8s-11.8,5.3-11.8,11.8S967.6,542.7,974.2,542.7"
			/>
	</g>
	<g>
		<path fill="#FFFFFF" d="M456,491.9c-7.1,0-14.5-1.5-20.2-4.6l2.6-17.3c5.7,2.6,11.3,4.3,17.1,4.3c4.5,0,5.9-1.2,5.9-3.3
			c0-6.4-25.7-4.7-25.7-26.8c0-12.2,7.6-22,25.3-22c6.3,0,13.3,1.1,18.4,3.1l-2.2,17.1c-5.4-1.4-10.7-2.2-14.9-2.2
			c-5.7,0-6.4,1.2-6.4,3.1c0,6.7,25.6,4.8,25.6,26.5C481.4,483.3,471.8,491.9,456,491.9z"/>
		<path fill="#FFFFFF" d="M541.3,473l-0.4,17.7h-45.4v-67.5h44.3l0.4,18h-23.6v7h19.1v16.3h-19.1v8.5L541.3,473L541.3,473z"/>
		<path fill="#FFFFFF" d="M598.3,489.1l10.2,8.7l-21.9,6.1l-6-12.1c-18.5-0.7-27.4-11.3-27.4-34.8c0-24.5,9.1-34.8,29.5-34.8
			c20.4,0,29.5,10.4,29.5,34.8C612.3,474.6,607.9,484.6,598.3,489.1z M582.7,440.4c-5.8,0-7.3,2.4-7.3,16.6
			c0,14.2,1.6,16.8,7.5,16.8c5.9,0,7.3-2.7,7.3-16.8C590.2,442.7,588.7,440.4,582.7,440.4z"/>
		<path fill="#FFFFFF" d="M680.6,467.7c0,15.6-8.6,24.2-26.8,24.2s-27.1-8.5-27.1-24.2v-44.5h21.1v44.1c0,4.3,1.4,6.2,5.9,6.2
			s5.8-1.7,5.8-6.2v-44.1h21.1L680.6,467.7L680.6,467.7z"/>
		<path fill="#FFFFFF" d="M742.3,473l-0.4,17.7h-45.4v-67.5h44.3l0.4,18h-23.6v7h19.1v16.3h-19.1v8.5L742.3,473L742.3,473z"/>
		<path fill="#FFFFFF" d="M796.5,490.7l-17-25.7l-3.9-6.2l-0.2,0.1l0.1,7.3v24.6H757v-67.5h17.4l18.4,29.3l0.2-0.1l-0.2-7.2l0.1-22
			h18.5v67.5L796.5,490.7L796.5,490.7z"/>
		<path fill="#FFFFFF" d="M869.6,441.7c-3-0.9-6.8-1.5-10.8-1.5c-8.9,0-10.3,3.6-10.3,16.6c0,13.7,1.7,17.4,10.7,17.4
			c3.9,0,7.6-0.7,10.6-2.1l1.9,16.7c-4.3,1.9-10.5,3.1-15.7,3.1c-19.8,0-29.7-11.1-29.7-35.2c0-22.3,9.4-34.6,30.9-34.6
			c4.8,0,10.6,1,14.3,2.3L869.6,441.7z"/>
		<path fill="#FFFFFF" d="M931.8,473l-0.4,17.7h-45.4v-67.5h44.3l0.4,18h-23.6v7h19.1v16.3h-19.1v8.5L931.8,473L931.8,473z"/>
		<path fill="#FFFFFF" d="M990.6,463.9l12.1,26.8h-24.2l-7.5-22.5h-3.4v22.5h-21.1v-67.5h24.6c18.3,0,27.6,6.7,27.6,22.5
			C998.8,454.2,995.8,460.8,990.6,463.9z M971.5,440.1h-3.9v12.8h3.9c4,0,5.3-0.6,5.3-6.4C976.8,441.2,975.7,440.1,971.5,440.1z"/>
	</g>
	<g>
		<path fill="#FFFFFF" d="M597.3,366.4c-7.1,0-14.5-1.5-20.2-4.6l2.6-17.3c5.7,2.6,11.3,4.3,17.1,4.3c4.5,0,5.8-1.2,5.8-3.3
			c0-6.4-25.7-4.7-25.7-26.8c0-12.2,7.6-22,25.3-22c6.3,0,13.3,1.1,18.4,3.1l-2.2,17.1c-5.4-1.4-10.7-2.2-14.8-2.2
			c-5.7,0-6.4,1.2-6.4,3.1c0,6.7,25.6,4.8,25.6,26.5C622.7,357.9,613.1,366.4,597.3,366.4z"/>
		<path fill="#FFFFFF" d="M690.3,342.2c0,15.6-8.6,24.2-26.8,24.2s-27.1-8.5-27.1-24.2v-44.5h21.1v44.1c0,4.3,1.3,6.2,5.9,6.2
			s5.8-1.7,5.8-6.2v-44.1h21.1V342.2z"/>
		<path fill="#FFFFFF" d="M724.4,366.4c-7.1,0-14.5-1.5-20.2-4.6l2.6-17.3c5.7,2.6,11.3,4.3,17.1,4.3c4.5,0,5.8-1.2,5.8-3.3
			c0-6.4-25.7-4.7-25.7-26.8c0-12.2,7.6-22,25.3-22c6.3,0,13.3,1.1,18.4,3.1l-2.2,17.1c-5.4-1.4-10.7-2.2-14.8-2.2
			c-5.7,0-6.4,1.2-6.4,3.1c0,6.7,25.6,4.8,25.6,26.5C749.9,357.9,740.3,366.4,724.4,366.4z"/>
		<path fill="#FFFFFF" d="M797.1,365.2v-25h-11.8v25h-21.1v-67.5h21.1V322h11.8v-24.3h21.1v67.5H797.1z"/>
		<path fill="#FFFFFF" d="M835.3,297.7h21.6v67.5h-21.6V297.7z"/>
	</g>
	<g>
		<path fill="#FFFFFF" d="M583.4,397.4c0.4-0.6,0.7-1.2,1-1.8h-9.8v-3.8h11.6c0.2-0.5,0.4-1.1,0.6-1.7h-8v-3.7h9
			c0.1-0.5,0.2-1,0.3-1.5h-11.4v-3.8h11.9c0.1-0.9,0.2-1.9,0.3-2.8l4.8,0.3c-0.1,0.9-0.2,1.8-0.3,2.6h13.1v3.8h-13.6
			c-0.1,0.5-0.2,1-0.3,1.5h11.9v3.7h-12.9c-0.1,0.6-0.3,1.1-0.5,1.7h17.3v3.8h-7.1v1.8h6v3.8h-6v6.6c0,2.4-0.7,3.7-2.8,4
			c-1.1,0.2-3.7,0.2-5.5,0.1l-0.9-4.4c1.3,0.1,3.1,0.1,3.7,0.1c0.5,0,0.7-0.3,0.7-0.8v-5.7h-10c-2.2,3.3-5,6.3-8.4,8.9l-3.9-3
			c2.4-1.8,4.6-3.7,6.4-5.8h-5v-3.8L583.4,397.4L583.4,397.4z M587.6,401.9c2.2,1.8,3.8,3.6,4.9,5.3l-4,2.6
			c-0.9-1.8-2.4-3.6-4.3-5.4L587.6,401.9z M596.4,397.4v-1.8h-6.9c-0.3,0.6-0.6,1.2-0.9,1.8H596.4z"/>
		<path fill="#FFFFFF" d="M640.3,411.8c-1.1,0.2-3.5,0.2-5.2,0.1l-1-4.6c1.4,0.1,3.2,0.2,3.9,0.1c0.8-0.1,1-0.5,1-1.2V384h-24.8
			v-4.4h24.8h2.2h2.7V407C643.8,409.9,642.9,411.4,640.3,411.8z M615.7,390.3v-4.1h21.6v4.1H615.7z M617.9,407.9v-15.4h1.7h2.8h12.5
			v12.8h-12.5v2.6H617.9z M622.4,401.1h7.9v-4.5h-7.9V401.1z"/>
		<path fill="#FFFFFF" d="M662.1,392.9l-2.4,4.2c-2.6-1.4-6.2-3.1-9.1-4.1l2.4-4.2C655.9,389.8,659.9,391.7,662.1,392.9z
			 M676.4,388.5l3.3,3.8c-5.1,8-15.2,15.3-24.7,18.4l-2.7-4.9C661.8,403.5,671.5,396.5,676.4,388.5z M665.9,385l-2.4,4.1
			c-2.6-1.5-6-3.2-8.9-4.3l2.4-4.1C660.1,382,663.7,383.8,665.9,385z"/>
		<path fill="#FFFFFF" d="M716.4,392.6v5.3h-29.5v-5.3H716.4z"/>
		<path fill="#FFFFFF" d="M733,411.2l-4-3.7c8.2-4.1,10.9-9.6,11.4-16.3H733c-1.9,3.3-4.2,6.4-6.7,8.8l-4.2-3
			c4.9-4.3,9.1-12.2,10.5-17.6l4.9,1.4c-0.5,1.9-1.2,3.8-2.1,5.7h18.2v4.7h-8C744.9,399.2,741.6,406.1,733,411.2z"/>
		<path fill="#FFFFFF" d="M771.1,388.4l-3.3,4.2c-2-1.8-6.1-4.7-9.1-6.3l3.2-4.1C764.9,383.9,768.8,386.5,771.1,388.4z M783.7,388.4
			l3.3,3.9c-5.1,8-15.2,15.3-24.7,18.4l-2.7-4.9C769,403.4,778.7,396.4,783.7,388.4z"/>
		<path fill="#FFFFFF" d="M798.6,385.9v-6.4h5v6.4h9.1v-6.5h5.1v6.5h6.1v4.6h-6.1v2.6c0,8.3-3.1,13.9-11.4,17.9L803,407
			c7.9-3.4,9.7-7.6,9.7-13.7v-2.7h-9.1v8.4h-5v-8.4h-6.1v-4.6L798.6,385.9L798.6,385.9z"/>
		<path fill="#FFFFFF" d="M859.7,392.6v5.3h-29.5v-5.3H859.7z"/>
	</g>
	<g>
		<path fill="#FFFFFF" d="M846.7,269.7c6.5,0,11.8-5.3,11.8-11.8c0-6.5-5.3-11.8-11.8-11.8c-6.5,0-11.8,5.3-11.8,11.8
			C834.9,264.4,840.2,269.7,846.7,269.7"/>
	</g>
</g>
<g id="Layer_2" display="none">
	<rect x="206" y="13" display="inline" fill="#1D1D1B" width="1024" height="768"/>
	<g display="inline">
		<g>
			<g>
				<defs>
					<rect id="SVGID_1_" x="206" y="13" width="1024" height="768"/>
				</defs>
				<clipPath id="SVGID_2_">
					<use xlink:href="#SVGID_1_"  overflow="visible"/>
				</clipPath>
				<path clip-path="url(#SVGID_2_)" fill="#FFFFFF" d="M457.9,542.7c6.5,0,11.8-5.3,11.8-11.8s-5.3-11.8-11.8-11.8
					c-6.5,0-11.8,5.3-11.8,11.8S451.3,542.7,457.9,542.7"/>
			</g>
		</g>
		<g>
			<g>
				<defs>
					<rect id="SVGID_3_" x="206" y="13" width="1024" height="768"/>
				</defs>
				<clipPath id="SVGID_4_">
					<use xlink:href="#SVGID_3_"  overflow="visible"/>
				</clipPath>
				<path clip-path="url(#SVGID_4_)" fill="#FFFFFF" d="M586.2,542.7c6.5,0,11.8-5.3,11.8-11.8s-5.3-11.8-11.8-11.8
					c-6.5,0-11.8,5.3-11.8,11.8S579.6,542.7,586.2,542.7"/>
			</g>
		</g>
		<g>
			<g>
				<defs>
					<rect id="SVGID_5_" x="206" y="13" width="1024" height="768"/>
				</defs>
				<clipPath id="SVGID_6_">
					<use xlink:href="#SVGID_5_"  overflow="visible"/>
				</clipPath>
				<path clip-path="url(#SVGID_6_)" fill="#FFFFFF" d="M718,542.7c6.5,0,11.8-5.3,11.8-11.8S724.5,519,718,519s-11.8,5.3-11.8,11.8
					S711.5,542.7,718,542.7"/>
			</g>
		</g>
		<g>
			<g>
				<defs>
					<rect id="SVGID_7_" x="206" y="13" width="1024" height="768"/>
				</defs>
				<clipPath id="SVGID_8_">
					<use xlink:href="#SVGID_7_"  overflow="visible"/>
				</clipPath>
				<path clip-path="url(#SVGID_8_)" fill="#FFFFFF" d="M848,542.7c6.5,0,11.8-5.3,11.8-11.8S854.5,519,848,519s-11.8,5.3-11.8,11.8
					S841.4,542.7,848,542.7"/>
			</g>
		</g>
		<g>
			<g>
				<defs>
					<rect id="SVGID_9_" x="206" y="13" width="1024" height="768"/>
				</defs>
				<clipPath id="SVGID_10_">
					<use xlink:href="#SVGID_9_"  overflow="visible"/>
				</clipPath>
				<path clip-path="url(#SVGID_10_)" fill="#FFFFFF" d="M974.2,542.7c6.5,0,11.8-5.3,11.8-11.8s-5.3-11.8-11.8-11.8
					s-11.8,5.3-11.8,11.8S967.6,542.7,974.2,542.7"/>
			</g>
		</g>
	</g>
	<g display="inline">
		<path fill="#FFFFFF" d="M456,491.9c-7.1,0-14.5-1.5-20.2-4.6l2.6-17.3c5.7,2.6,11.3,4.3,17.1,4.3c4.5,0,5.9-1.2,5.9-3.3
			c0-6.4-25.7-4.7-25.7-26.8c0-12.2,7.6-22,25.3-22c6.3,0,13.3,1.1,18.4,3.1l-2.2,17.1c-5.4-1.4-10.7-2.2-14.9-2.2
			c-5.7,0-6.4,1.2-6.4,3.1c0,6.7,25.6,4.8,25.6,26.5C481.4,483.3,471.8,491.9,456,491.9z"/>
		<path fill="#FFFFFF" d="M541.3,473l-0.4,17.7h-45.4v-67.5h44.3l0.4,18h-23.6v7h19.1v16.3h-19.1v8.5L541.3,473L541.3,473z"/>
		<path fill="#FFFFFF" d="M598.3,489.1l10.2,8.7l-21.9,6.1l-6-12.1c-18.5-0.7-27.4-11.3-27.4-34.8c0-24.5,9.1-34.8,29.5-34.8
			c20.4,0,29.5,10.4,29.5,34.8C612.3,474.6,607.9,484.6,598.3,489.1z M582.7,440.4c-5.8,0-7.3,2.4-7.3,16.6
			c0,14.2,1.6,16.8,7.5,16.8c5.9,0,7.3-2.7,7.3-16.8C590.2,442.7,588.7,440.4,582.7,440.4z"/>
		<path fill="#FFFFFF" d="M680.6,467.7c0,15.6-8.6,24.2-26.8,24.2s-27.1-8.5-27.1-24.2v-44.5h21.1v44.1c0,4.3,1.4,6.2,5.9,6.2
			s5.8-1.7,5.8-6.2v-44.1h21.1L680.6,467.7L680.6,467.7z"/>
		<path fill="#FFFFFF" d="M742.3,473l-0.4,17.7h-45.4v-67.5h44.3l0.4,18h-23.6v7h19.1v16.3h-19.1v8.5L742.3,473L742.3,473z"/>
		<path fill="#FFFFFF" d="M796.5,490.7l-17-25.7l-3.9-6.2l-0.2,0.1l0.1,7.3v24.6H757v-67.5h17.4l18.4,29.3l0.2-0.1l-0.2-7.2l0.1-22
			h18.5v67.5L796.5,490.7L796.5,490.7z"/>
		<path fill="#FFFFFF" d="M869.6,441.7c-3-0.9-6.8-1.5-10.8-1.5c-8.9,0-10.3,3.6-10.3,16.6c0,13.7,1.7,17.4,10.7,17.4
			c3.9,0,7.6-0.7,10.6-2.1l1.9,16.7c-4.3,1.9-10.5,3.1-15.7,3.1c-19.8,0-29.7-11.1-29.7-35.2c0-22.3,9.4-34.6,30.9-34.6
			c4.8,0,10.6,1,14.3,2.3L869.6,441.7z"/>
		<path fill="#FFFFFF" d="M931.8,473l-0.4,17.7h-45.4v-67.5h44.3l0.4,18h-23.6v7h19.1v16.3h-19.1v8.5L931.8,473L931.8,473z"/>
		<path fill="#FFFFFF" d="M990.6,463.9l12.1,26.8h-24.2l-7.5-22.5h-3.4v22.5h-21.1v-67.5h24.6c18.3,0,27.6,6.7,27.6,22.5
			C998.8,454.2,995.8,460.8,990.6,463.9z M971.5,440.1h-3.9v12.8h3.9c4,0,5.3-0.6,5.3-6.4C976.8,441.2,975.7,440.1,971.5,440.1z"/>
	</g>
	<g display="inline">
		<path fill="#FFFFFF" d="M597.3,366.4c-7.1,0-14.5-1.5-20.2-4.6l2.6-17.3c5.7,2.6,11.3,4.3,17.1,4.3c4.5,0,5.8-1.2,5.8-3.3
			c0-6.4-25.7-4.7-25.7-26.8c0-12.2,7.6-22,25.3-22c6.3,0,13.3,1.1,18.4,3.1l-2.2,17.1c-5.4-1.4-10.7-2.2-14.8-2.2
			c-5.7,0-6.4,1.2-6.4,3.1c0,6.7,25.6,4.8,25.6,26.5C622.7,357.9,613.1,366.4,597.3,366.4z"/>
		<path fill="#FFFFFF" d="M690.3,342.2c0,15.6-8.6,24.2-26.8,24.2s-27.1-8.5-27.1-24.2v-44.5h21.1v44.1c0,4.3,1.3,6.2,5.9,6.2
			s5.8-1.7,5.8-6.2v-44.1h21.1V342.2z"/>
		<path fill="#FFFFFF" d="M724.4,366.4c-7.1,0-14.5-1.5-20.2-4.6l2.6-17.3c5.7,2.6,11.3,4.3,17.1,4.3c4.5,0,5.8-1.2,5.8-3.3
			c0-6.4-25.7-4.7-25.7-26.8c0-12.2,7.6-22,25.3-22c6.3,0,13.3,1.1,18.4,3.1l-2.2,17.1c-5.4-1.4-10.7-2.2-14.8-2.2
			c-5.7,0-6.4,1.2-6.4,3.1c0,6.7,25.6,4.8,25.6,26.5C749.9,357.9,740.3,366.4,724.4,366.4z"/>
		<path fill="#FFFFFF" d="M797.1,365.2v-25h-11.8v25h-21.1v-67.5h21.1V322h11.8v-24.3h21.1v67.5H797.1z"/>
		<path fill="#FFFFFF" d="M835.3,297.7h21.6v67.5h-21.6V297.7z"/>
	</g>
	
		<text transform="matrix(1 0 0 1 573.459 406.1973)" display="inline" fill="#FFFFFF" font-family="'KozGoPr6N-Regular-83pv-RKSJ-H'" font-size="36">寿</text>
	
		<text transform="matrix(1 0 0 1 611.2588 406.1973)" display="inline" fill="#FFFFFF" font-family="'KozGoPr6N-Regular-83pv-RKSJ-H'" font-size="36">司</text>
	
		<text transform="matrix(1 0 0 1 646.9351 406.1973)" display="inline" fill="#FFFFFF" font-family="'KozGoPr6N-Regular-83pv-RKSJ-H'" font-size="36">シ</text>
	
		<text transform="matrix(1 0 0 1 683.6553 406.1973)" display="inline" fill="#FFFFFF" font-family="'KozGoPr6N-Regular-83pv-RKSJ-H'" font-size="36">ー</text>
	
		<text transform="matrix(1 0 0 1 719.9785 406.1973)" display="inline" fill="#FFFFFF" font-family="'KozGoPr6N-Regular-83pv-RKSJ-H'" font-size="36">ケ</text>
	
		<text transform="matrix(1 0 0 1 754.1797 406.1973)" display="inline" fill="#FFFFFF" font-family="'KozGoPr6N-Regular-83pv-RKSJ-H'" font-size="36">ン</text>
	
		<text transform="matrix(1 0 0 1 790.1797 406.1973)" display="inline" fill="#FFFFFF" font-family="'KozGoPr6N-Regular-83pv-RKSJ-H'" font-size="36">サ</text>
	
		<text transform="matrix(1 0 0 1 826.8984 406.1973)" display="inline" fill="#FFFFFF" font-family="'KozGoPr6N-Regular-83pv-RKSJ-H'" font-size="36">ー</text>
	<g display="inline">
		<g>
			<g>
				<defs>
					<rect id="SVGID_11_" x="206" y="13" width="1024" height="768"/>
				</defs>
				<clipPath id="SVGID_12_">
					<use xlink:href="#SVGID_11_"  overflow="visible"/>
				</clipPath>
				<path clip-path="url(#SVGID_12_)" fill="#FFFFFF" d="M846.7,269.7c6.5,0,11.8-5.3,11.8-11.8c0-6.5-5.3-11.8-11.8-11.8
					c-6.5,0-11.8,5.3-11.8,11.8C834.9,264.4,840.2,269.7,846.7,269.7"/>
			</g>
		</g>
	</g>
	<g display="inline">
		<path fill="#FFFFFF" d="M1160.1,49.7h2.9v9h-2.9V49.7z"/>
		<path fill="#FFFFFF" d="M1169.2,58.7l-2.3-3.4l-0.5-0.8l0,0l0,1v3.3h-2.5v-9h2.3l2.5,3.9l0,0l0-1l0-2.9h2.5v9H1169.2z"/>
		<path fill="#FFFFFF" d="M1174.9,52.2v1.2h2.6l0,2.3h-2.6v3.1h-2.8v-9h5.9l0,2.4H1174.9z"/>
		<path fill="#FFFFFF" d="M1182.3,58.9c-2.7,0-3.9-1.4-3.9-4.7c0-3.3,1.2-4.6,3.9-4.6s3.9,1.4,3.9,4.6
			C1186.2,57.6,1185,58.9,1182.3,58.9z M1182.2,52c-0.8,0-1,0.3-1,2.2c0,1.9,0.2,2.2,1,2.2s1-0.4,1-2.2
			C1183.2,52.3,1183,52,1182.2,52z"/>
	</g>
	<g display="inline">
		<g>
			<g>
				<defs>
					<rect id="SVGID_13_" x="206" y="13" width="1024" height="768"/>
				</defs>
				<clipPath id="SVGID_14_">
					<use xlink:href="#SVGID_13_"  overflow="visible"/>
				</clipPath>
				<path clip-path="url(#SVGID_14_)" fill="#FFFFFF" d="M1173,76c-12.1,0-22-9.9-22-22s9.9-22,22-22s22,9.9,22,22
					S1185.1,76,1173,76z M1173,34c-11,0-20,9-20,20s9,20,20,20s20-9,20-20S1184,34,1173,34z"/>
			</g>
		</g>
	</g>
	<g display="inline">
		<path fill="#FFFFFF" d="M622,600.5v16.4h-7.1v-16.4h-4.7l0.1-6.1h16.4l0.1,6.1H622z"/>
		<path fill="#FFFFFF" d="M640.1,617.2c-6.7,0-9.8-3.5-9.8-11.6c0-8.2,3-11.6,9.8-11.6c6.8,0,9.8,3.5,9.8,11.6
			C649.9,614,646.9,617.2,640.1,617.2z M640.1,600.1c-1.9,0-2.4,0.8-2.4,5.5c0,4.7,0.5,5.6,2.5,5.6s2.4-0.9,2.4-5.6
			C642.5,600.9,642.1,600.1,640.1,600.1z"/>
		<path fill="#FFFFFF" d="M666.2,616.9l-3.4-8.7H662v8.7h-7v-22.5h7v8.4h1l3.5-8.4h7.8l-4.9,10.8l5.1,11.7H666.2z"/>
		<path fill="#FFFFFF" d="M678.9,594.4h7.2v22.5h-7.2V594.4z"/>
		<path fill="#FFFFFF" d="M699.5,594.4l3.3,9.7l0.8,2.3h0.1l0.7-2.3l3.4-9.7h7.7v22.5h-6.4v-7.4l0.1-2.4l-0.1,0l-0.8,2.3l-2.5,7.5
			h-4.5l-2.5-7.6L698,607l-0.1,0l0,2.4v7.4h-6.2v-22.5H699.5z"/>
		<path fill="#FFFFFF" d="M730.4,617.2c-6.7,0-9.8-3.5-9.8-11.6c0-8.2,3-11.6,9.8-11.6c6.8,0,9.8,3.5,9.8,11.6
			C740.2,614,737.2,617.2,730.4,617.2z M730.3,600.1c-1.9,0-2.4,0.8-2.4,5.5c0,4.7,0.5,5.6,2.5,5.6s2.4-0.9,2.4-5.6
			C732.8,600.9,732.3,600.1,730.3,600.1z"/>
		<path fill="#FFFFFF" d="M758.4,616.9l-5.7-8.6l-1.3-2.1l-0.1,0l0,2.4v8.2h-6.2v-22.5h5.8l6.1,9.8l0.1,0l-0.1-2.4l0-7.3h6.2v22.5
			H758.4z"/>
		<path fill="#FFFFFF" d="M775.2,617.2c-2.4,0-4.8-0.5-6.7-1.5l0.9-5.8c1.9,0.9,3.8,1.4,5.7,1.4c1.5,0,2-0.4,2-1.1
			c0-2.1-8.6-1.6-8.6-8.9c0-4.1,2.5-7.3,8.4-7.3c2.1,0,4.4,0.4,6.1,1l-0.8,5.7c-1.8-0.5-3.6-0.8-4.9-0.8c-1.9,0-2.1,0.4-2.1,1
			c0,2.2,8.5,1.6,8.5,8.9C783.7,614.4,780.5,617.2,775.2,617.2z"/>
		<path fill="#FFFFFF" d="M798.9,600.5v16.4h-7.1v-16.4H787l0.1-6.1h16.4l0.2,6.1H798.9z"/>
		<path fill="#FFFFFF" d="M817.8,613.4h-5l-0.7,3.4h-7.4l6.4-22.5h8.6l6.5,22.5h-7.8L817.8,613.4z M814.8,603l-1,4.8h2.8l-0.9-4.8
			l-0.4-2.4h-0.1L814.8,603z"/>
	</g>
	<g display="inline">
		<path fill="#FFFFFF" d="M665.5,636.7l-2.3,3c-2.5-1.9-5.6-3.7-8.6-5.2v11.2h-3.6v-21.8h3.6v6.8
			C658.2,632.3,662.3,634.6,665.5,636.7z"/>
		<path fill="#FFFFFF" d="M678.4,635.5l-0.6-4l-7.2,0.9l-0.5-3.2l7.3-0.9l-0.6-4.1l3.6-0.4l0.6,4l6.7-0.8l0.5,3.2l-6.7,0.8l0.6,4
			l8-1l0.5,3.2l-8,1l1,7.2l-3.6,0.5l-1.1-7.3l-8.8,1.1l-0.5-3.2L678.4,635.5z"/>
		<path fill="#FFFFFF" d="M702.3,633v-4.1h-5.8v-3.2h17.7v3.2h-8.3v4.1h9.7v3.2h-9.7v3.5c0,1.5,0.4,2,2.2,2.1c0.5,0,1.3,0,2.3,0
			c1.6,0,3.2,0,4.4-0.1v3.4c-1.2,0.1-2.9,0.1-4.5,0.1c-1,0-2,0-2.6,0c-3.9-0.1-5.4-1.5-5.4-5.2v0v-3.7h-7.1V633L702.3,633L702.3,633
			z"/>
		<path fill="#FFFFFF" d="M728.9,630.1l-2.3,2.9c-1.4-1.3-4.2-3.3-6.3-4.4l2.2-2.9C724.6,627,727.3,628.8,728.9,630.1z M737.6,630.1
			l2.3,2.7c-3.5,5.5-10.5,10.6-17.2,12.8l-1.8-3.4C727.5,640.6,734.2,635.7,737.6,630.1z"/>
		<path fill="#FFFFFF" d="M764.5,643.5l-3.2,2.2c-1.6-2.2-3.9-4.7-6.2-6.8c-2.6,2.9-5.6,5.1-8.8,6.8l-2.3-2.9
			c6.6-2.9,11.5-8.7,13-13.5h-11.3v-3.2h13.4l2.5,1.4c-1.1,3.3-2.5,6.2-4.3,8.7C759.8,638.5,762.4,641.1,764.5,643.5z"/>
		<path fill="#FFFFFF" d="M775.9,632.4c1.5,0.8,3.3,2,4.7,3.1c1.1-1.8,1.9-3.8,2.3-5.7h-6.4c-1.8,2.8-4.1,5.5-6.3,7.3l-2.7-2.2
			c3.4-2.5,6.8-7.3,8.2-11l3.4,1.1c-0.2,0.6-0.5,1.1-0.8,1.7h6.6l2.4,1.4c-1.9,8.3-6.4,15.2-13.6,17.9l-2.4-2.9c3-1,5.4-2.7,7.3-4.8
			c-1.5-1.2-3.3-2.5-4.8-3.3L775.9,632.4z"/>
	</g>
	<g display="inline">
		<path fill="#FFFFFF" d="M676.9,706.5c0,3.5-1.8,4.5-4.6,4.5c-0.8,0-1.5-0.1-2-0.3l0.2-2.8c0.3,0.1,0.7,0.2,1.3,0.2
			c1.1,0,1.7-0.4,1.7-1.6v-6.8h3.6L676.9,706.5L676.9,706.5z"/>
		<path fill="#FFFFFF" d="M688.5,706.9c0,2.6-1.4,4-4.5,4c-3,0-4.5-1.4-4.5-4v-7.4h3.5v7.3c0,0.7,0.2,1,1,1c0.8,0,1-0.3,1-1v-7.3
			h3.5V706.9z"/>
		<path fill="#FFFFFF" d="M694.2,711c-1.2,0-2.4-0.3-3.4-0.8l0.4-2.9c0.9,0.4,1.9,0.7,2.8,0.7c0.7,0,1-0.2,1-0.6
			c0-1.1-4.3-0.8-4.3-4.5c0-2,1.3-3.7,4.2-3.7c1,0,2.2,0.2,3.1,0.5l-0.4,2.8c-0.9-0.2-1.8-0.4-2.5-0.4c-0.9,0-1.1,0.2-1.1,0.5
			c0,1.1,4.3,0.8,4.3,4.4C698.4,709.5,696.8,711,694.2,711z"/>
		<path fill="#FFFFFF" d="M706,702.6v8.2h-3.6v-8.2h-2.4l0.1-3.1h8.2l0.1,3.1H706z"/>
		<path fill="#FFFFFF" d="M719.8,710.8h-4.6v-11.2h4.7c2.6,0,3.9,1.2,3.9,2.9c0,1.1-0.5,1.9-1.4,2.3v0c1.1,0.4,1.7,1.3,1.7,2.6
			C724.1,709.4,722.8,710.8,719.8,710.8z M719.8,702.4h-1.2v1.4h1.2c0.5,0,0.6-0.1,0.6-0.7C720.4,702.5,720.3,702.4,719.8,702.4z
			 M719.8,706.4h-1.2v1.6h1.3c0.6,0,0.7-0.1,0.7-0.8C720.5,706.6,720.4,706.4,719.8,706.4z"/>
		<path fill="#FFFFFF" d="M733.5,707.8l-0.1,3h-6.9v-11.2h3.5v8.2L733.5,707.8L733.5,707.8z"/>
		<path fill="#FFFFFF" d="M741.7,709.1h-2.5l-0.3,1.7h-3.7l3.2-11.2h4.3l3.3,11.2h-3.9L741.7,709.1z M740.3,703.8l-0.5,2.4h1.4
			l-0.5-2.4l-0.2-1.2h0L740.3,703.8z"/>
		<path fill="#FFFFFF" d="M747.7,710.8v-2.2l3.2-4.9l0.7-1l0,0h-3.7l0.1-3.1h7.8v2.4l-3,4.8l-0.7,1l0,0h3.7l0,3L747.7,710.8
			L747.7,710.8z"/>
		<path fill="#FFFFFF" d="M765.8,707.8l-0.1,2.9h-7.5v-11.2h7.4l0.1,3h-3.9v1.2h3.2v2.7h-3.2v1.4L765.8,707.8L765.8,707.8z"/>
	</g>
	<g display="inline">
		<path fill="#FFFFFF" d="M663.2,720.2l-1,1.7c-1.1-0.6-2.6-1.3-3.8-1.7l1-1.8C660.6,719,662.3,719.7,663.2,720.2z M669.1,718.4
			l1.4,1.6c-2.1,3.3-6.3,6.4-10.3,7.6l-1.1-2C663.1,724.6,667.1,721.7,669.1,718.4z M664.8,717l-1,1.7c-1.1-0.6-2.5-1.3-3.7-1.8
			l1-1.7C662.4,715.7,663.9,716.4,664.8,717z M667.9,715.5c0.7,0.5,1.1,1,1.7,1.7l-0.9,0.9c-0.5-0.7-1-1.1-1.7-1.7L667.9,715.5z
			 M669.5,714.2c0.7,0.5,1.1,1,1.7,1.7l-0.9,0.9c-0.5-0.7-1-1.1-1.7-1.7L669.5,714.2z"/>
		<path fill="#FFFFFF" d="M675.4,720.4l-0.6-2.5l1.9-0.4l0.6,2.6l4.4-0.9l1.5,0.9c-0.5,1.2-1.4,3.1-2.2,4.3l-1.6-0.8
			c0.5-0.7,1.1-1.7,1.3-2.2l-3,0.6l1.2,5.5l-1.9,0.4l-1.2-5.6l-2.6,0.5l-0.4-1.8L675.4,720.4z"/>
		<path fill="#FFFFFF" d="M698.3,726.4l-1.9,1.3c-1-1.3-2.3-2.8-3.7-4.1c-1.6,1.7-3.4,3.1-5.3,4.1L686,726c3.9-1.8,6.9-5.2,7.8-8.1
			H687V716h8l1.5,0.8c-0.6,2-1.5,3.7-2.6,5.2C695.5,723.4,697,724.9,698.3,726.4z"/>
		<path fill="#FFFFFF" d="M710.9,722.3l-1.4,1.8c-1.5-1.1-3.4-2.2-5.1-3.1v6.7h-2.2v-13.1h2.2v4.1C706.5,719.6,709,721,710.9,722.3z
			"/>
		<path fill="#FFFFFF" d="M716.2,722.8c-0.9,0-1.6-0.7-1.6-1.6c0-0.9,0.7-1.6,1.6-1.6c0.9,0,1.6,0.7,1.6,1.6
			C717.8,722,717.1,722.8,716.2,722.8L716.2,722.8z"/>
		<path fill="#FFFFFF" d="M731.2,716.3l0.4,0.2c-0.3-0.6-0.7-1-1.2-1.6l1-0.7c0.6,0.6,0.9,1.1,1.4,1.9l-0.9,0.6l0.9,0.5
			c-1.1,5-3.6,8.5-8.2,10.4l-1.5-1.7c4.3-1.6,6.4-4.2,7.1-7.6h-8.6v-2L731.2,716.3L731.2,716.3z M734.7,715.5l-1,0.7
			c-0.4-0.7-0.8-1.2-1.3-1.8l1-0.7C734,714.3,734.3,714.8,734.7,715.5z"/>
		<path fill="#FFFFFF" d="M740.2,715.3v9.5c2.3-0.7,5-2.5,6.9-4.9l1,2.1c-2,2.4-5.1,4.5-8.5,5.7l-1.6-1v-11.3L740.2,715.3
			L740.2,715.3z"/>
		<path fill="#FFFFFF" d="M758.3,727.7h-2.2V721c-1.5,1-3.1,1.8-4.5,2.4l-1.1-1.9c3.4-1.1,8.3-4.5,10.1-6.8l1.7,1.3
			c-1,1.1-2.4,2.3-3.9,3.5L758.3,727.7L758.3,727.7z"/>
		<path fill="#FFFFFF" d="M776.9,726.4l-1.9,1.3c-1-1.3-2.3-2.8-3.7-4.1c-1.5,1.7-3.4,3.1-5.3,4.1l-1.4-1.8c4-1.8,6.9-5.2,7.8-8
			h-6.7V716h8l1.5,0.8c-0.6,2-1.5,3.7-2.6,5.2C774.2,723.4,775.7,724.9,776.9,726.4z M775.4,714.8c0.6,0.6,0.9,1,1.4,1.6l-0.9,0.7
			c-0.4-0.6-0.8-1.1-1.3-1.6L775.4,714.8z M776.8,713.7c0.6,0.5,0.9,0.9,1.4,1.6l-0.9,0.7c-0.4-0.6-0.8-1.1-1.4-1.6L776.8,713.7z"/>
	</g>
	<polygon display="inline" fill="#FFFFFF" points="719,758 719,735 717,735 717,758 713.5,758 718,765.7 722.5,758 	"/>
</g>
</svg>
