<?xml version="1.0" encoding="utf-8"?>
<!-- Generator: Adobe Illustrator 18.1.0, SVG Export Plug-In . SVG Version: 6.00 Build 0)  -->
<svg version="1.1" id="Layer_1" xmlns="http://www.w3.org/2000/svg" xmlns:xlink="http://www.w3.org/1999/xlink" x="0px" y="0px"
	 viewBox="99 180 449 446" enable-background="new 99 180 449 446" xml:space="preserve">
<path fill="#FFFFFF" d="M324.3,620.4c-119.6,0-217.5-97.9-217.5-217.5s97.9-217.5,217.5-217.5s217.5,97.9,217.5,217.5
	S444.9,620.4,324.3,620.4z M324.3,205.2c-108.8,0-197.7,89-197.7,197.7s89,197.7,197.7,197.7S522,511.7,522,402.9
	S434,205.2,324.3,205.2z"/>
<path fill="#FFFFFF" d="M324.3,620.4c-119.6,0-217.5-97.9-217.5-217.5s97.9-217.5,217.5-217.5s217.5,97.9,217.5,217.5
	S444.9,620.4,324.3,620.4z M324.3,205.2c-108.8,0-197.7,89-197.7,197.7s89,197.7,197.7,197.7S522,511.7,522,402.9
	S434,205.2,324.3,205.2z"/>
<rect x="256.9" y="324.6" fill="none" width="134.7" height="156.6"/>
<text transform="matrix(1 0 0 1 256.9362 480.8295)" fill="#FFFFFF" font-family="'ClanPro-NarrUltra'" font-size="200">X</text>
</svg>
