<?xml version="1.0" encoding="utf-8"?>
<!-- Generator: Adobe Illustrator 18.1.0, SVG Export Plug-In . SVG Version: 6.00 Build 0)  -->
<svg version="1.1" id="Layer_1" xmlns="http://www.w3.org/2000/svg" xmlns:xlink="http://www.w3.org/1999/xlink" x="0px" y="0px"
	 viewBox="0 0 612 792" enable-background="new 0 0 612 792" xml:space="preserve">
<g>
	<g>
		<path d="M137.9,724.6"/>
	</g>
	<path d="M51,949.2c-113.8,0-206.2-92.4-206.2-206.2S-62.8,536.8,51,536.8S257.2,629.2,257.2,743S164.8,949.2,51,949.2z M51,555.7
		c-103.4,0-187.3,83.8-187.3,187.3S-52.4,930.3,51,930.3S238.3,846.4,238.3,743S154.4,555.7,51,555.7z"/>
</g>
<g>
	<path d="M55.9,764.4l-3.7-11h-0.6L43,780.9H10l21.4-43.5l-20.8-42.8h34.9l8,25.7h0.6l3.1-11l4.9-14.7h33.7l-20.2,42.2l20.2,44.1
		H61.4L55.9,764.4z"/>
</g>
</svg>
