<?xml version="1.0" encoding="utf-8"?>
<!-- Generator: Adobe Illustrator 18.1.0, SVG Export Plug-In . SVG Version: 6.00 Build 0)  -->
<svg version="1.1" id="Layer_1" xmlns="http://www.w3.org/2000/svg" xmlns:xlink="http://www.w3.org/1999/xlink" x="0px" y="0px"
	 viewBox="-255 347 100 100" enable-background="new -255 347 100 100" xml:space="preserve">
<g>
	<g>
		<path fill="#FFFFFF" d="M-190.8,390.2 M-190.8,394"/>
	</g>
	<path fill="#FFFFFF" d="M-205,430.7c-18.6,0-33.7-15.1-33.7-33.7c0-18.6,15.1-33.7,33.7-33.7s33.7,15.1,33.7,33.7
		C-171.3,415.6-186.4,430.7-205,430.7z M-205,366.4c-16.9,0-30.6,13.7-30.6,30.6c0,16.9,13.7,30.6,30.6,30.6
		c16.9,0,30.6-13.7,30.6-30.6C-174.4,380.1-188.1,366.4-205,366.4z"/>
</g>
<g>
	<path fill="#FFFFFF" d="M-204.2,400.5l-0.6-1.8h-0.1l-1.4,4.5h-5.4l3.5-7.1l-3.4-7h5.7l1.3,4.2h0.1l0.5-1.8l0.8-2.4h5.5l-3.3,6.9
		l3.3,7.2h-5.6L-204.2,400.5z"/>
</g>
</svg>
