<?xml version="1.0" encoding="utf-8"?>
<!-- Generator: Adobe Illustrator 18.1.0, SVG Export Plug-In . SVG Version: 6.00 Build 0)  -->
<svg version="1.1" id="Layer_1" xmlns="http://www.w3.org/2000/svg" xmlns:xlink="http://www.w3.org/1999/xlink" x="0px" y="0px"
	 viewBox="0 0 61.9 64.6" enable-background="new 0 0 61.9 64.6" xml:space="preserve">
<g>
	<path fill="#FFFFFF" d="M19.9,28.8h2.9v9h-2.9V28.8z"/>
	<path fill="#FFFFFF" d="M29,37.8l-2.3-3.4l-0.5-0.8l0,0l0,1v3.3h-2.5v-9h2.3l2.5,3.9l0,0l0-1l0-2.9H31v9H29z"/>
	<path fill="#FFFFFF" d="M34.7,31.2v1.2h2.6l0,2.3h-2.6v3.1h-2.8v-9h5.9l0,2.4H34.7z"/>
	<path fill="#FFFFFF" d="M42.1,37.9c-2.7,0-3.9-1.4-3.9-4.7c0-3.3,1.2-4.6,3.9-4.6c2.7,0,3.9,1.4,3.9,4.6
		C46,36.6,44.8,37.9,42.1,37.9z M42.1,31.1c-0.8,0-1,0.3-1,2.2c0,1.9,0.2,2.2,1,2.2c0.8,0,1-0.4,1-2.2
		C43.1,31.4,42.9,31.1,42.1,31.1z"/>
</g>
<path fill="#FFFFFF" d="M32.8,55c-12.1,0-22-9.9-22-22s9.9-22,22-22c12.1,0,22,9.9,22,22S45,55,32.8,55z M32.8,13c-11,0-20,9-20,20
	s9,20,20,20c11,0,20-9,20-20S43.9,13,32.8,13z"/>
<g>
	<path fill="#FFFFFF" d="M19.9,28.8h2.9v9h-2.9V28.8z"/>
	<path fill="#FFFFFF" d="M29,37.8l-2.3-3.4l-0.5-0.8l0,0l0,1v3.3h-2.5v-9h2.3l2.5,3.9l0,0l0-1l0-2.9H31v9H29z"/>
	<path fill="#FFFFFF" d="M34.7,31.2v1.2h2.6l0,2.3h-2.6v3.1h-2.8v-9h5.9l0,2.4H34.7z"/>
	<path fill="#FFFFFF" d="M42.1,37.9c-2.7,0-3.9-1.4-3.9-4.7c0-3.3,1.2-4.6,3.9-4.6c2.7,0,3.9,1.4,3.9,4.6
		C46,36.6,44.8,37.9,42.1,37.9z M42.1,31.1c-0.8,0-1,0.3-1,2.2c0,1.9,0.2,2.2,1,2.2c0.8,0,1-0.4,1-2.2
		C43.1,31.4,42.9,31.1,42.1,31.1z"/>
</g>
<path fill="#FFFFFF" d="M32.8,55c-12.1,0-22-9.9-22-22s9.9-22,22-22c12.1,0,22,9.9,22,22S45,55,32.8,55z M32.8,13c-11,0-20,9-20,20
	s9,20,20,20c11,0,20-9,20-20S43.9,13,32.8,13z"/>
</svg>
