<?xml version="1.0" encoding="utf-8"?>
<!-- Generator: Adobe Illustrator 18.1.0, SVG Export Plug-In . SVG Version: 6.00 Build 0)  -->
<svg version="1.1" id="Layer_1" xmlns="http://www.w3.org/2000/svg" xmlns:xlink="http://www.w3.org/1999/xlink" x="0px" y="0px"
	 viewBox="99 180 449 446" enable-background="new 99 180 449 446" xml:space="preserve">
<path fill="#FFFFFF" d="M324.3,620.4c-119.6,0-217.5-97.9-217.5-217.5s97.9-217.5,217.5-217.5s217.5,97.9,217.5,217.5
	S444.9,620.4,324.3,620.4z M324.3,205.2c-108.8,0-197.7,89-197.7,197.7s89,197.7,197.7,197.7S522,511.7,522,402.9
	S434,205.2,324.3,205.2z"/>
<path fill="#FFFFFF" d="M324.3,620.4c-119.6,0-217.5-97.9-217.5-217.5s97.9-217.5,217.5-217.5s217.5,97.9,217.5,217.5
	S444.9,620.4,324.3,620.4z M324.3,205.2c-108.8,0-197.7,89-197.7,197.7s89,197.7,197.7,197.7S522,511.7,522,402.9
	S434,205.2,324.3,205.2z"/>
<g>
	<path fill="#FFFFFF" d="M184.5,351h31.2v97.5h-31.2V351z"/>
	<path fill="#FFFFFF" d="M283.3,448.5l-24.6-37.2l-5.6-9l-0.3,0.1L253,413v35.5h-26.8V351h25.1l26.7,42.4l0.3-0.1l-0.3-10.4
		l0.1-31.9h26.8v97.5H283.3z"/>
	<path fill="#FFFFFF" d="M344.8,377.6V390h28l-0.3,25.1h-27.7v33.4h-30.4V351h63.8l0.4,26.5H344.8z"/>
	<path fill="#FFFFFF" d="M424.5,450.2c-28.9,0-42.6-15.2-42.6-50.4c0-35.4,13.1-50.3,42.6-50.3c29.5,0,42.6,15,42.6,50.3
		C467.1,436.3,454,450.2,424.5,450.2z M424.3,375.9c-8.3,0-10.5,3.5-10.5,23.9c0,20.5,2.3,24.3,10.8,24.3s10.5-3.9,10.5-24.3
		C435.1,379.2,433,375.9,424.3,375.9z"/>
</g>
</svg>
