<?xml version="1.0" encoding="utf-8"?>
<!-- Generator: Adobe Illustrator 18.1.0, SVG Export Plug-In . SVG Version: 6.00 Build 0)  -->
<svg version="1.1" id="Layer_1" xmlns="http://www.w3.org/2000/svg" xmlns:xlink="http://www.w3.org/1999/xlink" x="0px" y="0px"
	 viewBox="0 0 219.5 75.2" enable-background="new 0 0 219.5 75.2" xml:space="preserve">
<g>
	<path fill="#FFFFFF" d="M28.2,26.3c0,7-3.6,9.1-9.2,9.1c-1.7,0-3-0.2-4.1-0.7l0.3-5.7c0.5,0.2,1.5,0.4,2.5,0.4
		c2.3,0,3.3-0.8,3.3-3.2V12.4h7.2V26.3z"/>
	<path fill="#FFFFFF" d="M51.5,27.3c0,5.2-2.9,8.1-8.9,8.1c-6.1,0-9-2.8-9-8.1V12.4h7v14.7c0,1.4,0.5,2.1,2,2.1
		c1.5,0,1.9-0.6,1.9-2.1V12.4h7V27.3z"/>
	<path fill="#FFFFFF" d="M62.9,35.3c-2.4,0-4.8-0.5-6.8-1.5L57,28c1.9,0.9,3.8,1.4,5.7,1.4c1.5,0,1.9-0.4,1.9-1.1
		c0-2.1-8.6-1.6-8.6-8.9c0-4.1,2.5-7.3,8.4-7.3c2.1,0,4.4,0.4,6.1,1l-0.8,5.7c-1.8-0.5-3.6-0.8-4.9-0.8c-1.9,0-2.1,0.4-2.1,1
		c0,2.2,8.5,1.6,8.5,8.8C71.4,32.5,68.2,35.3,62.9,35.3z"/>
	<path fill="#FFFFFF" d="M86.6,18.6v16.4h-7.1V18.6h-4.7l0.1-6.1h16.4l0.1,6.1H86.6z"/>
	<path fill="#FFFFFF" d="M114.3,34.9h-9.2V12.4h9.4c5.1,0,7.7,2.4,7.7,5.9c0,2.3-1,3.8-2.7,4.6V23c2.2,0.8,3.4,2.5,3.4,5.2
		C122.9,32.3,120.3,34.9,114.3,34.9z M114.3,18.1h-2.3v2.9h2.3c1,0,1.2-0.3,1.2-1.5C115.5,18.4,115.2,18.1,114.3,18.1z M114.4,26.2
		h-2.4v3.2h2.5c1.1,0,1.3-0.3,1.3-1.6C115.8,26.6,115.6,26.2,114.4,26.2z"/>
	<path fill="#FFFFFF" d="M141.9,28.9l-0.2,6.1h-13.9V12.4h7.1v16.4H141.9z"/>
	<path fill="#FFFFFF" d="M158.3,31.5h-5l-0.7,3.4h-7.4l6.4-22.5h8.6l6.5,22.5h-7.8L158.3,31.5z M155.3,21.1l-1,4.8h2.8l-0.9-4.8
		l-0.4-2.4h-0.1L155.3,21.1z"/>
	<path fill="#FFFFFF" d="M170.3,34.9v-4.4l6.4-9.9l1.3-2l0-0.1h-7.5l0.1-6.1h15.6v4.9l-6.1,9.5l-1.3,1.9l0,0.1h7.4l-0.1,6.1H170.3z"
		/>
	<path fill="#FFFFFF" d="M206.5,29l-0.1,5.9h-15.1V12.4h14.8l0.1,6h-7.9v2.3h6.4v5.4h-6.4V29H206.5z"/>
</g>
<g>
	<path fill="#FFFFFF" d="M19.1,53.5l-1.6,2.9c-1.8-1-4.3-2.1-6.3-2.8l1.6-2.9C14.8,51.4,17.6,52.6,19.1,53.5z M29,50.4l2.3,2.6
		c-3.5,5.5-10.5,10.6-17.2,12.8l-1.8-3.4C18.9,60.9,25.6,56,29,50.4z M21.7,48l-1.7,2.8c-1.8-1-4.1-2.2-6.1-3l1.7-2.8
		C17.7,45.9,20.2,47.1,21.7,48z M26.9,45.6c1.2,0.9,1.9,1.6,2.8,2.8l-1.6,1.4c-0.9-1.1-1.6-1.9-2.8-2.8L26.9,45.6z M29.7,43.3
		c1.2,0.9,1.8,1.6,2.8,2.8l-1.5,1.4c-0.9-1.1-1.7-1.9-2.8-2.8L29.7,43.3z"/>
	<path fill="#FFFFFF" d="M39.5,53.8l-0.9-4.2l3.2-0.7l0.9,4.3l7.4-1.4l2.5,1.5c-0.8,2-2.4,5.1-3.7,7.1L46.2,59
		c0.9-1.2,1.8-2.8,2.2-3.7l-5,1l2,9.2l-3.1,0.8l-2-9.3l-4.4,0.9l-0.6-3L39.5,53.8z"/>
	<path fill="#FFFFFF" d="M77.7,63.8L74.5,66c-1.6-2.2-3.9-4.7-6.2-6.8c-2.6,2.9-5.6,5.1-8.8,6.8l-2.3-2.9c6.6-2.9,11.5-8.7,13-13.5
		H58.9v-3.2h13.4l2.5,1.4c-1.1,3.3-2.5,6.2-4.3,8.7C73.1,58.7,75.6,61.3,77.7,63.8z"/>
	<path fill="#FFFFFF" d="M98.8,56.9l-2.3,3c-2.4-1.9-5.6-3.7-8.6-5.2V66h-3.6V44.1h3.6v6.8C91.4,52.5,95.6,54.8,98.8,56.9z"/>
	<path fill="#FFFFFF" d="M107.6,57.7c-1.4,0-2.6-1.2-2.6-2.7c0-1.5,1.2-2.7,2.7-2.7c1.5,0,2.7,1.2,2.7,2.7
		C110.3,56.5,109.1,57.7,107.6,57.7L107.6,57.7z"/>
	<path fill="#FFFFFF" d="M132.8,47l0.7,0.4c-0.6-1-1.1-1.7-2-2.6l1.7-1.1c1,1,1.5,1.8,2.3,3.1l-1.4,0.9l1.5,0.8
		c-1.8,8.3-6,14.1-13.7,17.4l-2.5-2.9c7.1-2.7,10.7-7.1,11.9-12.7h-14.3V47H132.8z M138.6,45.7l-1.7,1.1c-0.6-1.2-1.3-2.1-2.2-3.1
		l1.7-1.1C137.4,43.6,137.9,44.4,138.6,45.7z"/>
	<path fill="#FFFFFF" d="M147.8,45.3v15.8c3.9-1.2,8.4-4.2,11.5-8.2l1.8,3.4c-3.3,4-8.5,7.4-14.3,9.4l-2.7-1.6V45.3H147.8z"/>
	<path fill="#FFFFFF" d="M178,66h-3.7V54.7c-2.5,1.6-5.2,3-7.5,3.9l-1.9-3.2c5.7-1.8,13.8-7.5,16.9-11.4l2.8,2.2
		c-1.6,1.9-4,3.9-6.6,5.8V66z"/>
	<path fill="#FFFFFF" d="M209.2,63.7L206,66c-1.6-2.2-3.9-4.7-6.2-6.8c-2.6,2.9-5.6,5.1-8.8,6.8l-2.3-2.9c6.6-3,11.5-8.7,13-13.4
		h-11.2v-3.2h13.4l2.5,1.4c-1,3.3-2.5,6.2-4.3,8.7C204.5,58.7,207.1,61.3,209.2,63.7z M206.6,44.4c1,0.9,1.5,1.6,2.3,2.7l-1.5,1.2
		c-0.7-1.1-1.3-1.8-2.2-2.7L206.6,44.4z M209,42.6c1,0.9,1.5,1.6,2.3,2.7l-1.4,1.1c-0.7-1.1-1.3-1.8-2.3-2.6L209,42.6z"/>
</g>
</svg>
