<?xml version="1.0" encoding="utf-8"?>
<!-- Generator: Adobe Illustrator 18.1.0, SVG Export Plug-In . SVG Version: 6.00 Build 0)  -->
<svg version="1.1" id="Layer_1" xmlns="http://www.w3.org/2000/svg" xmlns:xlink="http://www.w3.org/1999/xlink" x="0px" y="0px"
	 viewBox="0 203 612 326" enable-background="new 0 203 612 326" xml:space="preserve">
<g id="just_x5F_blaze">
	<g>
		<path d="M36.8,515.1c6.7,0,12.2-5.5,12.2-12.2c0-6.7-5.5-12.2-12.2-12.2s-12.2,5.5-12.2,12.2C24.6,509.6,30,515.1,36.8,515.1"/>
		<path d="M169,515.1c6.7,0,12.2-5.5,12.2-12.2c0-6.7-5.5-12.2-12.2-12.2c-6.7,0-12.2,5.5-12.2,12.2
			C156.8,509.6,162.2,515.1,169,515.1"/>
		<path d="M304.8,515.1c6.7,0,12.2-5.5,12.2-12.2c0-6.7-5.5-12.3-12.2-12.3c-6.7,0-12.2,5.5-12.2,12.2
			C292.6,509.5,298.1,515.1,304.8,515.1"/>
		<path d="M438.7,515.1c6.7,0,12.2-5.5,12.2-12.2c0-6.7-5.5-12.3-12.2-12.3c-6.7,0-12.2,5.5-12.2,12.2
			C426.5,509.5,431.9,515.1,438.7,515.1"/>
		<path d="M568.7,515.1c6.7,0,12.2-5.5,12.2-12.2c0-6.7-5.5-12.2-12.2-12.2s-12.2,5.5-12.2,12.2
			C556.6,509.6,561.9,515.1,568.7,515.1"/>
	</g>
	<g>
		<path d="M34.8,462.7c-7.3,0-14.9-1.5-20.8-4.7l2.7-17.8c5.9,2.7,11.6,4.4,17.6,4.4c4.6,0,6.1-1.2,6.1-3.4
			c0-6.6-26.5-4.8-26.5-27.6c0-12.6,7.8-22.7,26.1-22.7c6.5,0,13.7,1.1,19,3.2l-2.3,17.6c-5.6-1.4-11-2.3-15.4-2.3
			c-5.9,0-6.6,1.2-6.6,3.2c0,6.9,26.4,4.9,26.4,27.3C61,453.9,51.1,462.7,34.8,462.7z"/>
		<path d="M122.7,443.3l-0.4,18.2H75.5V392h45.6l0.4,18.5H97.3v7.2h19.7v16.8H97.3v8.8H122.7L122.7,443.3z"/>
		<path d="M181.4,459.9l10.5,9l-22.6,6.3l-6.2-12.5c-19.1-0.7-28.2-11.6-28.2-35.9c0-25.2,9.4-35.9,30.4-35.9s30.4,10.7,30.4,35.9
			C195.9,444.9,191.3,455.2,181.4,459.9z M165.4,409.7c-6,0-7.5,2.5-7.5,17.1s1.6,17.3,7.7,17.3s7.5-2.8,7.5-17.3
			C173.1,412.1,171.5,409.7,165.4,409.7z"/>
		<path d="M266.2,437.8c0,16.1-8.9,24.9-27.6,24.9s-27.9-8.8-27.9-24.9V392h21.7v45.4c0,4.4,1.4,6.4,6.1,6.4c4.6,0,6-1.8,6-6.4V392
			h21.7V437.8L266.2,437.8z"/>
		<path d="M329.8,443.3l-0.4,18.2h-46.8V392h45.6l0.4,18.5h-24.3v7.2H324v16.8h-19.7v8.8H329.8L329.8,443.3z"/>
		<path d="M385.6,461.5L368.1,435l-4-6.4l-0.2,0.1l0.1,7.5v25.3h-19.1v-69.5h17.9l19,30.2l0.2-0.1l-0.2-7.4l0.1-22.7H401v69.5
			L385.6,461.5L385.6,461.5z"/>
		<path d="M461,411c-3.1-0.9-7-1.5-11.1-1.5c-9.2,0-10.6,3.7-10.6,17.1c0,14.1,1.8,17.9,11,17.9c4,0,7.8-0.7,10.9-2.2l2,17.2
			c-4.4,2-10.8,3.2-16.2,3.2c-20.4,0-30.6-11.4-30.6-36.3c0-23,9.7-35.6,31.8-35.6c4.9,0,10.9,1,14.7,2.4L461,411z"/>
		<path d="M525,443.3l-0.4,18.2h-46.8V392h45.6l0.4,18.5h-24.3v7.2h19.7v16.8h-19.7v8.8H525L525,443.3z"/>
		<path d="M585.6,433.9l12.5,27.6h-24.9l-7.7-23.2h-3.5v23.2h-21.7V392h25.3c18.9,0,28.4,6.9,28.4,23.2
			C594.1,423.9,591,430.7,585.6,433.9z M565.9,409.4h-4v13.2h4c4.1,0,5.5-0.6,5.5-6.6C571.4,410.5,570.3,409.4,565.9,409.4z"/>
	</g>
	<g>
		<path d="M180.4,333.4c-7.3,0-14.9-1.5-20.8-4.7l2.7-17.8c5.9,2.7,11.6,4.4,17.6,4.4c4.6,0,6-1.2,6-3.4c0-6.6-26.5-4.8-26.5-27.6
			c0-12.6,7.8-22.7,26.1-22.7c6.5,0,13.7,1.1,19,3.2l-2.3,17.6c-5.6-1.4-11-2.3-15.2-2.3c-5.9,0-6.6,1.2-6.6,3.2
			c0,6.9,26.4,4.9,26.4,27.3C206.6,324.7,196.7,333.4,180.4,333.4z"/>
		<path d="M276.2,308.5c0,16.1-8.9,24.9-27.6,24.9s-27.9-8.8-27.9-24.9v-45.8h21.7v45.4c0,4.4,1.3,6.4,6.1,6.4s6-1.8,6-6.4v-45.4
			h21.7V308.5z"/>
		<path d="M311.4,333.4c-7.3,0-14.9-1.5-20.8-4.7l2.7-17.8c5.9,2.7,11.6,4.4,17.6,4.4c4.6,0,6-1.2,6-3.4c0-6.6-26.5-4.8-26.5-27.6
			c0-12.6,7.8-22.7,26.1-22.7c6.5,0,13.7,1.1,19,3.2l-2.3,17.6c-5.6-1.4-11-2.3-15.2-2.3c-5.9,0-6.6,1.2-6.6,3.2
			c0,6.9,26.4,4.9,26.4,27.3C337.6,324.7,327.7,333.4,311.4,333.4z"/>
		<path d="M386.3,332.2v-25.8h-12.2v25.8h-21.7v-69.5h21.7v25h12.2v-25H408v69.5H386.3z"/>
		<path d="M425.6,262.7h22.3v69.5h-22.3V262.7z"/>
	</g>
	<g>
		<path d="M166.1,365.4c0.4-0.6,0.7-1.2,1-1.9H157v-3.9h12c0.2-0.5,0.4-1.1,0.6-1.8h-8.2V354h9.3c0.1-0.5,0.2-1,0.3-1.5h-11.7v-3.9
			h12.3c0.1-0.9,0.2-2,0.3-2.9l4.9,0.3c-0.1,0.9-0.2,1.9-0.3,2.7h13.5v3.9h-14c-0.1,0.5-0.2,1-0.3,1.5h12.3v3.8h-13.3
			c-0.1,0.6-0.3,1.1-0.5,1.8h17.8v3.9h-7.3v1.9h6.2v3.9h-6.2v6.8c0,2.5-0.7,3.8-2.9,4.1c-1.1,0.2-3.8,0.2-5.7,0.1l-0.9-4.5
			c1.3,0.1,3.2,0.1,3.8,0.1c0.5,0,0.7-0.3,0.7-0.8v-5.9h-10.3c-2.3,3.4-5.2,6.5-8.7,9.2l-4-3.1c2.5-1.9,4.7-3.8,6.6-6H158v-3.9
			L166.1,365.4L166.1,365.4z M170.4,370c2.3,1.9,3.9,3.7,5,5.5l-4.1,2.7c-0.9-1.9-2.5-3.7-4.4-5.6L170.4,370z M179.5,365.4v-1.9
			h-7.1c-0.3,0.6-0.6,1.2-0.9,1.9H179.5z"/>
		<path d="M224.7,380.2c-1.1,0.2-3.6,0.2-5.4,0.1l-1-4.7c1.4,0.1,3.3,0.2,4,0.1c0.8-0.1,1-0.5,1-1.2v-22.9h-25.6V347h25.6h2.3h2.8
			v28.2C228.3,378.3,227.4,379.8,224.7,380.2z M199.4,358.1v-4.2h22.3v4.2H199.4z M201.6,376.2v-15.9h1.8h2.9h12.9v13.2h-12.9v2.7
			H201.6z M206.3,369.2h8.1v-4.6h-8.1V369.2z"/>
		<path d="M247.2,360.7l-2.5,4.3c-2.7-1.4-6.4-3.2-9.4-4.2l2.5-4.3C240.8,357.6,244.9,359.5,247.2,360.7z M261.9,356.2l3.4,3.9
			c-5.3,8.2-15.7,15.8-25.4,19l-2.8-5C246.9,371.7,256.9,364.5,261.9,356.2z M251.1,352.6l-2.5,4.2c-2.7-1.5-6.2-3.3-9.2-4.4
			l2.5-4.2C245.1,349.5,248.8,351.4,251.1,352.6z"/>
		<path d="M303.1,360.4v5.5h-30.4v-5.5H303.1z"/>
		<path d="M320.2,379.6l-4.1-3.8c8.4-4.2,11.2-9.9,11.7-16.8h-7.6c-2,3.4-4.3,6.6-6.9,9.1L309,365c5-4.4,9.4-12.6,10.8-18.1l5,1.4
			c-0.5,2-1.2,3.9-2.2,5.9h18.8v4.8h-8.2C332.5,367.2,329.1,374.3,320.2,379.6z"/>
		<path d="M359.5,356.1l-3.4,4.3c-2.1-1.9-6.3-4.8-9.4-6.5l3.3-4.2C353.1,351.5,357.1,354.2,359.5,356.1z M372.5,356.1l3.4,4
			c-5.3,8.2-15.7,15.8-25.4,19l-2.8-5C357.3,371.6,367.3,364.4,372.5,356.1z"/>
		<path d="M387.8,353.5v-6.6h5.2v6.6h9.4v-6.7h5.3v6.7h6.3v4.7h-6.3v2.7c0,8.6-3.2,14.3-11.7,18.4l-3.5-4.1c8.1-3.5,10-7.8,10-14.1
			v-2.8H393v8.7h-5.2v-8.7h-6.3v-4.7L387.8,353.5L387.8,353.5z"/>
		<path d="M450.8,360.4v5.5h-30.4v-5.5H450.8z"/>
	</g>
	<g>
		<path d="M437.4,233.8c6.7,0,12.2-5.5,12.2-12.2c0-6.7-5.5-12.2-12.2-12.2c-6.7,0-12.2,5.5-12.2,12.2
			C425.2,228.4,430.7,233.8,437.4,233.8"/>
	</g>
</g>
<g id="Layer_2" display="none">
	<rect x="199.5" y="237.3" display="inline" fill="#1D1D1B" width="1055" height="791.3"/>
	<g display="inline">
		<g>
			<g>
				<g>
					<defs>
						<rect id="SVGID_1_" x="199.5" y="237.3" width="1055" height="791.3"/>
					</defs>
					<clipPath id="SVGID_2_">
						<use xlink:href="#SVGID_1_"  overflow="visible"/>
					</clipPath>
					<path clip-path="url(#SVGID_2_)" fill="#FFFFFF" d="M459,783.1c6.7,0,12.2-5.5,12.2-12.2s-5.5-12.2-12.2-12.2
						c-6.7,0-12.2,5.5-12.2,12.2S452.2,783.1,459,783.1"/>
				</g>
			</g>
		</g>
		<g>
			<g>
				<g>
					<defs>
						<rect id="SVGID_3_" x="199.5" y="237.3" width="1055" height="791.3"/>
					</defs>
					<clipPath id="SVGID_4_">
						<use xlink:href="#SVGID_3_"  overflow="visible"/>
					</clipPath>
					<path clip-path="url(#SVGID_4_)" fill="#FFFFFF" d="M591.2,783.1c6.7,0,12.2-5.5,12.2-12.2s-5.5-12.2-12.2-12.2
						s-12.2,5.5-12.2,12.2S584.4,783.1,591.2,783.1"/>
				</g>
			</g>
		</g>
		<g>
			<g>
				<g>
					<defs>
						<rect id="SVGID_5_" x="199.5" y="237.3" width="1055" height="791.3"/>
					</defs>
					<clipPath id="SVGID_6_">
						<use xlink:href="#SVGID_5_"  overflow="visible"/>
					</clipPath>
					<path clip-path="url(#SVGID_6_)" fill="#FFFFFF" d="M727,783.1c6.7,0,12.2-5.5,12.2-12.2s-5.5-12.3-12.2-12.3
						s-12.2,5.5-12.2,12.2S720.3,783.1,727,783.1"/>
				</g>
			</g>
		</g>
		<g>
			<g>
				<g>
					<defs>
						<rect id="SVGID_7_" x="199.5" y="237.3" width="1055" height="791.3"/>
					</defs>
					<clipPath id="SVGID_8_">
						<use xlink:href="#SVGID_7_"  overflow="visible"/>
					</clipPath>
					<path clip-path="url(#SVGID_8_)" fill="#FFFFFF" d="M860.9,783.1c6.7,0,12.2-5.5,12.2-12.2s-5.5-12.3-12.2-12.3
						s-12.2,5.5-12.2,12.2S854.1,783.1,860.9,783.1"/>
				</g>
			</g>
		</g>
		<g>
			<g>
				<g>
					<defs>
						<rect id="SVGID_9_" x="199.5" y="237.3" width="1055" height="791.3"/>
					</defs>
					<clipPath id="SVGID_10_">
						<use xlink:href="#SVGID_9_"  overflow="visible"/>
					</clipPath>
					<path clip-path="url(#SVGID_10_)" fill="#FFFFFF" d="M991,783.1c6.7,0,12.2-5.5,12.2-12.2s-5.5-12.2-12.2-12.2
						s-12.2,5.5-12.2,12.2S984.2,783.1,991,783.1"/>
				</g>
			</g>
		</g>
	</g>
	<g display="inline">
		<path fill="#FFFFFF" d="M457.1,730.7c-7.3,0-14.9-1.5-20.8-4.7l2.7-17.8c5.9,2.7,11.6,4.4,17.6,4.4c4.6,0,6.1-1.2,6.1-3.4
			c0-6.6-26.5-4.8-26.5-27.6c0-12.6,7.8-22.7,26.1-22.7c6.5,0,13.7,1.1,19,3.2l-2.3,17.6c-5.6-1.4-11-2.3-15.4-2.3
			c-5.9,0-6.6,1.2-6.6,3.2c0,6.9,26.4,4.9,26.4,27.3C483.2,721.9,473.3,730.7,457.1,730.7z"/>
		<path fill="#FFFFFF" d="M544.9,711.3l-0.4,18.2h-46.8V660h45.6l0.4,18.5h-24.3v7.2h19.7v16.8h-19.7v8.8H544.9L544.9,711.3z"/>
		<path fill="#FFFFFF" d="M603.7,727.9l10.5,9l-22.6,6.3l-6.2-12.5c-19.1-0.7-28.2-11.6-28.2-35.9c0-25.2,9.4-35.9,30.4-35.9
			c21,0,30.4,10.7,30.4,35.9C618.1,712.9,613.6,723.2,603.7,727.9z M587.6,677.7c-6,0-7.5,2.5-7.5,17.1s1.6,17.3,7.7,17.3
			c6.1,0,7.5-2.8,7.5-17.3C595.3,680.1,593.8,677.7,587.6,677.7z"/>
		<path fill="#FFFFFF" d="M688.5,705.8c0,16.1-8.9,24.9-27.6,24.9c-18.8,0-27.9-8.8-27.9-24.9V660h21.7v45.4c0,4.4,1.4,6.4,6.1,6.4
			s6-1.8,6-6.4V660h21.7V705.8L688.5,705.8z"/>
		<path fill="#FFFFFF" d="M752,711.3l-0.4,18.2h-46.8V660h45.6l0.4,18.5h-24.3v7.2h19.7v16.8h-19.7v8.8H752L752,711.3z"/>
		<path fill="#FFFFFF" d="M807.9,729.5L790.4,703l-4-6.4l-0.2,0.1l0.1,7.5v25.3h-19.1v-69.5h17.9l19,30.2l0.2-0.1l-0.2-7.4l0.1-22.7
			h19.1v69.5L807.9,729.5L807.9,729.5z"/>
		<path fill="#FFFFFF" d="M883.2,679c-3.1-0.9-7-1.5-11.1-1.5c-9.2,0-10.6,3.7-10.6,17.1c0,14.1,1.8,17.9,11,17.9
			c4,0,7.8-0.7,10.9-2.2l2,17.2c-4.4,2-10.8,3.2-16.2,3.2c-20.4,0-30.6-11.4-30.6-36.3c0-23,9.7-35.6,31.8-35.6
			c4.9,0,10.9,1,14.7,2.4L883.2,679z"/>
		<path fill="#FFFFFF" d="M947.3,711.3l-0.4,18.2h-46.8V660h45.6l0.4,18.5h-24.3v7.2h19.7v16.8h-19.7v8.8H947.3L947.3,711.3z"/>
		<path fill="#FFFFFF" d="M1007.9,701.9l12.5,27.6h-24.9l-7.7-23.2h-3.5v23.2h-21.7V660h25.3c18.9,0,28.4,6.9,28.4,23.2
			C1016.3,691.9,1013.2,698.7,1007.9,701.9z M988.2,677.4h-4v13.2h4c4.1,0,5.5-0.6,5.5-6.6C993.6,678.5,992.5,677.4,988.2,677.4z"/>
	</g>
	<g display="inline">
		<path fill="#FFFFFF" d="M602.6,601.4c-7.3,0-14.9-1.5-20.8-4.7l2.7-17.8c5.9,2.7,11.6,4.4,17.6,4.4c4.6,0,6-1.2,6-3.4
			c0-6.6-26.5-4.8-26.5-27.6c0-12.6,7.8-22.7,26.1-22.7c6.5,0,13.7,1.1,19,3.2l-2.3,17.6c-5.6-1.4-11-2.3-15.2-2.3
			c-5.9,0-6.6,1.2-6.6,3.2c0,6.9,26.4,4.9,26.4,27.3C628.8,592.7,618.9,601.4,602.6,601.4z"/>
		<path fill="#FFFFFF" d="M698.5,576.5c0,16.1-8.9,24.9-27.6,24.9s-27.9-8.8-27.9-24.9v-45.8h21.7v45.4c0,4.4,1.3,6.4,6.1,6.4
			s6-1.8,6-6.4v-45.4h21.7V576.5z"/>
		<path fill="#FFFFFF" d="M733.6,601.4c-7.3,0-14.9-1.5-20.8-4.7l2.7-17.8c5.9,2.7,11.6,4.4,17.6,4.4c4.6,0,6-1.2,6-3.4
			c0-6.6-26.5-4.8-26.5-27.6c0-12.6,7.8-22.7,26.1-22.7c6.5,0,13.7,1.1,19,3.2l-2.3,17.6c-5.6-1.4-11-2.3-15.2-2.3
			c-5.9,0-6.6,1.2-6.6,3.2c0,6.9,26.4,4.9,26.4,27.3C759.9,592.7,750,601.4,733.6,601.4z"/>
		<path fill="#FFFFFF" d="M808.5,600.2v-25.8h-12.2v25.8h-21.7v-69.5h21.7v25h12.2v-25h21.7v69.5H808.5z"/>
		<path fill="#FFFFFF" d="M847.9,530.7h22.3v69.5h-22.3V530.7z"/>
	</g>
	
		<text transform="matrix(1 0 0 1 578.0791 642.4453)" display="inline" fill="#FFFFFF" font-family="'KozGoPr6N-Regular-83pv-RKSJ-H'" font-size="37.0909">寿</text>
	
		<text transform="matrix(1 0 0 1 617.0244 642.4453)" display="inline" fill="#FFFFFF" font-family="'KozGoPr6N-Regular-83pv-RKSJ-H'" font-size="37.0909">司</text>
	
		<text transform="matrix(1 0 0 1 653.7812 642.4453)" display="inline" fill="#FFFFFF" font-family="'KozGoPr6N-Regular-83pv-RKSJ-H'" font-size="37.0909">シ</text>
	
		<text transform="matrix(1 0 0 1 691.6143 642.4453)" display="inline" fill="#FFFFFF" font-family="'KozGoPr6N-Regular-83pv-RKSJ-H'" font-size="37.0909">ー</text>
	
		<text transform="matrix(1 0 0 1 729.0381 642.4453)" display="inline" fill="#FFFFFF" font-family="'KozGoPr6N-Regular-83pv-RKSJ-H'" font-size="37.0909">ケ</text>
	
		<text transform="matrix(1 0 0 1 764.2754 642.4453)" display="inline" fill="#FFFFFF" font-family="'KozGoPr6N-Regular-83pv-RKSJ-H'" font-size="37.0909">ン</text>
	
		<text transform="matrix(1 0 0 1 801.3672 642.4453)" display="inline" fill="#FFFFFF" font-family="'KozGoPr6N-Regular-83pv-RKSJ-H'" font-size="37.0909">サ</text>
	
		<text transform="matrix(1 0 0 1 839.1982 642.4453)" display="inline" fill="#FFFFFF" font-family="'KozGoPr6N-Regular-83pv-RKSJ-H'" font-size="37.0909">ー</text>
	<g display="inline">
		<g>
			<g>
				<g>
					<defs>
						<rect id="SVGID_11_" x="199.5" y="237.3" width="1055" height="791.3"/>
					</defs>
					<clipPath id="SVGID_12_">
						<use xlink:href="#SVGID_11_"  overflow="visible"/>
					</clipPath>
					<path clip-path="url(#SVGID_12_)" fill="#FFFFFF" d="M859.6,501.8c6.7,0,12.2-5.5,12.2-12.2s-5.5-12.2-12.2-12.2
						s-12.2,5.5-12.2,12.2C847.4,496.4,852.9,501.8,859.6,501.8"/>
				</g>
			</g>
		</g>
	</g>
	<g display="inline">
		<path fill="#FFFFFF" d="M1182.5,275.1h3v9.3h-3V275.1z"/>
		<path fill="#FFFFFF" d="M1191.9,284.4l-2.4-3.5l-0.5-0.8l0,0v1v3.4h-2.6v-9.3h2.4l2.6,4l0,0v-1v-3h2.6v9.3h-2.1V284.4z"/>
		<path fill="#FFFFFF" d="M1197.7,277.7v1.2h2.7v2.4h-2.7v3.2h-2.9v-9.3h6.1v2.5H1197.7z"/>
		<path fill="#FFFFFF" d="M1205.4,284.6c-2.8,0-4-1.4-4-4.8s1.2-4.7,4-4.7c2.8,0,4,1.4,4,4.7
			C1209.4,283.3,1208.2,284.6,1205.4,284.6z M1205.3,277.5c-0.8,0-1,0.3-1,2.3s0.2,2.3,1,2.3s1-0.4,1-2.3
			C1206.3,277.8,1206.1,277.5,1205.3,277.5z"/>
	</g>
	<g display="inline">
		<g>
			<g>
				<g>
					<defs>
						<rect id="SVGID_13_" x="199.5" y="237.3" width="1055" height="791.3"/>
					</defs>
					<clipPath id="SVGID_14_">
						<use xlink:href="#SVGID_13_"  overflow="visible"/>
					</clipPath>
					<path clip-path="url(#SVGID_14_)" fill="#FFFFFF" d="M1195.8,302.2c-12.5,0-22.7-10.2-22.7-22.7c0-12.5,10.2-22.7,22.7-22.7
						s22.7,10.2,22.7,22.7C1218.5,292,1208.3,302.2,1195.8,302.2z M1195.8,259c-11.3,0-20.6,9.3-20.6,20.6
						c0,11.3,9.3,20.6,20.6,20.6s20.6-9.3,20.6-20.6C1216.4,268.2,1207.1,259,1195.8,259z"/>
				</g>
			</g>
		</g>
	</g>
	<g display="inline">
		<path fill="#FFFFFF" d="M628.1,842.6v16.9h-7.3v-16.9h-4.8l0.1-6.3h16.9l0.1,6.3H628.1z"/>
		<path fill="#FFFFFF" d="M646.7,859.8c-6.9,0-10.1-3.6-10.1-12c0-8.4,3.1-12,10.1-12s10.1,3.6,10.1,12
			C656.8,856.5,653.7,859.8,646.7,859.8z M646.7,842.2c-2,0-2.5,0.8-2.5,5.7c0,4.8,0.5,5.8,2.6,5.8s2.5-0.9,2.5-5.8
			C649.2,843,648.8,842.2,646.7,842.2z"/>
		<path fill="#FFFFFF" d="M673.6,859.5l-3.5-9h-0.8v9h-7.2v-23.2h7.2v8.7h1l3.6-8.7h8l-5,11.1l5.3,12.1H673.6z"/>
		<path fill="#FFFFFF" d="M686.7,836.4h7.4v23.2h-7.4V836.4z"/>
		<path fill="#FFFFFF" d="M707.9,836.4l3.4,10l0.8,2.4h0.1l0.7-2.4l3.5-10h7.9v23.2h-6.6v-7.6l0.1-2.5h-0.1l-0.8,2.4l-2.6,7.7h-4.6
			l-2.6-7.8l-0.8-2.4h-0.1v2.5v7.6h-6.4v-23.2h8V836.4z"/>
		<path fill="#FFFFFF" d="M739.8,859.8c-6.9,0-10.1-3.6-10.1-12c0-8.4,3.1-12,10.1-12s10.1,3.6,10.1,12
			C749.9,856.5,746.8,859.8,739.8,859.8z M739.7,842.2c-2,0-2.5,0.8-2.5,5.7c0,4.8,0.5,5.8,2.6,5.8s2.5-0.9,2.5-5.8
			C742.2,843,741.7,842.2,739.7,842.2z"/>
		<path fill="#FFFFFF" d="M768.6,859.5l-5.9-8.9l-1.3-2.2h-0.1v2.5v8.4h-6.4v-23.2h6l6.3,10.1h0.1l-0.1-2.5v-7.5h6.4v23.2
			L768.6,859.5L768.6,859.5z"/>
		<path fill="#FFFFFF" d="M785.9,859.8c-2.5,0-4.9-0.5-6.9-1.5l0.9-6c2,0.9,3.9,1.4,5.9,1.4c1.5,0,2.1-0.4,2.1-1.1
			c0-2.2-8.9-1.6-8.9-9.2c0-4.2,2.6-7.5,8.7-7.5c2.2,0,4.5,0.4,6.3,1l-0.8,5.9c-1.9-0.5-3.7-0.8-5-0.8c-2,0-2.2,0.4-2.2,1
			c0,2.3,8.8,1.6,8.8,9.2C794.7,857,791.4,859.8,785.9,859.8z"/>
		<path fill="#FFFFFF" d="M810.4,842.6v16.9H803v-16.9h-4.9l0.1-6.3h16.9l0.2,6.3H810.4z"/>
		<path fill="#FFFFFF" d="M829.8,855.9h-5.2l-0.7,3.5h-7.6l6.6-23.2h8.9l6.7,23.2h-8L829.8,855.9z M826.7,845.2l-1,4.9h2.9l-0.9-4.9
			l-0.4-2.5h-0.1L826.7,845.2z"/>
	</g>
	<g display="inline">
		<path fill="#FFFFFF" d="M672.9,879.9l-2.4,3.1c-2.6-2-5.8-3.8-8.9-5.4v11.5H658v-22.5h3.7v7C665.4,875.4,669.6,877.8,672.9,879.9z
			"/>
		<path fill="#FFFFFF" d="M686.2,878.7l-0.6-4.1l-7.4,0.9l-0.5-3.3l7.5-0.9l-0.6-4.2l3.7-0.4l0.6,4.1l6.9-0.8l0.5,3.3l-6.9,0.8
			l0.6,4.1l8.2-1l0.5,3.3l-8.2,1l1,7.4l-3.7,0.5l-1.1-7.5l-9.1,1.1l-0.5-3.3L686.2,878.7z"/>
		<path fill="#FFFFFF" d="M710.8,876.1v-4.2h-6v-3.3h18.2v3.3h-8.6v4.2h10v3.3h-10v3.6c0,1.5,0.4,2.1,2.3,2.2c0.5,0,1.3,0,2.4,0
			c1.6,0,3.3,0,4.5-0.1v3.5c-1.2,0.1-3,0.1-4.6,0.1c-1,0-2.1,0-2.7,0c-4-0.1-5.6-1.5-5.6-5.4l0,0v-3.8h-7.3v-3.4H710.8L710.8,876.1z
			"/>
		<path fill="#FFFFFF" d="M738.2,873.1l-2.4,3c-1.4-1.3-4.3-3.4-6.5-4.5l2.3-3C733.8,869.9,736.6,871.8,738.2,873.1z M747.2,873.1
			l2.4,2.8c-3.6,5.7-10.8,10.9-17.7,13.2l-1.9-3.5C736.8,884,743.7,878.9,747.2,873.1z"/>
		<path fill="#FFFFFF" d="M774.9,886.9l-3.3,2.3c-1.6-2.3-4-4.8-6.4-7c-2.7,3-5.8,5.3-9.1,7l-2.4-3c6.8-3,11.8-9,13.4-13.9h-11.6
			V869h13.8l2.6,1.4c-1.1,3.4-2.6,6.4-4.4,9C770.1,881.8,772.7,884.5,774.9,886.9z"/>
		<path fill="#FFFFFF" d="M786.7,875.5c1.5,0.8,3.4,2.1,4.8,3.2c1.1-1.9,2-3.9,2.4-5.9h-6.6c-1.9,2.9-4.2,5.7-6.5,7.5l-2.8-2.3
			c3.5-2.6,7-7.5,8.4-11.3l3.5,1.1c-0.2,0.6-0.5,1.1-0.8,1.8h6.8l2.5,1.4c-2,8.6-6.6,15.7-14,18.4l-2.5-3c3.1-1,5.6-2.8,7.5-4.9
			c-1.5-1.2-3.4-2.6-4.9-3.4L786.7,875.5z"/>
	</g>
	<g display="inline">
		<path fill="#FFFFFF" d="M684.7,951.8c0,3.6-1.9,4.6-4.7,4.6c-0.8,0-1.5-0.1-2.1-0.3l0.2-2.9c0.3,0.1,0.7,0.2,1.3,0.2
			c1.1,0,1.8-0.4,1.8-1.6v-7h3.7L684.7,951.8L684.7,951.8z"/>
		<path fill="#FFFFFF" d="M696.6,952.3c0,2.7-1.4,4.1-4.6,4.1c-3.1,0-4.6-1.4-4.6-4.1v-7.6h3.6v7.5c0,0.7,0.2,1,1,1s1-0.3,1-1v-7.5
			h3.6V952.3z"/>
		<path fill="#FFFFFF" d="M702.5,956.5c-1.2,0-2.5-0.3-3.5-0.8l0.4-3c0.9,0.4,2,0.7,2.9,0.7c0.7,0,1-0.2,1-0.6
			c0-1.1-4.4-0.8-4.4-4.6c0-2.1,1.3-3.8,4.3-3.8c1,0,2.3,0.2,3.2,0.5l-0.4,2.9c-0.9-0.2-1.9-0.4-2.6-0.4c-0.9,0-1.1,0.2-1.1,0.5
			c0,1.1,4.4,0.8,4.4,4.5C706.8,954.9,705.2,956.5,702.5,956.5z"/>
		<path fill="#FFFFFF" d="M714.6,947.8v8.4h-3.7v-8.4h-2.5l0.1-3.2h8.4l0.1,3.2H714.6z"/>
		<path fill="#FFFFFF" d="M728.9,956.3h-4.7v-11.5h4.8c2.7,0,4,1.2,4,3c0,1.1-0.5,2-1.4,2.4l0,0c1.1,0.4,1.8,1.3,1.8,2.7
			C733.3,954.8,731.9,956.3,728.9,956.3z M728.9,947.6h-1.2v1.4h1.2c0.5,0,0.6-0.1,0.6-0.7C729.5,947.7,729.4,947.6,728.9,947.6z
			 M728.9,951.7h-1.2v1.6h1.3c0.6,0,0.7-0.1,0.7-0.8C729.6,952,729.5,951.7,728.9,951.7z"/>
		<path fill="#FFFFFF" d="M743,953.2l-0.1,3.1h-7.1v-11.5h3.6v8.4H743L743,953.2z"/>
		<path fill="#FFFFFF" d="M751.4,954.5h-2.6l-0.3,1.8h-3.8l3.3-11.5h4.4l3.4,11.5h-4L751.4,954.5z M750,949.1l-0.5,2.5h1.4l-0.5-2.5
			l-0.2-1.2l0,0L750,949.1z"/>
		<path fill="#FFFFFF" d="M757.6,956.3V954l3.3-5l0.7-1l0,0h-3.8l0.1-3.2h8v2.5l-3.1,4.9l-0.7,1l0,0h3.8v3.1H757.6L757.6,956.3z"/>
		<path fill="#FFFFFF" d="M776.2,953.2l-0.1,3h-7.7v-11.5h7.6l0.1,3.1h-4v1.2h3.3v2.8h-3.3v1.4L776.2,953.2L776.2,953.2z"/>
	</g>
	<g display="inline">
		<path fill="#FFFFFF" d="M670.5,966l-1,1.8c-1.1-0.6-2.7-1.3-3.9-1.8l1-1.9C667.9,964.7,669.6,965.4,670.5,966z M676.6,964.1
			l1.4,1.6c-2.2,3.4-6.5,6.6-10.6,7.8l-1.1-2.1C670.4,970.5,674.6,967.5,676.6,964.1z M672.2,962.7l-1,1.8c-1.1-0.6-2.6-1.3-3.8-1.9
			l1-1.8C669.7,961.3,671.3,962,672.2,962.7z M675.4,961.1c0.7,0.5,1.1,1,1.8,1.8l-0.9,0.9c-0.5-0.7-1-1.1-1.8-1.8L675.4,961.1z
			 M677,959.8c0.7,0.5,1.1,1,1.8,1.8l-0.9,0.9c-0.5-0.7-1-1.1-1.8-1.8L677,959.8z"/>
		<path fill="#FFFFFF" d="M683.1,966.2l-0.6-2.6l2-0.4l0.6,2.7l4.5-0.9l1.5,0.9c-0.5,1.2-1.4,3.2-2.3,4.4l-1.6-0.8
			c0.5-0.7,1.1-1.8,1.3-2.3l-3.1,0.6l1.2,5.7l-2,0.4l-1.2-5.8l-2.7,0.5l-0.4-1.9L683.1,966.2z"/>
		<path fill="#FFFFFF" d="M706.7,972.4l-2,1.3c-1-1.3-2.4-2.9-3.8-4.2c-1.6,1.8-3.5,3.2-5.5,4.2l-1.4-1.8c4-1.9,7.1-5.4,8-8.3h-7v-2
			h8.2l1.5,0.8c-0.6,2.1-1.5,3.8-2.7,5.4C703.8,969.3,705.4,970.8,706.7,972.4z"/>
		<path fill="#FFFFFF" d="M719.7,968.1l-1.4,1.9c-1.5-1.1-3.5-2.3-5.3-3.2v6.9h-2.3v-13.5h2.3v4.2
			C715.2,965.3,717.7,966.8,719.7,968.1z"/>
		<path fill="#FFFFFF" d="M725.1,968.6c-0.9,0-1.6-0.7-1.6-1.6c0-0.9,0.7-1.6,1.6-1.6c0.9,0,1.6,0.7,1.6,1.6
			C726.8,967.8,726.1,968.6,725.1,968.6L725.1,968.6z"/>
		<path fill="#FFFFFF" d="M740.6,961.9l0.4,0.2c-0.3-0.6-0.7-1-1.2-1.6l1-0.7c0.6,0.6,0.9,1.1,1.4,2l-0.9,0.6l0.9,0.5
			c-1.1,5.2-3.7,8.8-8.4,10.7l-1.5-1.8c4.4-1.6,6.6-4.3,7.3-7.8h-8.9v-2.1L740.6,961.9L740.6,961.9z M744.2,961.1l-1,0.7
			c-0.4-0.7-0.8-1.2-1.3-1.9l1-0.7C743.5,959.9,743.8,960.4,744.2,961.1z"/>
		<path fill="#FFFFFF" d="M749.9,960.9v9.8c2.4-0.7,5.2-2.6,7.1-5l1,2.2c-2.1,2.5-5.3,4.6-8.8,5.9l-1.6-1V961L749.9,960.9
			L749.9,960.9z"/>
		<path fill="#FFFFFF" d="M768.5,973.7h-2.3v-6.9c-1.5,1-3.2,1.9-4.6,2.5l-1.1-2c3.5-1.1,8.6-4.6,10.4-7l1.8,1.3
			c-1,1.1-2.5,2.4-4,3.6L768.5,973.7L768.5,973.7z"/>
		<path fill="#FFFFFF" d="M787.7,972.4l-2,1.3c-1-1.3-2.4-2.9-3.8-4.2c-1.5,1.8-3.5,3.2-5.5,4.2l-1.4-1.9c4.1-1.9,7.1-5.4,8-8.2
			h-6.9v-2h8.2l1.5,0.8c-0.6,2.1-1.5,3.8-2.7,5.4C784.9,969.3,786.4,970.8,787.7,972.4z M786.1,960.4c0.6,0.6,0.9,1,1.4,1.6
			l-0.9,0.7c-0.4-0.6-0.8-1.1-1.3-1.6L786.1,960.4z M787.6,959.3c0.6,0.5,0.9,0.9,1.4,1.6l-0.9,0.7c-0.4-0.6-0.8-1.1-1.4-1.6
			L787.6,959.3z"/>
	</g>
	<polygon display="inline" fill="#FFFFFF" points="728,1004.9 728,981.2 726,981.2 726,1004.9 722.4,1004.9 727,1012.8 
		731.6,1004.9 	"/>
</g>
</svg>
