<?xml version="1.0" encoding="utf-8"?>
<!-- Generator: Adobe Illustrator 18.1.0, SVG Export Plug-In . SVG Version: 6.00 Build 0)  -->
<svg version="1.1" id="Layer_1" xmlns="http://www.w3.org/2000/svg" xmlns:xlink="http://www.w3.org/1999/xlink" x="0px" y="0px"
	 viewBox="93 293 416 219" enable-background="new 93 293 416 219" xml:space="preserve">
<g id="TOKIMONSTA" display="none">
	<rect y="166.5" display="inline" fill="#231F20" width="612" height="459"/>
	<g display="inline">
		<path fill="#FFFFFF" d="M232.4,539.2v11.7h-5.1v-11.7h-3.4l0.1-4.4h11.7l0.1,4.4H232.4z"/>
		<path fill="#FFFFFF" d="M245.4,551.2c-4.8,0-7.1-2.5-7.1-8.3c0-5.9,2.2-8.3,7.1-8.3c4.9,0,7.1,2.5,7.1,8.3
			C252.5,548.9,250.3,551.2,245.4,551.2z M245.4,538.9c-1.4,0-1.7,0.6-1.7,4c0,3.4,0.4,4,1.8,4s1.7-0.6,1.7-4
			C247.2,539.5,246.8,538.9,245.4,538.9z"/>
		<path fill="#FFFFFF" d="M264.1,550.9l-2.5-6.2h-0.6v6.2h-5v-16.1h5v6h0.7l2.5-6h5.6l-3.5,7.7l3.6,8.4H264.1L264.1,550.9z"/>
		<path fill="#FFFFFF" d="M273.3,534.8h5.2v16.1h-5.2V534.8z"/>
		<path fill="#FFFFFF" d="M288,534.8l2.4,6.9l0.5,1.7h0.1l0.5-1.7l2.4-6.9h5.5v16.1h-4.6v-5.3l0-1.7l-0.1,0l-0.5,1.7l-1.8,5.4h-3.2
			l-1.8-5.4l-0.5-1.7l0,0l0,1.7v5.3h-4.4v-16.1H288z"/>
		<path fill="#FFFFFF" d="M310.1,551.2c-4.8,0-7.1-2.5-7.1-8.3c0-5.9,2.2-8.3,7.1-8.3c4.9,0,7.1,2.5,7.1,8.3
			C317.2,548.9,315,551.2,310.1,551.2z M310.1,538.9c-1.4,0-1.7,0.6-1.7,4c0,3.4,0.4,4,1.8,4c1.4,0,1.7-0.6,1.7-4
			C311.9,539.5,311.6,538.9,310.1,538.9z"/>
		<path fill="#FFFFFF" d="M330.3,550.9l-4.1-6.2l-0.9-1.5l0,0l0,1.7v5.9h-4.4v-16.1h4.2l4.4,7l0,0l0-1.7l0-5.3h4.4v16.1L330.3,550.9
			L330.3,550.9z"/>
		<path fill="#FFFFFF" d="M342.3,551.2c-1.7,0-3.5-0.4-4.8-1.1l0.6-4.1c1.4,0.6,2.7,1,4.1,1c1.1,0,1.4-0.3,1.4-0.8
			c0-1.5-6.2-1.1-6.2-6.4c0-2.9,1.8-5.3,6-5.3c1.5,0,3.2,0.3,4.4,0.8l-0.5,4.1c-1.3-0.3-2.6-0.5-3.5-0.5c-1.4,0-1.5,0.3-1.5,0.7
			c0,1.6,6.1,1.1,6.1,6.3C348.4,549.2,346.1,551.2,342.3,551.2z"/>
		<path fill="#FFFFFF" d="M359.3,539.2v11.7h-5.1v-11.7h-3.4l0.1-4.4h11.7l0.1,4.4H359.3z"/>
		<path fill="#FFFFFF" d="M372.9,548.5h-3.6l-0.5,2.5h-5.3l4.6-16.1h6.2l4.7,16.1h-5.6L372.9,548.5z M370.8,541l-0.7,3.4h2l-0.7-3.4
			l-0.3-1.7h-0.1L370.8,541z"/>
		<path fill="#FFFFFF" d="M255.7,567.6l-2,2.6c-2.1-1.6-4.9-3.2-7.5-4.5v9.8H243v-19h3.2v5.9C249.3,563.8,252.9,565.7,255.7,567.6z"
			/>
		<path fill="#FFFFFF" d="M266.8,566.5l-0.5-3.5l-6.3,0.8l-0.4-2.8l6.3-0.8l-0.5-3.5l3.1-0.4l0.5,3.5l5.8-0.7l0.4,2.8l-5.8,0.7
			l0.5,3.5l7-0.9l0.4,2.8l-7,0.9l0.9,6.3l-3.1,0.5l-0.9-6.4l-7.6,1l-0.5-2.8L266.8,566.5z"/>
		<path fill="#FFFFFF" d="M287.7,564.3v-3.6h-5.1V558H298v2.8h-7.2v3.6h8.4v2.8h-8.4v3c0,1.3,0.4,1.7,1.9,1.8c0.4,0,1.2,0,2,0
			c1.4,0,2.8,0,3.8-0.1v3c-1,0-2.5,0.1-3.9,0.1c-0.9,0-1.7,0-2.2,0c-3.4-0.1-4.7-1.3-4.7-4.5v0v-3.2h-6.2v-2.8L287.7,564.3
			L287.7,564.3z"/>
		<path fill="#FFFFFF" d="M310.8,561.9l-2,2.5c-1.2-1.1-3.7-2.8-5.5-3.8l1.9-2.5C307.1,559.2,309.4,560.7,310.8,561.9z M318.4,561.9
			l2,2.4c-3.1,4.8-9.1,9.2-14.9,11.1l-1.6-3C309.5,570.9,315.4,566.7,318.4,561.9z"/>
		<path fill="#FFFFFF" d="M341.7,573.5l-2.8,1.9c-1.4-2-3.4-4.1-5.4-5.9c-2.3,2.5-4.9,4.5-7.7,5.9l-2-2.5c5.7-2.5,10-7.6,11.3-11.7
			h-9.8v-2.8H337l2.2,1.2c-0.9,2.8-2.2,5.4-3.8,7.6C337.7,569.2,339.9,571.4,341.7,573.5z"/>
		<path fill="#FFFFFF" d="M351.7,563.8c1.3,0.7,2.8,1.8,4.1,2.7c1-1.6,1.7-3.3,2-5h-5.6c-1.6,2.4-3.6,4.8-5.5,6.3l-2.3-1.9
			c3-2.2,5.9-6.4,7.1-9.6l2.9,0.9c-0.2,0.5-0.4,1-0.7,1.5h5.7l2.1,1.2c-1.6,7.2-5.6,13.2-11.8,15.6l-2.1-2.5
			c2.6-0.8,4.7-2.3,6.4-4.2c-1.3-1-2.9-2.1-4.2-2.8L351.7,563.8z"/>
	</g>
	<g display="inline">
		<path fill="#FFFFFF" d="M268.3,290.4h-0.5v2.9h-3.2v-10.1h3.7c3,0,4.2,1.2,4.2,3.7C272.5,289.1,271.3,290.4,268.3,290.4z
			 M268.3,285.8h-0.5v2.2h0.5c0.7,0,0.9-0.1,0.9-1.1C269.2,285.9,269,285.8,268.3,285.8z"/>
		<path fill="#FFFFFF" d="M281.2,289.3l1.8,4h-3.6l-1.1-3.4h-0.5v3.4h-3.2v-10.1h3.7c2.7,0,4.1,1,4.1,3.4
			C282.4,287.8,282,288.8,281.2,289.3z M278.4,285.7h-0.6v1.9h0.6c0.6,0,0.8-0.1,0.8-1C279.2,285.9,279,285.7,278.4,285.7z"/>
		<path fill="#FFFFFF" d="M291.7,290.7l-0.1,2.7h-6.8v-10.1h6.6l0.1,2.7H288v1.1h2.9v2.4H288v1.3L291.7,290.7L291.7,290.7z"/>
		<path fill="#FFFFFF" d="M296.8,293.5c-1.1,0-2.2-0.2-3-0.7l0.4-2.6c0.9,0.4,1.7,0.6,2.6,0.6c0.7,0,0.9-0.2,0.9-0.5
			c0-1-3.9-0.7-3.9-4c0-1.8,1.1-3.3,3.8-3.3c0.9,0,2,0.2,2.8,0.5l-0.3,2.6c-0.8-0.2-1.6-0.3-2.2-0.3c-0.9,0-1,0.2-1,0.5
			c0,1,3.8,0.7,3.8,4C300.6,292.2,299.2,293.5,296.8,293.5z"/>
		<path fill="#FFFFFF" d="M309.6,290.7l-0.1,2.7h-6.8v-10.1h6.6l0.1,2.7h-3.5v1.1h2.9v2.4h-2.9v1.3L309.6,290.7L309.6,290.7z"/>
		<path fill="#FFFFFF" d="M317.8,293.3l-2.6-3.9l-0.6-0.9l0,0l0,1.1v3.7h-2.8v-10.1h2.6l2.8,4.4l0,0l0-1.1l0-3.3h2.8v10.1
			L317.8,293.3L317.8,293.3z"/>
		<path fill="#FFFFFF" d="M327.4,286v7.4h-3.2V286h-2.1l0.1-2.8h7.4l0.1,2.8H327.4z"/>
		<path fill="#FFFFFF" d="M334.4,293.5c-1.1,0-2.2-0.2-3-0.7l0.4-2.6c0.9,0.4,1.7,0.6,2.6,0.6c0.7,0,0.9-0.2,0.9-0.5
			c0-1-3.9-0.7-3.9-4c0-1.8,1.1-3.3,3.8-3.3c0.9,0,2,0.2,2.8,0.5l-0.3,2.6c-0.8-0.2-1.6-0.3-2.2-0.3c-0.9,0-1,0.2-1,0.5
			c0,1,3.8,0.7,3.8,4C338.3,292.2,336.8,293.5,334.4,293.5z"/>
		<g>
			<path fill="#FFFFFF" d="M396.7,259.8h-3.9l-0.8,4.6l-0.2,1.4h-0.1l-1.6-5.9h-4.1l4,9.9l0,0.1c-0.2,0.5-0.7,0.7-1.3,0.7
				c-0.3,0-0.6-0.1-0.9-0.2l-0.3,2.4c0.6,0.2,1.2,0.3,1.9,0.3c2.1,0,3.5-1,4.2-3.3L396.7,259.8z M386.1,263.6c0-2.6-1.4-4-3.4-4
				c-1.1,0-2,0.4-2.7,1.2c-0.6-0.8-1.4-1.2-2.5-1.2c-0.9,0-1.7,0.4-2.4,0.9l-0.5-0.8l-2.7,0.2v10.3h3.7v-7.1
				c0.2-0.2,0.4-0.4,0.8-0.4c0.6,0,0.8,0.3,0.8,1v6.6h3.7v-6.6c0-0.7,0.2-1,0.8-1c0.5,0,0.8,0.3,0.8,1v6.6h3.7V263.6z M371,266.1
				c0.1-0.5,0.1-1.1,0.1-1.7c0-3.3-1.5-4.8-4.3-4.8c-3.2,0-4.6,1.9-4.6,5.4c0,3.5,1.7,5.4,5.3,5.4c1.3,0,2.6-0.3,3.4-0.6l-0.4-2.8
				c-0.8,0.2-1.7,0.4-2.5,0.4c-1.2,0-1.8-0.3-2-1.2C366,266.1,371,266.1,371,266.1z M367.7,263.8h-1.8c0.1-1.1,0.3-1.3,0.9-1.3
				C367.4,262.5,367.7,262.8,367.7,263.8 M358.4,270.2h2.9V257l-3.7,0.2v1.7l0,1.4l0,0c-0.6-0.4-1.2-0.7-1.9-0.7
				c-2.3,0-3.6,1.9-3.6,5.3c0,3.8,1.4,5.5,3.7,5.5c1,0,1.8-0.3,2.3-0.9L358.4,270.2z M357.6,267c-0.1,0.3-0.4,0.5-0.8,0.5
				c-0.8,0-0.9-0.4-0.9-2.5c0-1.9,0.2-2.3,0.9-2.3c0.4,0,0.6,0.2,0.8,0.4V267z M352.7,244.3l0-0.3c-0.5-0.4-0.2-1.2-0.4-1.7
				c-0.1-0.2-0.3-0.4-0.5-0.6c-0.4-0.2-0.6,0.3-0.8,0.5c-0.1,0.6,0.2,1.1,0.3,1.7c0.1,0.3,0,0.6,0.2,0.8L352.7,244.3z M350.8,241.1
				c0-0.2,0.1-0.4,0-0.5l-1.3-1.1l-0.3,0c-0.2,0.2-0.6,0.3-0.5,0.6c0.4,0.5,0.7,1.4,1.4,1.5C350.4,241.4,350.7,241.4,350.8,241.1
				 M324.1,239.9c0.2-0.5,0.4-1,0.5-1.5c-0.1-0.1-0.2-0.1-0.3-0.1c-0.2,0-0.4,0-0.6,0l0,0c-0.3-0.1-0.6,0-0.9-0.1
				c-0.3,0.4-0.5,0.8-0.4,1.3c0.2,0.3,0.5,0.3,0.8,0.5C323.5,240,323.9,240.1,324.1,239.9 M277.3,238.1c-0.1,0.1-0.1,0.1-0.1,0.2
				c0.7,0.4,0.8,1.1,1.2,1.7c0.6,0.3,1.1-0.2,1.6-0.5c0.1-0.2-0.1-0.3-0.1-0.4c-0.2-0.4-0.3-0.8-0.5-1.1c-0.5,0-1,0-1.5,0.1l0,0
				C277.6,238.2,277.4,238.1,277.3,238.1 M350.6,218.1c-0.1-0.1,0-0.3-0.2-0.2c-0.3,0.4-0.7,0.6-1.1,0.7c-1.5,0.2-3,0.6-4.1,1.8
				c-0.4,0.5-0.4,1.3-0.1,1.9c0.9,1.8,3.2,2.9,3.7,4.9c0.3,0.9-0.1,1.6-0.8,2.2c-1,0.6-2.4,0.5-3.4,0c-2.4-1.2-4.4-3.4-7.1-4
				c-1.5-0.2-2.8-0.9-4-2c-1-0.8-2.3-0.9-3.4-1.3c-1.1-1.1-2.3-1.8-3.6-2.3c-0.7-0.3-1.7-0.2-2.3-0.8c-0.4-0.6-1.1-1.2-1.7-1.6
				c-0.9-0.5-2.3-1-3.3-0.4c-0.1,0.1-0.2,0.1-0.2,0.2c-2.1-3.5-5.1-6.3-8.7-8.1v-9l-13.7,2.9v4.5c-5.7,1.3-10.4,4.8-13.4,9.6
				c-0.7,0-1.4,0.1-2,0.4c-1.6,1.4-3.6,1.9-5.5,2.7c-1,0.5-1.7,1.7-2.8,2.2c-1.4,0-2.7,0.3-3.7,1.3c-0.9,1-1.9,1.8-3.1,2
				c-2.2,0.1-4,1-5.5,2.5c-1.5,1-3,2.3-5,1.9c-0.8-0.2-1.5-0.9-1.7-1.6c-0.5-1.6,0.5-2.9,1.7-3.9c1.1-1,2.7-2,2.3-3.7
				c-0.3-1.4-1.9-1.7-3-2c-1.2,0-2.1-0.7-3.1-1.3c-0.2,0.4-0.3,0.8-0.3,1.2c0.1,1.1,1,2.3,2.1,2.6c0.7,0.4,1.7-0.2,2.3,0.3
				c0.2,0.2,0.1,0.4,0.1,0.6c-1.3,1.3-3.3,2.6-3.6,4.5c-0.3,1.5,0.3,2.9,1.4,3.9c1.3,1,3.3,1.2,4.8,0.5c0.2-0.1,0.4-0.1,0.5,0.1
				l0.2,2c0.1,1,0.8,1.7,0.7,2.6c-0.5,0.5-1.1,0.8-1.7,1.1l-1.5,0.2c-0.4,0.3-0.6,0.8-0.7,1.3c-0.1,1.1-1.3,1.7-2.1,2.3
				c-0.3,0.5-0.8,1.3-1.5,1.3c-0.5,0.6-0.5,1.4-0.7,2.1c0.7,0.1,1.3,0.3,2.1,0.2c0.9-0.2,1-1.2,1.5-1.8c0.6-0.6,1.4,0.1,2-0.2
				c0.8-0.4,1.6-0.9,2.3-1.7c1.6-0.8,3.4,0.5,4.9-0.4c0.7-0.8,1.8-0.6,2.3-1.6c0.3-0.8,0.8-1.4,0.9-2.2c-0.2-0.2-0.3-0.3-0.5-0.4
				c-0.2,0.3-0.4,0.7-0.6,1c-1,1.6-2.7,2.1-4.4,2.2c-2.2-0.1-4.3,0.4-5.7,2.2h-0.2c-0.1,0-0.2-0.1-0.2-0.2c0.8-1.4,2.2-2.3,3.6-2.5
				c2.3-0.2,4.9-0.3,6.2-2.6c0.8-1.2,0.6-2.9,0.9-4.3c0-0.2,0.1-0.3,0.3-0.3c0.1,0,0.2,0.1,0.3,0.2c-0.2,1.2-0.2,2.4,0.2,3.5
				c0.7,1,2.1,0.4,3.1,0.3c1.8-0.4,3.4,0.6,5.3,0.2c0.2-0.1,0.4-0.2,0.3-0.5c-0.1-0.4-0.3-0.7-0.2-1.2c0.1-0.1,0.2-0.2,0.3-0.2
				c0.3,0.2,0.2,0.5,0.3,0.8c0.7,2.1,3.9,2,4.1,4.5c-0.3,0.9-1.3,1.3-2.1,1.5c-1.5,0.3-1.8-1.5-2.7-2.3c-0.7-0.5-1.7-0.1-2.5,0
				c-0.2,0.1-0.3,0.3-0.2,0.5l0.9,1.5c0.3,0.7,1.2-0.1,1.6,0.6c0.3,0.8,1.1,1.7,2,1.7c1.4-0.3,2.6-0.9,3.9-1.4
				c0.5-0.6,1.4-0.2,2-0.5c0.2-0.1,0.3-0.2,0.4-0.4c3.8,5,9.9,8.3,16.6,8.3c7,0,13.2-3.5,17-8.7c0,0.1,0.1,0.2,0.1,0.3
				c0.2,0.8,1,0.3,1.5,0.5c0.7,1,1.9,1,2.9,1.4c0.7,0.2,1.4,0.6,2.2,0.5c0.8-0.2,1.2-1,1.3-1.8c0.2-0.4,0.9,0,1.1-0.4
				c0.3-0.5,0.8-1,1-1.5c-0.3-0.5-1-0.2-1.5-0.3c-0.1,0.1-0.3,0-0.4,0l0,0c-1.1-0.1-1.1,1.2-1.7,1.8c-0.2,0.2-0.5,0.2-0.8,0.3
				c-0.9-0.3-2.3-0.4-2.3-1.7c0.3-0.7,1.1-1.4,1.8-1.9c0.7-0.1,1.4-0.5,1.9-1.2c0.4-0.3,0.2-1.1,0.9-1.1c0.3,0.5,0,1.1-0.2,1.6
				c1.3,0.1,2.5-0.1,3.7-0.3c1.8-0.4,3.5,0.5,5.2-0.1c0.9-0.4,0.9-1.4,1-2.3l0,0l0,0c0-0.5-0.1-0.9-0.2-1.3c0-0.2-0.1-0.5,0-0.6
				c0.1-0.1,0.2-0.1,0.3,0c0.7,1.6,0.4,3.6,1.3,5.2c0.6,1.3,1.9,2.2,3.3,2.3c0.1,0,0.1-0.1,0.2,0c2.3-0.5,4.3,0.5,5.6,2.2v0.1
				c-0.1,0.1-0.2,0.2-0.3,0.2c-0.3-0.3-0.6-0.5-0.9-0.8c-1.3-1.2-3.1-1.3-4.8-1.1c-1.8,0.1-3.5-1.5-4.1-3.1
				c-0.2-0.2-0.1-0.5-0.4-0.5c-0.1,0.1-0.1,0.2-0.1,0.2c0.1,1.2,0.3,2.3,1.1,3.2c0.8,0.4,1.4,1.2,2.3,1.3c1.2-0.3,2.7-0.2,3.8,0.3
				c0.9,0.3,1.6,1.1,2.4,1.6c0.4,0.2,1,0.1,1.4-0.2c1-0.3,1.2,0.9,1.9,1.4c0.6,0.4,1.4,0.3,2.2,0.3l0.1-0.1c-0.1-0.7-0.2-1.4-0.5-2
				c-0.9,0-1.4-1-1.9-1.6c-0.4-0.4-0.9-0.7-1.1-1.2c-0.3-0.8-0.2-1.9-0.9-2.4c-0.7-0.1-1.5,0-2.1-0.5c-0.3-0.3-0.4-0.7-0.3-1.1
				c0.4-1,0.7-2.1,0.5-3.2c0-0.4-0.4-0.8,0-1.1c1.3,0.4,3.1,0.5,4.3-0.3c1.1-0.7,1.9-1.9,1.8-3.3c-0.3-1.9-1.6-3.4-3.1-4.8
				c-0.2-0.2-0.4-0.3-0.3-0.6c0-0.1,0.1-0.3,0.2-0.4c0.8-0.1,1.6-0.2,2.3-0.5C350.5,220.8,350.8,219.4,350.6,218.1 M284.1,222.7
				c0.4,0.3,0.5,0.7,0.7,1.1c0.2,0.7,0.3,1.6,0.1,2.3l-0.1,0.1c-0.1-0.2-0.1-0.4-0.2-0.6c-0.2-0.9-0.5-1.7-1.1-2.5
				c0-0.2,0-0.3,0.1-0.4C283.8,222.7,284,222.6,284.1,222.7 M308.9,208.6c-2.4-1-5.1-1.6-7.9-1.6c-1.1,0-2.1,0.1-3.2,0.2l0-1.1
				l11.1-2.2L308.9,208.6z M319.5,222.3c-0.9,0.7-1.8,1.7-2.3,2.6h-0.1c-0.1-1.6,1.1-3,2.5-3.9c0.2,0,0.5,0,0.6,0.2
				C320.3,221.8,319.8,222,319.5,222.3 M321.1,235.6l-1.5,2l-0.2,0.5c-0.2,0.4-0.1,1.1-0.1,1.5c-0.4-0.2-0.4-0.7-0.5-1
				c-0.3-1.5,1.1-2.3,1.6-3.4c-0.3-0.1-0.6-0.3-1-0.4c-0.8,0.9-1.2,2-1.8,3c0,0.3,0,0.7,0.1,1c-3.5,5.4-9.7,9-16.6,9
				c-6.6,0-12.5-3.2-16.1-8.2c0.3-0.5,0.5-0.9,0.4-1.5c0-0.8-0.8-1.3-1-2c-0.2-0.4-0.3-0.7-0.5-1.1c-0.4-0.2-0.9-0.3-1.3,0
				c0.5,1,1.1,2,1.6,3.1c0.1,0.9-0.4,1.6-0.9,2.2c-0.1,0.1-0.2,0-0.3-0.1c0.2-0.6,0.4-1.3,0.4-1.9c-0.6-1.1-1.4-2.2-2-3.4
				c0-0.2,0.1-0.4,0.3-0.5c0.6-0.3,1.4-0.2,1.8-0.7c0.6-1,0.9-2,1.1-3.1c0.1-0.1,0.1-0.2,0.2-0.1c0.1,0.1,0.1,0.2,0.2,0.3
				c0.2,1.3-0.1,2.4-0.7,3.4c-0.1,0.1,0,0.2,0.1,0.3c0.4,0.2,0.9,0,1.3-0.1c0.8-0.6,1.9-0.3,2.8-0.6c0,0.1,0.2,0.1,0.1,0.2
				c-0.4,0.5-0.6,1.1-0.8,1.7c-0.5,0.6-1.3,1.1-1.3,1.9c0.1,0.3,0.4,0,0.6,0c0.1,0,0.2,0.2,0.2,0.3c-0.2,0.4-0.6,0.7-0.6,1.1
				c0.2,0.5,0,1.3,0.7,1.5c1.6,0.3,2.7-1,4.3-0.9c1.2,0.3,2.2-0.2,3-1.1c0.2-0.1,0.4,0.1,0.6,0.1c0.9,0.9,1.8,1.4,3,1.6
				c0.4,0,0.8,0.1,1.1,0c0.1-0.1,0-0.2,0-0.3c-0.8-0.3-1.7-0.8-2.3-1.6c-0.4-1-0.8-1.9-1.5-2.8c-0.1-0.1-0.1-0.2,0-0.2
				c0.8,0.2,1.5,1,1.9,1.7c0.7,1,1.6,1.9,2.9,1.7c0.2,0,0.4,0,0.3-0.3c-1.9-0.6-2.2-2.7-3.7-3.8c-0.7-1.8-1.4-3.7-1.7-5.7
				c-0.1-1.8-1.1-3.2-2.2-4.6c-1.8-2.7-4.6-4.2-6.9-6.2l-0.8-0.4c-0.3-0.2-0.6-0.3-1-0.4c2.7-4.3,7.1-7.5,12.3-8.7v6.7
				c-0.3-0.2-0.5-0.2-0.7-0.2c-2.3,0-4.4,2.2-4.4,3.6c0,1,0.8,1.6,1.8,1.6c1.1,0,2.5-0.6,3.5-1.7c0.8-0.9,1.1-1.7,1.1-3.2l0-7
				c1-0.2,2.1-0.3,3.2-0.3c2.8,0,5.5,0.6,7.9,1.7l0,2.6c-0.3-0.2-0.5-0.2-0.7-0.2c-2.3,0-4.4,2.2-4.4,3.6c0,1,0.8,1.6,1.8,1.6
				c1.1,0,2.5-0.6,3.5-1.7c0.8-0.9,1.1-1.7,1.1-3.2v-2.1c3.3,1.7,6,4.4,7.9,7.6c-2.6,2-5.3,3.5-7.7,5.7c-1.6,1.5-2.5,3.3-3,5.3
				c-1.2,3.4-1.5,7.6-5.1,9.7c0,0.1,0,0.2,0.1,0.3c0.8,0.2,1.7,0,2.3-0.7c0.6-0.9,1.2-1.7,2-2.5h0.2c0.3,0.1,0.1,0.3,0.1,0.5
				c-1.1,1-1.1,2.6-2.6,3.4c-0.2,0.1-0.6,0.4-0.3,0.6c1.6,0.2,2.8-1,3.9-2l0.2,0c0.6,0.4,1.1,1.3,2,1.1c1.7-0.5,2.8,0.6,4.2,1
				c0.4,0.2,0.7-0.1,1-0.4c0.6-0.4,0.3-1.2,0.3-1.7l0.1-0.1c0.3,0,0.6,0.2,0.8-0.1c0.1-0.8-0.6-1.3-0.9-1.9c-0.2-1.2-1.6-2-1.8-3.2
				c0.1-0.1,0.1-0.1,0.2-0.2c0.6,0.3,1.1,0.9,1.6,1.2c0.9,0.4,1.9,0.4,3,0.5c0.2,0,0.2-0.2,0.1-0.3c-0.5-1.2-1-2.5-0.9-3.9
				c0.1-0.4-0.1-1.1,0.4-1.3c0.1,0,0.2,0.2,0.2,0.3c0.1,1.3,0.1,2.7,0.7,3.8c0.3,0.8,1.2,1.3,1.8,1.7
				C321.2,234.9,321.3,235.3,321.1,235.6 M310.3,231.9c-0.7,0.4-0.9,1.1-1,1.7c0,0.1-0.2,0.1-0.3,0.1c-0.3-0.3,0-0.8,0-1.1
				c0.3-1.2,1.6-1.8,2.3-2.8c0.7,0,0.7,0.7,1.1,1.1c0.1,0.3,0.5,0.7,0.1,1c-0.2,0-0.4-0.2-0.5-0.3c-0.1-0.1-0.1-0.3-0.3-0.3
				C311.1,231.1,310.7,231.5,310.3,231.9 M310.9,236.6c0.4,0,0.7,0.2,1,0.5c0.1,0.2,0.3,0.5,0.1,0.8c-0.3,0.1-0.6,0-0.8,0
				c-0.3-0.2-0.3-0.5-0.4-0.8C310.8,236.8,310.7,236.6,310.9,236.6 M292.5,231c-0.2-0.1-0.4-0.1-0.6,0.1l-0.6,0.7
				c-0.2-0.1-0.1-0.4-0.1-0.6c0.2-0.5,0.5-1.1,0.7-1.6c0.1-0.2,0.3-0.1,0.5-0.1c0.6,0.4,0.7,1.1,1.3,1.5c0.5,0.6,0.7,1.5,0.3,2.3
				c-0.1,0-0.3,0.2-0.3,0C293.8,232.3,293.2,231.5,292.5,231 M292.2,237.6c-0.4,0.1-0.8,0.3-1.3,0.2c-0.1-0.3,0.2-0.5,0.2-0.7
				c0.3-0.3,0.6-0.7,1.1-0.5l0.1,0.3C292.4,237.2,292.3,237.4,292.2,237.6 M250.7,244.5c0.2-0.7,0.4-1.5,0.6-2.3l-0.7-0.7
				c-0.1,0-0.2,0.1-0.3,0.1c-0.5,0.3-0.5,0.9-0.5,1.5c0,0.4-0.4,0.6-0.4,0.9C249.9,244.3,250.3,244.5,250.7,244.5 M249.7,260.9
				c0-2-1.5-3.3-4.4-3.3h-5.3v12.7h5.2c3.3,0,4.8-1.5,4.8-3.8c0-1.5-0.7-2.5-1.9-2.9v0C249.1,263,249.7,262.1,249.7,260.9
				 M245.9,261.5c0,0.7-0.1,0.8-0.7,0.8h-1.3v-1.6h1.3C245.7,260.7,245.9,260.9,245.9,261.5 M246.1,266.1c0,0.8-0.1,0.9-0.8,0.9
				h-1.4v-1.8h1.4C245.9,265.2,246.1,265.5,246.1,266.1 M232.1,270.2h2.9V257l-3.7,0.2v1.7l0,1.4l0,0c-0.6-0.4-1.2-0.7-1.9-0.7
				c-2.3,0-3.6,1.9-3.6,5.3c0,3.8,1.4,5.5,3.7,5.5c1,0,1.8-0.3,2.3-0.9L232.1,270.2z M231.3,267c-0.1,0.3-0.4,0.5-0.8,0.5
				c-0.8,0-0.9-0.4-0.9-2.5c0-1.9,0.2-2.3,0.9-2.3c0.4,0,0.6,0.2,0.8,0.4V267z M225,266.1c0.1-0.5,0.1-1.1,0.1-1.7
				c0-3.3-1.5-4.8-4.3-4.8c-3.2,0-4.6,1.9-4.6,5.4c0,3.5,1.7,5.4,5.3,5.4c1.3,0,2.6-0.3,3.4-0.6l-0.4-2.8c-0.8,0.2-1.7,0.4-2.5,0.4
				c-1.2,0-1.8-0.3-2-1.2C220,266.1,225,266.1,225,266.1z M221.7,263.8h-1.8c0.1-1.1,0.3-1.3,0.9-1.3
				C221.5,262.5,221.7,262.8,221.7,263.8 M215.6,261.8c0-3-1.8-4.2-5.2-4.2h-4.6v12.7h4V266h0.6l1.4,4.2h4.5l-2.3-5
				C215.1,264.6,215.6,263.3,215.6,261.8 M211.5,261.9c0,1.1-0.2,1.2-1,1.2h-0.7v-2.4h0.7C211.3,260.7,211.5,260.9,211.5,261.9
				 M251.5,241.2c0.1,0.1,0.2,0.3,0.4,0.3c0.4,0.2,0.7-0.1,1-0.4c0.2-0.4,0.6-0.7,0.7-1.2c-0.1-0.3-0.5-0.6-0.8-0.4
				C252.4,240.2,251.1,240.2,251.5,241.2 M254.6,259.8H251v6.6c0,2.6,1.5,4,4.5,4c3,0,4.5-1.3,4.5-4v-6.6h-3.6v6.6
				c0,0.7-0.2,0.9-0.8,0.9c-0.6,0-0.8-0.3-0.8-0.9V259.8z M264.7,257l-3.7,0.2v13h3.7V257z M269.7,257l-3.7,0.2v13h3.7V257z
				 M279.1,257.5h-4.3v12.7h3.5V266l0-1.4l0,0l0.4,1.3l1.4,4.3h2.5l1.4-4.2l0.4-1.3l0.1,0l0,1.4v4.2h3.6v-12.7h-4.3l-1.9,5.4
				l-0.4,1.3h-0.1l-0.4-1.3L279.1,257.5z M293,259.8h-3.7v6.6c0,2.6,1.5,4,4.5,4s4.5-1.3,4.5-4v-6.6h-3.6v6.6c0,0.7-0.2,0.9-0.8,0.9
				c-0.6,0-0.8-0.3-0.8-0.9V259.8L293,259.8z M303.2,267.1c0,0.3-0.3,0.4-0.8,0.4c-0.7,0-1.9-0.2-2.7-0.6l-0.3,2.9
				c0.9,0.4,1.9,0.6,3.1,0.6c2.9,0,4.1-1.4,4.1-3.6c0-3.5-3.9-2.8-3.9-3.8c0-0.2,0.2-0.4,0.6-0.4c0.7,0,1.8,0.2,2.6,0.4l0.3-2.9
				c-0.8-0.3-1.8-0.5-2.9-0.5c-2.8,0-4.1,1.6-4.1,3.5C299.2,266.8,303.2,266.1,303.2,267.1 M307.5,257.9c0,1,0.6,1.4,1.9,1.4
				c1.4,0,1.9-0.5,1.9-1.4c0-0.9-0.6-1.4-1.9-1.4C308.1,256.6,307.5,257,307.5,257.9 M311.3,259.7l-3.7,0.2v10.3h3.7V259.7z
				 M312.3,265.1c0,3.5,1.7,5.3,4.8,5.3c1,0,1.8-0.2,2.4-0.5l-0.2-2.7c-0.4,0.1-0.9,0.2-1.4,0.2c-1.1,0-1.8-0.7-1.8-2.3
				c0-1.8,0.4-2.3,1.9-2.3c0.4,0,0.8,0.1,1.2,0.2l0.2-3c-0.6-0.2-1.5-0.4-2.2-0.4C313.8,259.6,312.3,261.7,312.3,265.1 M326.3,257.5
				l-3.6,12.7h4.2l0.4-1.9h2.8l0.4,1.9h4.4l-3.7-12.7H326.3z M327.9,265.1l0.5-2.7l0.3-1.4h0.1l0.2,1.4l0.5,2.7
				C329.5,265.1,327.9,265.1,327.9,265.1z M334.8,265.1c0,3.5,1.7,5.3,4.8,5.3c1,0,1.8-0.2,2.4-0.5l-0.2-2.7
				c-0.4,0.1-0.9,0.2-1.4,0.2c-1.1,0-1.8-0.7-1.8-2.3c0-1.8,0.4-2.3,1.9-2.3c0.4,0,0.8,0.1,1.2,0.2l0.2-3c-0.6-0.2-1.5-0.4-2.2-0.4
				C336.3,259.6,334.8,261.7,334.8,265.1 M342.6,266.8c0,2.3,1.2,3.5,3.1,3.5c1,0,1.8-0.3,2.4-0.9l0.2,0.7h2.8V264
				c0-3-1.1-4.4-4.3-4.4c-1.3,0-2.6,0.2-3.6,0.6l0.3,2.8c0.9-0.3,1.5-0.5,2.6-0.5c1.1,0,1.4,0.4,1.4,0.9v0.2
				c-0.4-0.1-0.8-0.2-1.4-0.2C344,263.5,342.6,264.9,342.6,266.8 M346,266.8c0-0.6,0.3-0.9,0.8-0.9c0.3,0,0.5,0,0.7,0.1v0.9
				c0,0.5-0.4,0.7-0.8,0.7C346.3,267.6,346,267.3,346,266.8"/>
		</g>
	</g>
	<g display="inline">
		<path fill="#FFFFFF" d="M219.3,384.2c-5.2,0-10.6-1.1-14.9-3.4l1.9-12.7c4.2,1.9,8.3,3.2,12.6,3.2c3.3,0,4.3-0.9,4.3-2.4
			c0-4.7-18.9-3.4-18.9-19.7c0-9,5.6-16.2,18.6-16.2c4.6,0,9.8,0.8,13.5,2.3l-1.7,12.6c-4-1.1-7.9-1.7-10.9-1.7
			c-4.2,0-4.7,0.9-4.7,2.2c0,4.9,18.8,3.5,18.8,19.5C238,377.9,230.9,384.2,219.3,384.2z"/>
		<path fill="#FFFFFF" d="M284.3,366.4c0,11.4-6.3,17.8-19.7,17.8c-13.3,0-19.9-6.3-19.9-17.8v-32.6h15.5v32.4c0,3.2,1,4.6,4.4,4.6
			c3.4,0,4.2-1.3,4.2-4.6v-32.4h15.5L284.3,366.4L284.3,366.4z"/>
		<path fill="#FFFFFF" d="M306.1,384.2c-5.2,0-10.6-1.1-14.9-3.4l1.9-12.7c4.2,1.9,8.3,3.2,12.6,3.2c3.3,0,4.3-0.9,4.3-2.4
			c0-4.7-18.9-3.4-18.9-19.7c0-9,5.6-16.2,18.6-16.2c4.6,0,9.8,0.8,13.5,2.3l-1.7,12.6c-4-1.1-7.9-1.7-10.9-1.7
			c-4.2,0-4.7,0.9-4.7,2.2c0,4.9,18.8,3.5,18.8,19.5C324.8,377.9,317.8,384.2,306.1,384.2z"/>
		<path fill="#FFFFFF" d="M356.1,383.3v-18.4h-8.7v18.4H332v-49.5h15.5v17.8h8.7v-17.8h15.5v49.5H356.1z"/>
		<path fill="#FFFFFF" d="M380.9,333.8h15.9v49.5h-15.9V333.8z"/>
		<path fill="#FFFFFF" d="M122,466.9c-5.2,0-10.6-1.1-14.9-3.4l1.9-12.7c4.2,1.9,8.3,3.2,12.6,3.2c3.3,0,4.3-0.9,4.3-2.4
			c0-4.7-18.9-3.4-18.9-19.7c0-9,5.6-16.2,18.6-16.2c4.6,0,9.8,0.8,13.5,2.3l-1.7,12.6c-4-1.1-7.9-1.7-10.9-1.7
			c-4.2,0-4.7,0.9-4.7,2.2c0,4.9,18.8,3.5,18.8,19.5C140.7,460.6,133.6,466.9,122,466.9z"/>
		<path fill="#FFFFFF" d="M181.5,453l-0.3,13h-33.3v-49.5h32.5l0.3,13.2h-17.3v5.2h14v12h-14v6.2H181.5z"/>
		<path fill="#FFFFFF" d="M220.1,464.8l7.5,6.4l-16.1,4.5l-4.4-8.9c-13.6-0.5-20.1-8.3-20.1-25.6c0-18,6.7-25.6,21.7-25.6
			c15,0,21.7,7.6,21.7,25.6C230.4,454.2,227.1,461.5,220.1,464.8z M208.6,429.1c-4.2,0-5.4,1.8-5.4,12.2c0,10.4,1.2,12.4,5.5,12.4
			c4.3,0,5.4-2,5.4-12.4C214.1,430.8,213.1,429.1,208.6,429.1z"/>
		<path fill="#FFFFFF" d="M277.3,449.1c0,11.4-6.3,17.8-19.7,17.8c-13.3,0-19.9-6.3-19.9-17.8v-32.6h15.5v32.4c0,3.2,1,4.6,4.4,4.6
			c3.4,0,4.2-1.3,4.2-4.6v-32.4h15.5V449.1L277.3,449.1z"/>
		<path fill="#FFFFFF" d="M319.2,453l-0.3,13h-33.3v-49.5h32.5l0.3,13.2h-17.3v5.2h14v12h-14v6.2H319.2z"/>
		<path fill="#FFFFFF" d="M355.8,466l-12.5-18.9l-2.8-4.6l-0.1,0.1l0.1,5.4v18h-13.6v-49.5h12.7l13.5,21.5l0.1-0.1l-0.1-5.3
			l0.1-16.2h13.6V466H355.8z"/>
		<path fill="#FFFFFF" d="M406.2,430.1c-2.2-0.7-5-1.1-7.9-1.1c-6.5,0-7.6,2.6-7.6,12.2c0,10,1.3,12.7,7.9,12.7
			c2.8,0,5.5-0.5,7.8-1.5l1.4,12.3c-3.2,1.4-7.7,2.2-11.5,2.2c-14.5,0-21.8-8.1-21.8-25.8c0-16.4,6.9-25.4,22.7-25.4
			c3.5,0,7.8,0.7,10.5,1.7L406.2,430.1z"/>
		<path fill="#FFFFFF" d="M448.6,453l-0.3,13h-33.3v-49.5h32.5l0.3,13.2h-17.3v5.2h14v12h-14v6.2H448.6z"/>
		<path fill="#FFFFFF" d="M488.5,446.3l8.9,19.7h-17.8l-5.5-16.5h-2.5V466h-15.5v-49.5h18c13.4,0,20.3,4.9,20.3,16.5
			C494.5,439.2,492.4,444.1,488.5,446.3z M474.5,428.9h-2.8v9.4h2.8c3,0,3.9-0.5,3.9-4.7C478.4,429.7,477.6,428.9,474.5,428.9z"/>
		<path fill="#FFFFFF" d="M220.8,401.2c0.2-0.4,0.4-0.7,0.6-1.1h-5.9v-2.3h6.9c0.1-0.3,0.2-0.6,0.3-1H218v-2.2h5.4
			c0.1-0.3,0.1-0.6,0.2-0.9h-6.8v-2.3h7.1c0.1-0.5,0.1-1.1,0.2-1.7l2.8,0.2c0,0.5-0.1,1.1-0.2,1.5h7.8v2.3h-8.2
			c0,0.3-0.1,0.6-0.2,0.9h7.1v2.2h-7.7c-0.1,0.3-0.2,0.7-0.3,1h10.3v2.3h-4.2v1.1h3.6v2.3h-3.6v4c0,1.4-0.4,2.2-1.7,2.4
			c-0.7,0.1-2.2,0.1-3.3,0.1l-0.6-2.6c0.8,0.1,1.8,0.1,2.2,0c0.3,0,0.4-0.2,0.4-0.5v-3.4h-6c-1.3,2-3,3.7-5,5.3l-2.3-1.8
			c1.5-1.1,2.7-2.2,3.8-3.5h-3v-2.3L220.8,401.2L220.8,401.2z M223.3,404c1.3,1.1,2.3,2.1,2.9,3.1l-2.4,1.5
			c-0.6-1.1-1.5-2.1-2.6-3.2L223.3,404z M228.6,401.2v-1.1h-4.1c-0.2,0.4-0.3,0.7-0.5,1.1H228.6z"/>
		<path fill="#FFFFFF" d="M254.8,409.9c-0.6,0.1-2.1,0.1-3.1,0l-0.6-2.8c0.8,0.1,1.9,0.1,2.3,0.1c0.5,0,0.6-0.3,0.6-0.7v-13.3h-14.8
			v-2.6H254h1.3h1.6V407C256.9,408.7,256.4,409.6,254.8,409.9z M240.1,397v-2.5h12.9v2.5H240.1z M241.4,407.5v-9.2h1h1.7h7.5v7.7
			h-7.5v1.5H241.4z M244.2,403.5h4.7v-2.7h-4.7V403.5z"/>
		<path fill="#FFFFFF" d="M267.9,398.6l-1.4,2.5c-1.6-0.9-3.7-1.8-5.5-2.4l1.4-2.5C264.1,396.7,266.6,397.8,267.9,398.6z
			 M276.4,395.9l2,2.3c-3,4.8-9.1,9.1-14.8,11l-1.6-2.9C267.7,404.9,273.5,400.7,276.4,395.9z M270.1,393.8l-1.4,2.5
			c-1.5-0.9-3.6-1.9-5.3-2.6l1.4-2.5C266.7,392,268.9,393.1,270.1,393.8z"/>
		<path fill="#FFFFFF" d="M300.3,398.4v3.1h-17.6v-3.1H300.3z"/>
		<path fill="#FFFFFF" d="M310.2,409.5l-2.4-2.2c4.9-2.5,6.5-5.8,6.8-9.7h-4.4c-1.1,2-2.5,3.9-4,5.3l-2.5-1.8
			c2.9-2.6,5.4-7.3,6.3-10.5l2.9,0.8c-0.3,1.1-0.7,2.3-1.2,3.4h10.9v2.8h-4.8C317.3,402.3,315.4,406.4,310.2,409.5z"/>
		<path fill="#FFFFFF" d="M333,395.8l-2,2.5c-1.2-1.1-3.6-2.8-5.5-3.8l1.9-2.5C329.3,393.2,331.7,394.7,333,395.8z M340.5,395.9
			l2,2.3c-3,4.8-9.1,9.1-14.8,11l-1.6-2.9C331.8,404.8,337.6,400.7,340.5,395.9z"/>
		<path fill="#FFFFFF" d="M349.4,394.4v-3.9h3v3.9h5.5v-3.9h3.1v3.9h3.6v2.8h-3.6v1.5c0,4.9-1.8,8.3-6.8,10.7l-2-2.4
			c4.7-2,5.8-4.6,5.8-8.2v-1.6h-5.5v5h-3v-5h-3.7v-2.8L349.4,394.4L349.4,394.4z"/>
		<path fill="#FFFFFF" d="M385.9,398.4v3.1h-17.6v-3.1H385.9z"/>
		<g>
			<path fill="#FFFFFF" d="M123.7,496.6c4.6,0,8.3-3.7,8.3-8.3s-3.7-8.3-8.3-8.3s-8.3,3.7-8.3,8.3S119.1,496.6,123.7,496.6"/>
			<path fill="#FFFFFF" d="M167.9,496.6c4.6,0,8.3-3.7,8.3-8.3s-3.7-8.3-8.3-8.3s-8.3,3.7-8.3,8.3S163.3,496.6,167.9,496.6"/>
			<path fill="#FFFFFF" d="M212,496.6c4.6,0,8.3-3.7,8.3-8.3s-3.7-8.3-8.3-8.3s-8.3,3.7-8.3,8.3S207.4,496.6,212,496.6"/>
			<path fill="#FFFFFF" d="M256.2,496.6c4.6,0,8.3-3.7,8.3-8.3s-3.7-8.3-8.3-8.3c-4.6,0-8.3,3.7-8.3,8.3S251.6,496.6,256.2,496.6"/>
			<path fill="#FFFFFF" d="M300.3,496.6c4.6,0,8.3-3.7,8.3-8.3s-3.7-8.3-8.3-8.3s-8.3,3.7-8.3,8.3S295.7,496.6,300.3,496.6"/>
			<path fill="#FFFFFF" d="M344.5,496.6c4.6,0,8.3-3.7,8.3-8.3s-3.7-8.3-8.3-8.3s-8.3,3.7-8.3,8.3S339.9,496.6,344.5,496.6"/>
			<path fill="#FFFFFF" d="M388.6,496.6c4.6,0,8.3-3.7,8.3-8.3s-3.7-8.3-8.3-8.3s-8.3,3.7-8.3,8.3S384,496.6,388.6,496.6"/>
			<path fill="#FFFFFF" d="M389.1,320.6c4.6,0,8.3-3.7,8.3-8.3s-3.7-8.3-8.3-8.3s-8.3,3.7-8.3,8.3S384.5,320.6,389.1,320.6"/>
			<path fill="#FFFFFF" d="M432.8,496.6c4.6,0,8.3-3.7,8.3-8.3s-3.7-8.3-8.3-8.3s-8.3,3.7-8.3,8.3S428.2,496.6,432.8,496.6"/>
			<path fill="#FFFFFF" d="M476.9,496.6c4.6,0,8.3-3.7,8.3-8.3s-3.7-8.3-8.3-8.3s-8.3,3.7-8.3,8.3S472.3,496.6,476.9,496.6"/>
		</g>
	</g>
</g>
<g id="JUST_BLAZE" display="none">
	<rect y="166.5" display="inline" fill="#231F20" width="612" height="459"/>
	<g display="inline">
		<path fill="#FFFFFF" d="M268.3,290.4h-0.5v2.9h-3.2v-10.1h3.7c3,0,4.2,1.2,4.2,3.7C272.5,289.1,271.3,290.4,268.3,290.4z
			 M268.3,285.8h-0.5v2.2h0.5c0.7,0,0.9-0.1,0.9-1.1C269.2,285.9,269,285.8,268.3,285.8z"/>
		<path fill="#FFFFFF" d="M281.2,289.3l1.8,4h-3.6l-1.1-3.4h-0.5v3.4h-3.2v-10.1h3.7c2.7,0,4.1,1,4.1,3.4
			C282.4,287.8,282,288.8,281.2,289.3z M278.4,285.7h-0.6v1.9h0.6c0.6,0,0.8-0.1,0.8-1C279.2,285.9,279,285.7,278.4,285.7z"/>
		<path fill="#FFFFFF" d="M291.7,290.7l-0.1,2.7h-6.8v-10.1h6.6l0.1,2.7H288v1.1h2.9v2.4H288v1.3L291.7,290.7L291.7,290.7z"/>
		<path fill="#FFFFFF" d="M296.8,293.5c-1.1,0-2.2-0.2-3-0.7l0.4-2.6c0.9,0.4,1.7,0.6,2.6,0.6c0.7,0,0.9-0.2,0.9-0.5
			c0-1-3.9-0.7-3.9-4c0-1.8,1.1-3.3,3.8-3.3c0.9,0,2,0.2,2.8,0.5l-0.3,2.6c-0.8-0.2-1.6-0.3-2.2-0.3c-0.9,0-1,0.2-1,0.5
			c0,1,3.8,0.7,3.8,4C300.6,292.2,299.2,293.5,296.8,293.5z"/>
		<path fill="#FFFFFF" d="M309.6,290.7l-0.1,2.7h-6.8v-10.1h6.6l0.1,2.7h-3.5v1.1h2.9v2.4h-2.9v1.3L309.6,290.7L309.6,290.7z"/>
		<path fill="#FFFFFF" d="M317.8,293.3l-2.6-3.9l-0.6-0.9l0,0l0,1.1v3.7h-2.8v-10.1h2.6l2.8,4.4l0,0l0-1.1l0-3.3h2.8v10.1
			L317.8,293.3L317.8,293.3z"/>
		<path fill="#FFFFFF" d="M327.4,286v7.4h-3.2V286h-2.1l0.1-2.8h7.4l0.1,2.8H327.4z"/>
		<path fill="#FFFFFF" d="M334.4,293.5c-1.1,0-2.2-0.2-3-0.7l0.4-2.6c0.9,0.4,1.7,0.6,2.6,0.6c0.7,0,0.9-0.2,0.9-0.5
			c0-1-3.9-0.7-3.9-4c0-1.8,1.1-3.3,3.8-3.3c0.9,0,2,0.2,2.8,0.5l-0.3,2.6c-0.8-0.2-1.6-0.3-2.2-0.3c-0.9,0-1,0.2-1,0.5
			c0,1,3.8,0.7,3.8,4C338.3,292.2,336.8,293.5,334.4,293.5z"/>
		<g>
			<path fill="#FFFFFF" d="M396.7,259.8h-3.9l-0.8,4.6l-0.2,1.4h-0.1l-1.6-5.9h-4.1l4,9.9l0,0.1c-0.2,0.5-0.7,0.7-1.3,0.7
				c-0.3,0-0.6-0.1-0.9-0.2l-0.3,2.4c0.6,0.2,1.2,0.3,1.9,0.3c2.1,0,3.5-1,4.2-3.3L396.7,259.8z M386.1,263.6c0-2.6-1.4-4-3.4-4
				c-1.1,0-2,0.4-2.7,1.2c-0.6-0.8-1.4-1.2-2.5-1.2c-0.9,0-1.7,0.4-2.4,0.9l-0.5-0.8l-2.7,0.2v10.3h3.7v-7.1
				c0.2-0.2,0.4-0.4,0.8-0.4c0.6,0,0.8,0.3,0.8,1v6.6h3.7v-6.6c0-0.7,0.2-1,0.8-1c0.5,0,0.8,0.3,0.8,1v6.6h3.7V263.6z M371,266.1
				c0.1-0.5,0.1-1.1,0.1-1.7c0-3.3-1.5-4.8-4.3-4.8c-3.2,0-4.6,1.9-4.6,5.4c0,3.5,1.7,5.4,5.3,5.4c1.3,0,2.6-0.3,3.4-0.6l-0.4-2.8
				c-0.8,0.2-1.7,0.4-2.5,0.4c-1.2,0-1.8-0.3-2-1.2C366,266.1,371,266.1,371,266.1z M367.7,263.8h-1.8c0.1-1.1,0.3-1.3,0.9-1.3
				C367.4,262.5,367.7,262.8,367.7,263.8 M358.4,270.2h2.9V257l-3.7,0.2v1.7l0,1.4l0,0c-0.6-0.4-1.2-0.7-1.9-0.7
				c-2.3,0-3.6,1.9-3.6,5.3c0,3.8,1.4,5.5,3.7,5.5c1,0,1.8-0.3,2.3-0.9L358.4,270.2z M357.6,267c-0.1,0.3-0.4,0.5-0.8,0.5
				c-0.8,0-0.9-0.4-0.9-2.5c0-1.9,0.2-2.3,0.9-2.3c0.4,0,0.6,0.2,0.8,0.4V267z M352.7,244.3l0-0.3c-0.5-0.4-0.2-1.2-0.4-1.7
				c-0.1-0.2-0.3-0.4-0.5-0.6c-0.4-0.2-0.6,0.3-0.8,0.5c-0.1,0.6,0.2,1.1,0.3,1.7c0.1,0.3,0,0.6,0.2,0.8L352.7,244.3z M350.8,241.1
				c0-0.2,0.1-0.4,0-0.5l-1.3-1.1l-0.3,0c-0.2,0.2-0.6,0.3-0.5,0.6c0.4,0.5,0.7,1.4,1.4,1.5C350.4,241.4,350.7,241.4,350.8,241.1
				 M324.1,239.9c0.2-0.5,0.4-1,0.5-1.5c-0.1-0.1-0.2-0.1-0.3-0.1c-0.2,0-0.4,0-0.6,0l0,0c-0.3-0.1-0.6,0-0.9-0.1
				c-0.3,0.4-0.5,0.8-0.4,1.3c0.2,0.3,0.5,0.3,0.8,0.5C323.5,240,323.9,240.1,324.1,239.9 M277.3,238.1c-0.1,0.1-0.1,0.1-0.1,0.2
				c0.7,0.4,0.8,1.1,1.2,1.7c0.6,0.3,1.1-0.2,1.6-0.5c0.1-0.2-0.1-0.3-0.1-0.4c-0.2-0.4-0.3-0.8-0.5-1.1c-0.5,0-1,0-1.5,0.1l0,0
				C277.6,238.2,277.4,238.1,277.3,238.1 M350.6,218.1c-0.1-0.1,0-0.3-0.2-0.2c-0.3,0.4-0.7,0.6-1.1,0.7c-1.5,0.2-3,0.6-4.1,1.8
				c-0.4,0.5-0.4,1.3-0.1,1.9c0.9,1.8,3.2,2.9,3.7,4.9c0.3,0.9-0.1,1.6-0.8,2.2c-1,0.6-2.4,0.5-3.4,0c-2.4-1.2-4.4-3.4-7.1-4
				c-1.5-0.2-2.8-0.9-4-2c-1-0.8-2.3-0.9-3.4-1.3c-1.1-1.1-2.3-1.8-3.6-2.3c-0.7-0.3-1.7-0.2-2.3-0.8c-0.4-0.6-1.1-1.2-1.7-1.6
				c-0.9-0.5-2.3-1-3.3-0.4c-0.1,0.1-0.2,0.1-0.2,0.2c-2.1-3.5-5.1-6.3-8.7-8.1v-9l-13.7,2.9v4.5c-5.7,1.3-10.4,4.8-13.4,9.6
				c-0.7,0-1.4,0.1-2,0.4c-1.6,1.4-3.6,1.9-5.5,2.7c-1,0.5-1.7,1.7-2.8,2.2c-1.4,0-2.7,0.3-3.7,1.3c-0.9,1-1.9,1.8-3.1,2
				c-2.2,0.1-4,1-5.5,2.5c-1.5,1-3,2.3-5,1.9c-0.8-0.2-1.5-0.9-1.7-1.6c-0.5-1.6,0.5-2.9,1.7-3.9c1.1-1,2.7-2,2.3-3.7
				c-0.3-1.4-1.9-1.7-3-2c-1.2,0-2.1-0.7-3.1-1.3c-0.2,0.4-0.3,0.8-0.3,1.2c0.1,1.1,1,2.3,2.1,2.6c0.7,0.4,1.7-0.2,2.3,0.3
				c0.2,0.2,0.1,0.4,0.1,0.6c-1.3,1.3-3.3,2.6-3.6,4.5c-0.3,1.5,0.3,2.9,1.4,3.9c1.3,1,3.3,1.2,4.8,0.5c0.2-0.1,0.4-0.1,0.5,0.1
				l0.2,2c0.1,1,0.8,1.7,0.7,2.6c-0.5,0.5-1.1,0.8-1.7,1.1l-1.5,0.2c-0.4,0.3-0.6,0.8-0.7,1.3c-0.1,1.1-1.3,1.7-2.1,2.3
				c-0.3,0.5-0.8,1.3-1.5,1.3c-0.5,0.6-0.5,1.4-0.7,2.1c0.7,0.1,1.3,0.3,2.1,0.2c0.9-0.2,1-1.2,1.5-1.8c0.6-0.6,1.4,0.1,2-0.2
				c0.8-0.4,1.6-0.9,2.3-1.7c1.6-0.8,3.4,0.5,4.9-0.4c0.7-0.8,1.8-0.6,2.3-1.6c0.3-0.8,0.8-1.4,0.9-2.2c-0.2-0.2-0.3-0.3-0.5-0.4
				c-0.2,0.3-0.4,0.7-0.6,1c-1,1.6-2.7,2.1-4.4,2.2c-2.2-0.1-4.3,0.4-5.7,2.2h-0.2c-0.1,0-0.2-0.1-0.2-0.2c0.8-1.4,2.2-2.3,3.6-2.5
				c2.3-0.2,4.9-0.3,6.2-2.6c0.8-1.2,0.6-2.9,0.9-4.3c0-0.2,0.1-0.3,0.3-0.3c0.1,0,0.2,0.1,0.3,0.2c-0.2,1.2-0.2,2.4,0.2,3.5
				c0.7,1,2.1,0.4,3.1,0.3c1.8-0.4,3.4,0.6,5.3,0.2c0.2-0.1,0.4-0.2,0.3-0.5c-0.1-0.4-0.3-0.7-0.2-1.2c0.1-0.1,0.2-0.2,0.3-0.2
				c0.3,0.2,0.2,0.5,0.3,0.8c0.7,2.1,3.9,2,4.1,4.5c-0.3,0.9-1.3,1.3-2.1,1.5c-1.5,0.3-1.8-1.5-2.7-2.3c-0.7-0.5-1.7-0.1-2.5,0
				c-0.2,0.1-0.3,0.3-0.2,0.5l0.9,1.5c0.3,0.7,1.2-0.1,1.6,0.6c0.3,0.8,1.1,1.7,2,1.7c1.4-0.3,2.6-0.9,3.9-1.4
				c0.5-0.6,1.4-0.2,2-0.5c0.2-0.1,0.3-0.2,0.4-0.4c3.8,5,9.9,8.3,16.6,8.3c7,0,13.2-3.5,17-8.7c0,0.1,0.1,0.2,0.1,0.3
				c0.2,0.8,1,0.3,1.5,0.5c0.7,1,1.9,1,2.9,1.4c0.7,0.2,1.4,0.6,2.2,0.5c0.8-0.2,1.2-1,1.3-1.8c0.2-0.4,0.9,0,1.1-0.4
				c0.3-0.5,0.8-1,1-1.5c-0.3-0.5-1-0.2-1.5-0.3c-0.1,0.1-0.3,0-0.4,0l0,0c-1.1-0.1-1.1,1.2-1.7,1.8c-0.2,0.2-0.5,0.2-0.8,0.3
				c-0.9-0.3-2.3-0.4-2.3-1.7c0.3-0.7,1.1-1.4,1.8-1.9c0.7-0.1,1.4-0.5,1.9-1.2c0.4-0.3,0.2-1.1,0.9-1.1c0.3,0.5,0,1.1-0.2,1.6
				c1.3,0.1,2.5-0.1,3.7-0.3c1.8-0.4,3.5,0.5,5.2-0.1c0.9-0.4,0.9-1.4,1-2.3l0,0l0,0c0-0.5-0.1-0.9-0.2-1.3c0-0.2-0.1-0.5,0-0.6
				c0.1-0.1,0.2-0.1,0.3,0c0.7,1.6,0.4,3.6,1.3,5.2c0.6,1.3,1.9,2.2,3.3,2.3c0.1,0,0.1-0.1,0.2,0c2.3-0.5,4.3,0.5,5.6,2.2v0.1
				c-0.1,0.1-0.2,0.2-0.3,0.2c-0.3-0.3-0.6-0.5-0.9-0.8c-1.3-1.2-3.1-1.3-4.8-1.1c-1.8,0.1-3.5-1.5-4.1-3.1
				c-0.2-0.2-0.1-0.5-0.4-0.5c-0.1,0.1-0.1,0.2-0.1,0.2c0.1,1.2,0.3,2.3,1.1,3.2c0.8,0.4,1.4,1.2,2.3,1.3c1.2-0.3,2.7-0.2,3.8,0.3
				c0.9,0.3,1.6,1.1,2.4,1.6c0.4,0.2,1,0.1,1.4-0.2c1-0.3,1.2,0.9,1.9,1.4c0.6,0.4,1.4,0.3,2.2,0.3l0.1-0.1c-0.1-0.7-0.2-1.4-0.5-2
				c-0.9,0-1.4-1-1.9-1.6c-0.4-0.4-0.9-0.7-1.1-1.2c-0.3-0.8-0.2-1.9-0.9-2.4c-0.7-0.1-1.5,0-2.1-0.5c-0.3-0.3-0.4-0.7-0.3-1.1
				c0.4-1,0.7-2.1,0.5-3.2c0-0.4-0.4-0.8,0-1.1c1.3,0.4,3.1,0.5,4.3-0.3c1.1-0.7,1.9-1.9,1.8-3.3c-0.3-1.9-1.6-3.4-3.1-4.8
				c-0.2-0.2-0.4-0.3-0.3-0.6c0-0.1,0.1-0.3,0.2-0.4c0.8-0.1,1.6-0.2,2.3-0.5C350.5,220.8,350.8,219.4,350.6,218.1 M284.1,222.7
				c0.4,0.3,0.5,0.7,0.7,1.1c0.2,0.7,0.3,1.6,0.1,2.3l-0.1,0.1c-0.1-0.2-0.1-0.4-0.2-0.6c-0.2-0.9-0.5-1.7-1.1-2.5
				c0-0.2,0-0.3,0.1-0.4C283.8,222.7,284,222.6,284.1,222.7 M308.9,208.6c-2.4-1-5.1-1.6-7.9-1.6c-1.1,0-2.1,0.1-3.2,0.2l0-1.1
				l11.1-2.2L308.9,208.6z M319.5,222.3c-0.9,0.7-1.8,1.7-2.3,2.6h-0.1c-0.1-1.6,1.1-3,2.5-3.9c0.2,0,0.5,0,0.6,0.2
				C320.3,221.8,319.8,222,319.5,222.3 M321.1,235.6l-1.5,2l-0.2,0.5c-0.2,0.4-0.1,1.1-0.1,1.5c-0.4-0.2-0.4-0.7-0.5-1
				c-0.3-1.5,1.1-2.3,1.6-3.4c-0.3-0.1-0.6-0.3-1-0.4c-0.8,0.9-1.2,2-1.8,3c0,0.3,0,0.7,0.1,1c-3.5,5.4-9.7,9-16.6,9
				c-6.6,0-12.5-3.2-16.1-8.2c0.3-0.5,0.5-0.9,0.4-1.5c0-0.8-0.8-1.3-1-2c-0.2-0.4-0.3-0.7-0.5-1.1c-0.4-0.2-0.9-0.3-1.3,0
				c0.5,1,1.1,2,1.6,3.1c0.1,0.9-0.4,1.6-0.9,2.2c-0.1,0.1-0.2,0-0.3-0.1c0.2-0.6,0.4-1.3,0.4-1.9c-0.6-1.1-1.4-2.2-2-3.4
				c0-0.2,0.1-0.4,0.3-0.5c0.6-0.3,1.4-0.2,1.8-0.7c0.6-1,0.9-2,1.1-3.1c0.1-0.1,0.1-0.2,0.2-0.1c0.1,0.1,0.1,0.2,0.2,0.3
				c0.2,1.3-0.1,2.4-0.7,3.4c-0.1,0.1,0,0.2,0.1,0.3c0.4,0.2,0.9,0,1.3-0.1c0.8-0.6,1.9-0.3,2.8-0.6c0,0.1,0.2,0.1,0.1,0.2
				c-0.4,0.5-0.6,1.1-0.8,1.7c-0.5,0.6-1.3,1.1-1.3,1.9c0.1,0.3,0.4,0,0.6,0c0.1,0,0.2,0.2,0.2,0.3c-0.2,0.4-0.6,0.7-0.6,1.1
				c0.2,0.5,0,1.3,0.7,1.5c1.6,0.3,2.7-1,4.3-0.9c1.2,0.3,2.2-0.2,3-1.1c0.2-0.1,0.4,0.1,0.6,0.1c0.9,0.9,1.8,1.4,3,1.6
				c0.4,0,0.8,0.1,1.1,0c0.1-0.1,0-0.2,0-0.3c-0.8-0.3-1.7-0.8-2.3-1.6c-0.4-1-0.8-1.9-1.5-2.8c-0.1-0.1-0.1-0.2,0-0.2
				c0.8,0.2,1.5,1,1.9,1.7c0.7,1,1.6,1.9,2.9,1.7c0.2,0,0.4,0,0.3-0.3c-1.9-0.6-2.2-2.7-3.7-3.8c-0.7-1.8-1.4-3.7-1.7-5.7
				c-0.1-1.8-1.1-3.2-2.2-4.6c-1.8-2.7-4.6-4.2-6.9-6.2l-0.8-0.4c-0.3-0.2-0.6-0.3-1-0.4c2.7-4.3,7.1-7.5,12.3-8.7v6.7
				c-0.3-0.2-0.5-0.2-0.7-0.2c-2.3,0-4.4,2.2-4.4,3.6c0,1,0.8,1.6,1.8,1.6c1.1,0,2.5-0.6,3.5-1.7c0.8-0.9,1.1-1.7,1.1-3.2l0-7
				c1-0.2,2.1-0.3,3.2-0.3c2.8,0,5.5,0.6,7.9,1.7l0,2.6c-0.3-0.2-0.5-0.2-0.7-0.2c-2.3,0-4.4,2.2-4.4,3.6c0,1,0.8,1.6,1.8,1.6
				c1.1,0,2.5-0.6,3.5-1.7c0.8-0.9,1.1-1.7,1.1-3.2v-2.1c3.3,1.7,6,4.4,7.9,7.6c-2.6,2-5.3,3.5-7.7,5.7c-1.6,1.5-2.5,3.3-3,5.3
				c-1.2,3.4-1.5,7.6-5.1,9.7c0,0.1,0,0.2,0.1,0.3c0.8,0.2,1.7,0,2.3-0.7c0.6-0.9,1.2-1.7,2-2.5h0.2c0.3,0.1,0.1,0.3,0.1,0.5
				c-1.1,1-1.1,2.6-2.6,3.4c-0.2,0.1-0.6,0.4-0.3,0.6c1.6,0.2,2.8-1,3.9-2l0.2,0c0.6,0.4,1.1,1.3,2,1.1c1.7-0.5,2.8,0.6,4.2,1
				c0.4,0.2,0.7-0.1,1-0.4c0.6-0.4,0.3-1.2,0.3-1.7l0.1-0.1c0.3,0,0.6,0.2,0.8-0.1c0.1-0.8-0.6-1.3-0.9-1.9c-0.2-1.2-1.6-2-1.8-3.2
				c0.1-0.1,0.1-0.1,0.2-0.2c0.6,0.3,1.1,0.9,1.6,1.2c0.9,0.4,1.9,0.4,3,0.5c0.2,0,0.2-0.2,0.1-0.3c-0.5-1.2-1-2.5-0.9-3.9
				c0.1-0.4-0.1-1.1,0.4-1.3c0.1,0,0.2,0.2,0.2,0.3c0.1,1.3,0.1,2.7,0.7,3.8c0.3,0.8,1.2,1.3,1.8,1.7
				C321.2,234.9,321.3,235.3,321.1,235.6 M310.3,231.9c-0.7,0.4-0.9,1.1-1,1.7c0,0.1-0.2,0.1-0.3,0.1c-0.3-0.3,0-0.8,0-1.1
				c0.3-1.2,1.6-1.8,2.3-2.8c0.7,0,0.7,0.7,1.1,1.1c0.1,0.3,0.5,0.7,0.1,1c-0.2,0-0.4-0.2-0.5-0.3c-0.1-0.1-0.1-0.3-0.3-0.3
				C311.1,231.1,310.7,231.5,310.3,231.9 M310.9,236.6c0.4,0,0.7,0.2,1,0.5c0.1,0.2,0.3,0.5,0.1,0.8c-0.3,0.1-0.6,0-0.8,0
				c-0.3-0.2-0.3-0.5-0.4-0.8C310.8,236.8,310.7,236.6,310.9,236.6 M292.5,231c-0.2-0.1-0.4-0.1-0.6,0.1l-0.6,0.7
				c-0.2-0.1-0.1-0.4-0.1-0.6c0.2-0.5,0.5-1.1,0.7-1.6c0.1-0.2,0.3-0.1,0.5-0.1c0.6,0.4,0.7,1.1,1.3,1.5c0.5,0.6,0.7,1.5,0.3,2.3
				c-0.1,0-0.3,0.2-0.3,0C293.8,232.3,293.2,231.5,292.5,231 M292.2,237.6c-0.4,0.1-0.8,0.3-1.3,0.2c-0.1-0.3,0.2-0.5,0.2-0.7
				c0.3-0.3,0.6-0.7,1.1-0.5l0.1,0.3C292.4,237.2,292.3,237.4,292.2,237.6 M250.7,244.5c0.2-0.7,0.4-1.5,0.6-2.3l-0.7-0.7
				c-0.1,0-0.2,0.1-0.3,0.1c-0.5,0.3-0.5,0.9-0.5,1.5c0,0.4-0.4,0.6-0.4,0.9C249.9,244.3,250.3,244.5,250.7,244.5 M249.7,260.9
				c0-2-1.5-3.3-4.4-3.3h-5.3v12.7h5.2c3.3,0,4.8-1.5,4.8-3.8c0-1.5-0.7-2.5-1.9-2.9v0C249.1,263,249.7,262.1,249.7,260.9
				 M245.9,261.5c0,0.7-0.1,0.8-0.7,0.8h-1.3v-1.6h1.3C245.7,260.7,245.9,260.9,245.9,261.5 M246.1,266.1c0,0.8-0.1,0.9-0.8,0.9
				h-1.4v-1.8h1.4C245.9,265.2,246.1,265.5,246.1,266.1 M232.1,270.2h2.9V257l-3.7,0.2v1.7l0,1.4l0,0c-0.6-0.4-1.2-0.7-1.9-0.7
				c-2.3,0-3.6,1.9-3.6,5.3c0,3.8,1.4,5.5,3.7,5.5c1,0,1.8-0.3,2.3-0.9L232.1,270.2z M231.3,267c-0.1,0.3-0.4,0.5-0.8,0.5
				c-0.8,0-0.9-0.4-0.9-2.5c0-1.9,0.2-2.3,0.9-2.3c0.4,0,0.6,0.2,0.8,0.4V267z M225,266.1c0.1-0.5,0.1-1.1,0.1-1.7
				c0-3.3-1.5-4.8-4.3-4.8c-3.2,0-4.6,1.9-4.6,5.4c0,3.5,1.7,5.4,5.3,5.4c1.3,0,2.6-0.3,3.4-0.6l-0.4-2.8c-0.8,0.2-1.7,0.4-2.5,0.4
				c-1.2,0-1.8-0.3-2-1.2C220,266.1,225,266.1,225,266.1z M221.7,263.8h-1.8c0.1-1.1,0.3-1.3,0.9-1.3
				C221.5,262.5,221.7,262.8,221.7,263.8 M215.6,261.8c0-3-1.8-4.2-5.2-4.2h-4.6v12.7h4V266h0.6l1.4,4.2h4.5l-2.3-5
				C215.1,264.6,215.6,263.3,215.6,261.8 M211.5,261.9c0,1.1-0.2,1.2-1,1.2h-0.7v-2.4h0.7C211.3,260.7,211.5,260.9,211.5,261.9
				 M251.5,241.2c0.1,0.1,0.2,0.3,0.4,0.3c0.4,0.2,0.7-0.1,1-0.4c0.2-0.4,0.6-0.7,0.7-1.2c-0.1-0.3-0.5-0.6-0.8-0.4
				C252.4,240.2,251.1,240.2,251.5,241.2 M254.6,259.8H251v6.6c0,2.6,1.5,4,4.5,4c3,0,4.5-1.3,4.5-4v-6.6h-3.6v6.6
				c0,0.7-0.2,0.9-0.8,0.9c-0.6,0-0.8-0.3-0.8-0.9V259.8z M264.7,257l-3.7,0.2v13h3.7V257z M269.7,257l-3.7,0.2v13h3.7V257z
				 M279.1,257.5h-4.3v12.7h3.5V266l0-1.4l0,0l0.4,1.3l1.4,4.3h2.5l1.4-4.2l0.4-1.3l0.1,0l0,1.4v4.2h3.6v-12.7h-4.3l-1.9,5.4
				l-0.4,1.3h-0.1l-0.4-1.3L279.1,257.5z M293,259.8h-3.7v6.6c0,2.6,1.5,4,4.5,4s4.5-1.3,4.5-4v-6.6h-3.6v6.6c0,0.7-0.2,0.9-0.8,0.9
				c-0.6,0-0.8-0.3-0.8-0.9V259.8L293,259.8z M303.2,267.1c0,0.3-0.3,0.4-0.8,0.4c-0.7,0-1.9-0.2-2.7-0.6l-0.3,2.9
				c0.9,0.4,1.9,0.6,3.1,0.6c2.9,0,4.1-1.4,4.1-3.6c0-3.5-3.9-2.8-3.9-3.8c0-0.2,0.2-0.4,0.6-0.4c0.7,0,1.8,0.2,2.6,0.4l0.3-2.9
				c-0.8-0.3-1.8-0.5-2.9-0.5c-2.8,0-4.1,1.6-4.1,3.5C299.2,266.8,303.2,266.1,303.2,267.1 M307.5,257.9c0,1,0.6,1.4,1.9,1.4
				c1.4,0,1.9-0.5,1.9-1.4c0-0.9-0.6-1.4-1.9-1.4C308.1,256.6,307.5,257,307.5,257.9 M311.3,259.7l-3.7,0.2v10.3h3.7V259.7z
				 M312.3,265.1c0,3.5,1.7,5.3,4.8,5.3c1,0,1.8-0.2,2.4-0.5l-0.2-2.7c-0.4,0.1-0.9,0.2-1.4,0.2c-1.1,0-1.8-0.7-1.8-2.3
				c0-1.8,0.4-2.3,1.9-2.3c0.4,0,0.8,0.1,1.2,0.2l0.2-3c-0.6-0.2-1.5-0.4-2.2-0.4C313.8,259.6,312.3,261.7,312.3,265.1 M326.3,257.5
				l-3.6,12.7h4.2l0.4-1.9h2.8l0.4,1.9h4.4l-3.7-12.7H326.3z M327.9,265.1l0.5-2.7l0.3-1.4h0.1l0.2,1.4l0.5,2.7
				C329.5,265.1,327.9,265.1,327.9,265.1z M334.8,265.1c0,3.5,1.7,5.3,4.8,5.3c1,0,1.8-0.2,2.4-0.5l-0.2-2.7
				c-0.4,0.1-0.9,0.2-1.4,0.2c-1.1,0-1.8-0.7-1.8-2.3c0-1.8,0.4-2.3,1.9-2.3c0.4,0,0.8,0.1,1.2,0.2l0.2-3c-0.6-0.2-1.5-0.4-2.2-0.4
				C336.3,259.6,334.8,261.7,334.8,265.1 M342.6,266.8c0,2.3,1.2,3.5,3.1,3.5c1,0,1.8-0.3,2.4-0.9l0.2,0.7h2.8V264
				c0-3-1.1-4.4-4.3-4.4c-1.3,0-2.6,0.2-3.6,0.6l0.3,2.8c0.9-0.3,1.5-0.5,2.6-0.5c1.1,0,1.4,0.4,1.4,0.9v0.2
				c-0.4-0.1-0.8-0.2-1.4-0.2C344,263.5,342.6,264.9,342.6,266.8 M346,266.8c0-0.6,0.3-0.9,0.8-0.9c0.3,0,0.5,0,0.7,0.1v0.9
				c0,0.5-0.4,0.7-0.8,0.7C346.3,267.6,346,267.3,346,266.8"/>
		</g>
	</g>
	<g display="inline">
		<path fill="#FFFFFF" d="M219.3,384.2c-5.2,0-10.6-1.1-14.9-3.4l1.9-12.7c4.2,1.9,8.3,3.2,12.6,3.2c3.3,0,4.3-0.9,4.3-2.4
			c0-4.7-18.9-3.4-18.9-19.7c0-9,5.6-16.2,18.6-16.2c4.6,0,9.8,0.8,13.5,2.3l-1.7,12.6c-4-1.1-7.9-1.7-10.9-1.7
			c-4.2,0-4.7,0.9-4.7,2.2c0,4.9,18.8,3.5,18.8,19.5C238,377.9,230.9,384.2,219.3,384.2z"/>
		<path fill="#FFFFFF" d="M284.3,366.4c0,11.4-6.3,17.8-19.7,17.8c-13.3,0-19.9-6.3-19.9-17.8v-32.6h15.5v32.4c0,3.2,1,4.6,4.4,4.6
			c3.4,0,4.2-1.3,4.2-4.6v-32.4h15.5L284.3,366.4L284.3,366.4z"/>
		<path fill="#FFFFFF" d="M306.1,384.2c-5.2,0-10.6-1.1-14.9-3.4l1.9-12.7c4.2,1.9,8.3,3.2,12.6,3.2c3.3,0,4.3-0.9,4.3-2.4
			c0-4.7-18.9-3.4-18.9-19.7c0-9,5.6-16.2,18.6-16.2c4.6,0,9.8,0.8,13.5,2.3l-1.7,12.6c-4-1.1-7.9-1.7-10.9-1.7
			c-4.2,0-4.7,0.9-4.7,2.2c0,4.9,18.8,3.5,18.8,19.5C324.8,377.9,317.8,384.2,306.1,384.2z"/>
		<path fill="#FFFFFF" d="M356.1,383.3v-18.4h-8.7v18.4H332v-49.5h15.5v17.8h8.7v-17.8h15.5v49.5H356.1z"/>
		<path fill="#FFFFFF" d="M380.9,333.8h15.9v49.5h-15.9V333.8z"/>
		<path fill="#FFFFFF" d="M122,466.9c-5.2,0-10.6-1.1-14.9-3.4l1.9-12.7c4.2,1.9,8.3,3.2,12.6,3.2c3.3,0,4.3-0.9,4.3-2.4
			c0-4.7-18.9-3.4-18.9-19.7c0-9,5.6-16.2,18.6-16.2c4.6,0,9.8,0.8,13.5,2.3l-1.7,12.6c-4-1.1-7.9-1.7-10.9-1.7
			c-4.2,0-4.7,0.9-4.7,2.2c0,4.9,18.8,3.5,18.8,19.5C140.7,460.6,133.6,466.9,122,466.9z"/>
		<path fill="#FFFFFF" d="M181.5,453l-0.3,13h-33.3v-49.5h32.5l0.3,13.2h-17.3v5.2h14v12h-14v6.2H181.5z"/>
		<path fill="#FFFFFF" d="M220.1,464.8l7.5,6.4l-16.1,4.5l-4.4-8.9c-13.6-0.5-20.1-8.3-20.1-25.6c0-18,6.7-25.6,21.7-25.6
			c15,0,21.7,7.6,21.7,25.6C230.4,454.2,227.1,461.5,220.1,464.8z M208.6,429.1c-4.2,0-5.4,1.8-5.4,12.2c0,10.4,1.2,12.4,5.5,12.4
			c4.3,0,5.4-2,5.4-12.4C214.1,430.8,213.1,429.1,208.6,429.1z"/>
		<path fill="#FFFFFF" d="M277.3,449.1c0,11.4-6.3,17.8-19.7,17.8c-13.3,0-19.9-6.3-19.9-17.8v-32.6h15.5v32.4c0,3.2,1,4.6,4.4,4.6
			c3.4,0,4.2-1.3,4.2-4.6v-32.4h15.5V449.1L277.3,449.1z"/>
		<path fill="#FFFFFF" d="M319.2,453l-0.3,13h-33.3v-49.5h32.5l0.3,13.2h-17.3v5.2h14v12h-14v6.2H319.2z"/>
		<path fill="#FFFFFF" d="M355.8,466l-12.5-18.9l-2.8-4.6l-0.1,0.1l0.1,5.4v18h-13.6v-49.5h12.7l13.5,21.5l0.1-0.1l-0.1-5.3
			l0.1-16.2h13.6V466H355.8z"/>
		<path fill="#FFFFFF" d="M406.2,430.1c-2.2-0.7-5-1.1-7.9-1.1c-6.5,0-7.6,2.6-7.6,12.2c0,10,1.3,12.7,7.9,12.7
			c2.8,0,5.5-0.5,7.8-1.5l1.4,12.3c-3.2,1.4-7.7,2.2-11.5,2.2c-14.5,0-21.8-8.1-21.8-25.8c0-16.4,6.9-25.4,22.7-25.4
			c3.5,0,7.8,0.7,10.5,1.7L406.2,430.1z"/>
		<path fill="#FFFFFF" d="M448.6,453l-0.3,13h-33.3v-49.5h32.5l0.3,13.2h-17.3v5.2h14v12h-14v6.2H448.6z"/>
		<path fill="#FFFFFF" d="M488.5,446.3l8.9,19.7h-17.8l-5.5-16.5h-2.5V466h-15.5v-49.5h18c13.4,0,20.3,4.9,20.3,16.5
			C494.5,439.2,492.4,444.1,488.5,446.3z M474.5,428.9h-2.8v9.4h2.8c3,0,3.9-0.5,3.9-4.7C478.4,429.7,477.6,428.9,474.5,428.9z"/>
		<path fill="#FFFFFF" d="M220.8,401.2c0.2-0.4,0.4-0.7,0.6-1.1h-5.9v-2.3h6.9c0.1-0.3,0.2-0.6,0.3-1H218v-2.2h5.4
			c0.1-0.3,0.1-0.6,0.2-0.9h-6.8v-2.3h7.1c0.1-0.5,0.1-1.1,0.2-1.7l2.8,0.2c0,0.5-0.1,1.1-0.2,1.5h7.8v2.3h-8.2
			c0,0.3-0.1,0.6-0.2,0.9h7.1v2.2h-7.7c-0.1,0.3-0.2,0.7-0.3,1h10.3v2.3h-4.2v1.1h3.6v2.3h-3.6v4c0,1.4-0.4,2.2-1.7,2.4
			c-0.7,0.1-2.2,0.1-3.3,0.1l-0.6-2.6c0.8,0.1,1.8,0.1,2.2,0c0.3,0,0.4-0.2,0.4-0.5v-3.4h-6c-1.3,2-3,3.7-5,5.3l-2.3-1.8
			c1.5-1.1,2.7-2.2,3.8-3.5h-3v-2.3L220.8,401.2L220.8,401.2z M223.3,404c1.3,1.1,2.3,2.1,2.9,3.1l-2.4,1.5
			c-0.6-1.1-1.5-2.1-2.6-3.2L223.3,404z M228.6,401.2v-1.1h-4.1c-0.2,0.4-0.3,0.7-0.5,1.1H228.6z"/>
		<path fill="#FFFFFF" d="M254.8,409.9c-0.6,0.1-2.1,0.1-3.1,0l-0.6-2.8c0.8,0.1,1.9,0.1,2.3,0.1c0.5,0,0.6-0.3,0.6-0.7v-13.3h-14.8
			v-2.6H254h1.3h1.6V407C256.9,408.7,256.4,409.6,254.8,409.9z M240.1,397v-2.5h12.9v2.5H240.1z M241.4,407.5v-9.2h1h1.7h7.5v7.7
			h-7.5v1.5H241.4z M244.2,403.5h4.7v-2.7h-4.7V403.5z"/>
		<path fill="#FFFFFF" d="M267.9,398.6l-1.4,2.5c-1.6-0.9-3.7-1.8-5.5-2.4l1.4-2.5C264.1,396.7,266.6,397.8,267.9,398.6z
			 M276.4,395.9l2,2.3c-3,4.8-9.1,9.1-14.8,11l-1.6-2.9C267.7,404.9,273.5,400.7,276.4,395.9z M270.1,393.8l-1.4,2.5
			c-1.5-0.9-3.6-1.9-5.3-2.6l1.4-2.5C266.7,392,268.9,393.1,270.1,393.8z"/>
		<path fill="#FFFFFF" d="M300.3,398.4v3.1h-17.6v-3.1H300.3z"/>
		<path fill="#FFFFFF" d="M310.2,409.5l-2.4-2.2c4.9-2.5,6.5-5.8,6.8-9.7h-4.4c-1.1,2-2.5,3.9-4,5.3l-2.5-1.8
			c2.9-2.6,5.4-7.3,6.3-10.5l2.9,0.8c-0.3,1.1-0.7,2.3-1.2,3.4h10.9v2.8h-4.8C317.3,402.3,315.4,406.4,310.2,409.5z"/>
		<path fill="#FFFFFF" d="M333,395.8l-2,2.5c-1.2-1.1-3.6-2.8-5.5-3.8l1.9-2.5C329.3,393.2,331.7,394.7,333,395.8z M340.5,395.9
			l2,2.3c-3,4.8-9.1,9.1-14.8,11l-1.6-2.9C331.8,404.8,337.6,400.7,340.5,395.9z"/>
		<path fill="#FFFFFF" d="M349.4,394.4v-3.9h3v3.9h5.5v-3.9h3.1v3.9h3.6v2.8h-3.6v1.5c0,4.9-1.8,8.3-6.8,10.7l-2-2.4
			c4.7-2,5.8-4.6,5.8-8.2v-1.6h-5.5v5h-3v-5h-3.7v-2.8L349.4,394.4L349.4,394.4z"/>
		<path fill="#FFFFFF" d="M385.9,398.4v3.1h-17.6v-3.1H385.9z"/>
		<g>
			<path fill="#FFFFFF" d="M123.7,496.6c4.6,0,8.3-3.7,8.3-8.3s-3.7-8.3-8.3-8.3s-8.3,3.7-8.3,8.3S119.1,496.6,123.7,496.6"/>
			<path fill="#FFFFFF" d="M167.9,496.6c4.6,0,8.3-3.7,8.3-8.3s-3.7-8.3-8.3-8.3s-8.3,3.7-8.3,8.3S163.3,496.6,167.9,496.6"/>
			<path fill="#FFFFFF" d="M212,496.6c4.6,0,8.3-3.7,8.3-8.3s-3.7-8.3-8.3-8.3s-8.3,3.7-8.3,8.3S207.4,496.6,212,496.6"/>
			<path fill="#FFFFFF" d="M256.2,496.6c4.6,0,8.3-3.7,8.3-8.3s-3.7-8.3-8.3-8.3c-4.6,0-8.3,3.7-8.3,8.3S251.6,496.6,256.2,496.6"/>
			<path fill="#FFFFFF" d="M300.3,496.6c4.6,0,8.3-3.7,8.3-8.3s-3.7-8.3-8.3-8.3s-8.3,3.7-8.3,8.3S295.7,496.6,300.3,496.6"/>
			<path fill="#FFFFFF" d="M344.5,496.6c4.6,0,8.3-3.7,8.3-8.3s-3.7-8.3-8.3-8.3s-8.3,3.7-8.3,8.3S339.9,496.6,344.5,496.6"/>
			<path fill="#FFFFFF" d="M388.6,496.6c4.6,0,8.3-3.7,8.3-8.3s-3.7-8.3-8.3-8.3s-8.3,3.7-8.3,8.3S384,496.6,388.6,496.6"/>
			<path fill="#FFFFFF" d="M389.1,320.6c4.6,0,8.3-3.7,8.3-8.3s-3.7-8.3-8.3-8.3s-8.3,3.7-8.3,8.3S384.5,320.6,389.1,320.6"/>
			<path fill="#FFFFFF" d="M432.8,496.6c4.6,0,8.3-3.7,8.3-8.3s-3.7-8.3-8.3-8.3s-8.3,3.7-8.3,8.3S428.2,496.6,432.8,496.6"/>
			<path fill="#FFFFFF" d="M476.9,496.6c4.6,0,8.3-3.7,8.3-8.3s-3.7-8.3-8.3-8.3s-8.3,3.7-8.3,8.3S472.3,496.6,476.9,496.6"/>
		</g>
	</g>
	<g display="inline">
		<g>
			<path fill="#FFFFFF" d="M240.7,544.6c0,5.1-2.6,6.5-6.6,6.5c-1.2,0-2.1-0.2-2.9-0.5l0.2-4.1c0.4,0.2,1.1,0.3,1.8,0.3
				c1.6,0,2.4-0.6,2.4-2.3v-9.8h5.1L240.7,544.6L240.7,544.6z"/>
			<path fill="#FFFFFF" d="M257.4,545.3c0,3.7-2.1,5.8-6.4,5.8c-4.3,0-6.5-2-6.5-5.8v-10.6h5.1v10.5c0,1,0.3,1.5,1.4,1.5
				c1.1,0,1.4-0.4,1.4-1.5v-10.5h5V545.3z"/>
			<path fill="#FFFFFF" d="M265.6,551.1c-1.7,0-3.5-0.4-4.8-1.1l0.6-4.1c1.4,0.6,2.7,1,4.1,1c1.1,0,1.4-0.3,1.4-0.8
				c0-1.5-6.2-1.1-6.2-6.4c0-2.9,1.8-5.3,6-5.3c1.5,0,3.2,0.3,4.4,0.8l-0.5,4.1c-1.3-0.3-2.6-0.5-3.5-0.5c-1.4,0-1.5,0.3-1.5,0.7
				c0,1.6,6.1,1.1,6.1,6.3C271.7,549,269.4,551.1,265.6,551.1z"/>
			<path fill="#FFFFFF" d="M282.6,539.1v11.7h-5.1v-11.7h-3.4l0.1-4.4h11.7l0.1,4.4H282.6z"/>
			<path fill="#FFFFFF" d="M302.5,550.8h-6.6v-16.1h6.7c3.7,0,5.6,1.7,5.6,4.2c0,1.6-0.8,2.7-2,3.3v0c1.6,0.6,2.4,1.8,2.4,3.7
				C308.6,548.9,306.7,550.8,302.5,550.8z M302.4,538.8h-1.7v2.1h1.7c0.7,0,0.9-0.2,0.9-1.1C303.3,539,303.1,538.8,302.4,538.8z
				 M302.5,544.5h-1.7v2.3h1.8c0.8,0,1-0.2,1-1.2C303.5,544.8,303.4,544.5,302.5,544.5z"/>
			<path fill="#FFFFFF" d="M322.2,546.5l-0.1,4.3h-10v-16.1h5.1v11.8H322.2z"/>
			<path fill="#FFFFFF" d="M334,548.4h-3.6l-0.5,2.5h-5.3l4.6-16.1h6.2l4.7,16.1h-5.6L334,548.4z M331.9,540.8l-0.7,3.4h2l-0.7-3.4
				l-0.3-1.7h-0.1L331.9,540.8z"/>
			<path fill="#FFFFFF" d="M342.6,550.8v-3.2l4.6-7.1l0.9-1.4l0,0h-5.4l0.1-4.4H354v3.5l-4.4,6.8l-0.9,1.4l0,0.1h5.3l0,4.3
				L342.6,550.8L342.6,550.8z"/>
			<path fill="#FFFFFF" d="M368.6,546.6l-0.1,4.2h-10.8v-16.1h10.6l0.1,4.3h-5.6v1.7h4.6v3.9h-4.6v2L368.6,546.6L368.6,546.6z"/>
		</g>
		<g>
			<path fill="#FFFFFF" d="M221,564.4l-1.4,2.5c-1.6-0.9-3.7-1.8-5.5-2.4l1.4-2.5C217.3,562.6,219.7,563.7,221,564.4z M229.6,561.8
				l2,2.3c-3,4.8-9.1,9.1-14.8,11l-1.6-2.9C220.9,570.8,226.7,566.6,229.6,561.8z M223.3,559.7l-1.4,2.5c-1.5-0.9-3.6-1.9-5.3-2.6
				l1.4-2.5C219.8,557.9,222,558.9,223.3,559.7z M227.7,557.6c1,0.8,1.6,1.4,2.4,2.4l-1.4,1.2c-0.8-1-1.4-1.6-2.4-2.4L227.7,557.6z
				 M230.2,555.7c1,0.8,1.6,1.4,2.4,2.4l-1.3,1.2c-0.8-1-1.4-1.6-2.4-2.4L230.2,555.7z"/>
			<path fill="#FFFFFF" d="M238.6,564.7l-0.8-3.7l2.7-0.6l0.8,3.7l6.3-1.2l2.2,1.3c-0.7,1.7-2.1,4.4-3.2,6.1l-2.3-1.2
				c0.8-1,1.6-2.5,1.9-3.2l-4.3,0.9l1.7,7.9l-2.7,0.6l-1.8-8l-3.8,0.8l-0.6-2.6L238.6,564.7z"/>
			<path fill="#FFFFFF" d="M271.5,573.3l-2.8,1.9c-1.4-1.9-3.4-4.1-5.3-5.9c-2.2,2.5-4.8,4.4-7.6,5.9l-2-2.5
				c5.7-2.5,9.9-7.5,11.2-11.6h-9.7v-2.8h11.6l2.1,1.2c-0.9,2.8-2.2,5.3-3.7,7.5C267.5,568.9,269.7,571.2,271.5,573.3z"/>
			<path fill="#FFFFFF" d="M289.6,567.4l-2,2.6c-2.1-1.6-4.8-3.2-7.4-4.5v9.7h-3.1v-18.8h3.1v5.8
				C283.3,563.6,286.9,565.5,289.6,567.4z"/>
			<path fill="#FFFFFF" d="M297.2,568c-1.2,0-2.3-1-2.3-2.3c0-1.3,1-2.3,2.3-2.3c1.3,0,2.3,1,2.3,2.3C299.5,567,298.5,568,297.2,568
				L297.2,568z"/>
			<path fill="#FFFFFF" d="M318.9,558.8l0.6,0.3c-0.5-0.8-1-1.5-1.7-2.2l1.4-1c0.8,0.9,1.3,1.5,2,2.7l-1.2,0.8l1.3,0.7
				c-1.6,7.2-5.2,12.2-11.8,15l-2.1-2.5c6.2-2.3,9.2-6.1,10.2-10.9h-12.3v-2.9L318.9,558.8L318.9,558.8z M323.9,557.7l-1.5,0.9
				c-0.6-1.1-1.1-1.8-1.9-2.6l1.4-1C322.8,555.9,323.3,556.6,323.9,557.7z"/>
			<path fill="#FFFFFF" d="M331.8,557.3V571c3.3-1,7.2-3.6,9.9-7.1l1.5,3c-2.9,3.4-7.3,6.4-12.3,8.1l-2.3-1.4v-16.2L331.8,557.3
				L331.8,557.3z"/>
			<path fill="#FFFFFF" d="M357.8,575.1h-3.2v-9.7c-2.2,1.4-4.5,2.6-6.5,3.4l-1.6-2.7c4.9-1.5,11.9-6.4,14.6-9.8l2.4,1.9
				c-1.4,1.6-3.4,3.4-5.7,5L357.8,575.1L357.8,575.1z"/>
			<path fill="#FFFFFF" d="M384.7,573.2l-2.8,1.9c-1.4-1.9-3.4-4.1-5.4-5.9c-2.2,2.5-4.8,4.4-7.6,5.9l-2-2.5
				c5.7-2.6,9.9-7.5,11.2-11.6h-9.7v-2.8H380l2.1,1.2c-0.9,2.8-2.2,5.3-3.7,7.5C380.7,568.9,382.9,571.2,384.7,573.2z M382.4,556.6
				c0.8,0.8,1.3,1.4,2,2.3l-1.2,1c-0.6-0.9-1.2-1.6-1.9-2.3L382.4,556.6z M384.5,555.1c0.9,0.8,1.3,1.4,2,2.3l-1.2,1
				c-0.6-0.9-1.1-1.6-2-2.3L384.5,555.1z"/>
		</g>
	</g>
</g>
<g id="SUSHI_SEQUENCER_LOGO">
	<g>
		<path fill="#FFFFFF" d="M219.3,384.2c-5.2,0-10.6-1.1-14.9-3.4l1.9-12.7c4.2,1.9,8.3,3.2,12.6,3.2c3.3,0,4.3-0.9,4.3-2.4
			c0-4.7-18.9-3.4-18.9-19.7c0-9,5.6-16.2,18.6-16.2c4.6,0,9.8,0.8,13.5,2.3l-1.7,12.6c-4-1.1-7.9-1.7-10.9-1.7
			c-4.2,0-4.7,0.9-4.7,2.2c0,4.9,18.8,3.5,18.8,19.5C238,377.9,230.9,384.2,219.3,384.2z"/>
		<path fill="#FFFFFF" d="M284.3,366.4c0,11.4-6.3,17.8-19.7,17.8c-13.3,0-19.9-6.3-19.9-17.8v-32.6h15.5v32.4c0,3.2,1,4.6,4.4,4.6
			c3.4,0,4.2-1.3,4.2-4.6v-32.4h15.5L284.3,366.4L284.3,366.4z"/>
		<path fill="#FFFFFF" d="M306.1,384.2c-5.2,0-10.6-1.1-14.9-3.4l1.9-12.7c4.2,1.9,8.3,3.2,12.6,3.2c3.3,0,4.3-0.9,4.3-2.4
			c0-4.7-18.9-3.4-18.9-19.7c0-9,5.6-16.2,18.6-16.2c4.6,0,9.8,0.8,13.5,2.3l-1.7,12.6c-4-1.1-7.9-1.7-10.9-1.7
			c-4.2,0-4.7,0.9-4.7,2.2c0,4.9,18.8,3.5,18.8,19.5C324.8,377.9,317.8,384.2,306.1,384.2z"/>
		<path fill="#FFFFFF" d="M356.1,383.3v-18.4h-8.7v18.4H332v-49.5h15.5v17.8h8.7v-17.8h15.5v49.5H356.1z"/>
		<path fill="#FFFFFF" d="M380.9,333.8h15.9v49.5h-15.9V333.8z"/>
		<path fill="#FFFFFF" d="M122,466.9c-5.2,0-10.6-1.1-14.9-3.4l1.9-12.7c4.2,1.9,8.3,3.2,12.6,3.2c3.3,0,4.3-0.9,4.3-2.4
			c0-4.7-18.9-3.4-18.9-19.7c0-9,5.6-16.2,18.6-16.2c4.6,0,9.8,0.8,13.5,2.3l-1.7,12.6c-4-1.1-7.9-1.7-10.9-1.7
			c-4.2,0-4.7,0.9-4.7,2.2c0,4.9,18.8,3.5,18.8,19.5C140.7,460.6,133.6,466.9,122,466.9z"/>
		<path fill="#FFFFFF" d="M181.5,453l-0.3,13h-33.3v-49.5h32.5l0.3,13.2h-17.3v5.2h14v12h-14v6.2H181.5z"/>
		<path fill="#FFFFFF" d="M220.1,464.8l7.5,6.4l-16.1,4.5l-4.4-8.9c-13.6-0.5-20.1-8.3-20.1-25.6c0-18,6.7-25.6,21.7-25.6
			c15,0,21.7,7.6,21.7,25.6C230.4,454.2,227.1,461.5,220.1,464.8z M208.6,429.1c-4.2,0-5.4,1.8-5.4,12.2c0,10.4,1.2,12.4,5.5,12.4
			c4.3,0,5.4-2,5.4-12.4C214.1,430.8,213.1,429.1,208.6,429.1z"/>
		<path fill="#FFFFFF" d="M277.3,449.1c0,11.4-6.3,17.8-19.7,17.8c-13.3,0-19.9-6.3-19.9-17.8v-32.6h15.5v32.4c0,3.2,1,4.6,4.4,4.6
			c3.4,0,4.2-1.3,4.2-4.6v-32.4h15.5V449.1L277.3,449.1z"/>
		<path fill="#FFFFFF" d="M319.2,453l-0.3,13h-33.3v-49.5h32.5l0.3,13.2h-17.3v5.2h14v12h-14v6.2H319.2z"/>
		<path fill="#FFFFFF" d="M355.8,466l-12.5-18.9l-2.8-4.6l-0.1,0.1l0.1,5.4v18h-13.6v-49.5h12.7l13.5,21.5l0.1-0.1l-0.1-5.3
			l0.1-16.2h13.6V466H355.8z"/>
		<path fill="#FFFFFF" d="M406.2,430.1c-2.2-0.7-5-1.1-7.9-1.1c-6.5,0-7.6,2.6-7.6,12.2c0,10,1.3,12.7,7.9,12.7
			c2.8,0,5.5-0.5,7.8-1.5l1.4,12.3c-3.2,1.4-7.7,2.2-11.5,2.2c-14.5,0-21.8-8.1-21.8-25.8c0-16.4,6.9-25.4,22.7-25.4
			c3.5,0,7.8,0.7,10.5,1.7L406.2,430.1z"/>
		<path fill="#FFFFFF" d="M448.6,453l-0.3,13h-33.3v-49.5h32.5l0.3,13.2h-17.3v5.2h14v12h-14v6.2H448.6z"/>
		<path fill="#FFFFFF" d="M488.5,446.3l8.9,19.7h-17.8l-5.5-16.5h-2.5V466h-15.5v-49.5h18c13.4,0,20.3,4.9,20.3,16.5
			C494.5,439.2,492.4,444.1,488.5,446.3z M474.5,428.9h-2.8v9.4h2.8c3,0,3.9-0.5,3.9-4.7C478.4,429.7,477.6,428.9,474.5,428.9z"/>
		<path fill="#FFFFFF" d="M220.8,401.2c0.2-0.4,0.4-0.7,0.6-1.1h-5.9v-2.3h6.9c0.1-0.3,0.2-0.6,0.3-1H218v-2.2h5.4
			c0.1-0.3,0.1-0.6,0.2-0.9h-6.8v-2.3h7.1c0.1-0.5,0.1-1.1,0.2-1.7l2.8,0.2c0,0.5-0.1,1.1-0.2,1.5h7.8v2.3h-8.2
			c0,0.3-0.1,0.6-0.2,0.9h7.1v2.2h-7.7c-0.1,0.3-0.2,0.7-0.3,1h10.3v2.3h-4.2v1.1h3.6v2.3h-3.6v4c0,1.4-0.4,2.2-1.7,2.4
			c-0.7,0.1-2.2,0.1-3.3,0.1l-0.6-2.6c0.8,0.1,1.8,0.1,2.2,0c0.3,0,0.4-0.2,0.4-0.5v-3.4h-6c-1.3,2-3,3.7-5,5.3l-2.3-1.8
			c1.5-1.1,2.7-2.2,3.8-3.5h-3v-2.3L220.8,401.2L220.8,401.2z M223.3,404c1.3,1.1,2.3,2.1,2.9,3.1l-2.4,1.5
			c-0.6-1.1-1.5-2.1-2.6-3.2L223.3,404z M228.6,401.2v-1.1h-4.1c-0.2,0.4-0.3,0.7-0.5,1.1H228.6z"/>
		<path fill="#FFFFFF" d="M254.8,409.9c-0.6,0.1-2.1,0.1-3.1,0l-0.6-2.8c0.8,0.1,1.9,0.1,2.3,0.1c0.5,0,0.6-0.3,0.6-0.7v-13.3h-14.8
			v-2.6H254h1.3h1.6V407C256.9,408.7,256.4,409.6,254.8,409.9z M240.1,397v-2.5h12.9v2.5H240.1z M241.4,407.5v-9.2h1h1.7h7.5v7.7
			h-7.5v1.5H241.4z M244.2,403.5h4.7v-2.7h-4.7V403.5z"/>
		<path fill="#FFFFFF" d="M267.9,398.6l-1.4,2.5c-1.6-0.9-3.7-1.8-5.5-2.4l1.4-2.5C264.1,396.7,266.6,397.8,267.9,398.6z
			 M276.4,395.9l2,2.3c-3,4.8-9.1,9.1-14.8,11l-1.6-2.9C267.7,404.9,273.5,400.7,276.4,395.9z M270.1,393.8l-1.4,2.5
			c-1.5-0.9-3.6-1.9-5.3-2.6l1.4-2.5C266.7,392,268.9,393.1,270.1,393.8z"/>
		<path fill="#FFFFFF" d="M300.3,398.4v3.1h-17.6v-3.1H300.3z"/>
		<path fill="#FFFFFF" d="M310.2,409.5l-2.4-2.2c4.9-2.5,6.5-5.8,6.8-9.7h-4.4c-1.1,2-2.5,3.9-4,5.3l-2.5-1.8
			c2.9-2.6,5.4-7.3,6.3-10.5l2.9,0.8c-0.3,1.1-0.7,2.3-1.2,3.4h10.9v2.8h-4.8C317.3,402.3,315.4,406.4,310.2,409.5z"/>
		<path fill="#FFFFFF" d="M333,395.8l-2,2.5c-1.2-1.1-3.6-2.8-5.5-3.8l1.9-2.5C329.3,393.2,331.7,394.7,333,395.8z M340.5,395.9
			l2,2.3c-3,4.8-9.1,9.1-14.8,11l-1.6-2.9C331.8,404.8,337.6,400.7,340.5,395.9z"/>
		<path fill="#FFFFFF" d="M349.4,394.4v-3.9h3v3.9h5.5v-3.9h3.1v3.9h3.6v2.8h-3.6v1.5c0,4.9-1.8,8.3-6.8,10.7l-2-2.4
			c4.7-2,5.8-4.6,5.8-8.2v-1.6h-5.5v5h-3v-5h-3.7v-2.8L349.4,394.4L349.4,394.4z"/>
		<path fill="#FFFFFF" d="M385.9,398.4v3.1h-17.6v-3.1H385.9z"/>
		<g>
			<path fill="#FFFFFF" d="M123.7,496.6c4.6,0,8.3-3.7,8.3-8.3s-3.7-8.3-8.3-8.3s-8.3,3.7-8.3,8.3S119.1,496.6,123.7,496.6"/>
			<path fill="#FFFFFF" d="M167.9,496.6c4.6,0,8.3-3.7,8.3-8.3s-3.7-8.3-8.3-8.3s-8.3,3.7-8.3,8.3S163.3,496.6,167.9,496.6"/>
			<path fill="#FFFFFF" d="M212,496.6c4.6,0,8.3-3.7,8.3-8.3s-3.7-8.3-8.3-8.3s-8.3,3.7-8.3,8.3S207.4,496.6,212,496.6"/>
			<path fill="#FFFFFF" d="M256.2,496.6c4.6,0,8.3-3.7,8.3-8.3s-3.7-8.3-8.3-8.3c-4.6,0-8.3,3.7-8.3,8.3S251.6,496.6,256.2,496.6"/>
			<path fill="#FFFFFF" d="M300.3,496.6c4.6,0,8.3-3.7,8.3-8.3s-3.7-8.3-8.3-8.3s-8.3,3.7-8.3,8.3S295.7,496.6,300.3,496.6"/>
			<path fill="#FFFFFF" d="M344.5,496.6c4.6,0,8.3-3.7,8.3-8.3s-3.7-8.3-8.3-8.3s-8.3,3.7-8.3,8.3S339.9,496.6,344.5,496.6"/>
			<path fill="#FFFFFF" d="M388.6,496.6c4.6,0,8.3-3.7,8.3-8.3s-3.7-8.3-8.3-8.3s-8.3,3.7-8.3,8.3S384,496.6,388.6,496.6"/>
			<path fill="#FFFFFF" d="M389.1,320.6c4.6,0,8.3-3.7,8.3-8.3s-3.7-8.3-8.3-8.3s-8.3,3.7-8.3,8.3S384.5,320.6,389.1,320.6"/>
			<path fill="#FFFFFF" d="M432.8,496.6c4.6,0,8.3-3.7,8.3-8.3s-3.7-8.3-8.3-8.3s-8.3,3.7-8.3,8.3S428.2,496.6,432.8,496.6"/>
			<path fill="#FFFFFF" d="M476.9,496.6c4.6,0,8.3-3.7,8.3-8.3s-3.7-8.3-8.3-8.3s-8.3,3.7-8.3,8.3S472.3,496.6,476.9,496.6"/>
		</g>
	</g>
</g>
<g id="RBMA_PRESENTS" display="none">
	<g display="inline">
		<path fill="#FFFFFF" d="M268.3,290.4h-0.5v2.9h-3.2v-10.1h3.7c3,0,4.2,1.2,4.2,3.7C272.5,289.1,271.3,290.4,268.3,290.4z
			 M268.3,285.8h-0.5v2.2h0.5c0.7,0,0.9-0.1,0.9-1.1C269.2,285.9,269,285.8,268.3,285.8z"/>
		<path fill="#FFFFFF" d="M281.2,289.3l1.8,4h-3.6l-1.1-3.4h-0.5v3.4h-3.2v-10.1h3.7c2.7,0,4.1,1,4.1,3.4
			C282.4,287.8,282,288.8,281.2,289.3z M278.4,285.7h-0.6v1.9h0.6c0.6,0,0.8-0.1,0.8-1C279.2,285.9,279,285.7,278.4,285.7z"/>
		<path fill="#FFFFFF" d="M291.7,290.7l-0.1,2.7h-6.8v-10.1h6.6l0.1,2.7H288v1.1h2.9v2.4H288v1.3L291.7,290.7L291.7,290.7z"/>
		<path fill="#FFFFFF" d="M296.8,293.5c-1.1,0-2.2-0.2-3-0.7l0.4-2.6c0.9,0.4,1.7,0.6,2.6,0.6c0.7,0,0.9-0.2,0.9-0.5
			c0-1-3.9-0.7-3.9-4c0-1.8,1.1-3.3,3.8-3.3c0.9,0,2,0.2,2.8,0.5l-0.3,2.6c-0.8-0.2-1.6-0.3-2.2-0.3c-0.9,0-1,0.2-1,0.5
			c0,1,3.8,0.7,3.8,4C300.6,292.2,299.2,293.5,296.8,293.5z"/>
		<path fill="#FFFFFF" d="M309.6,290.7l-0.1,2.7h-6.8v-10.1h6.6l0.1,2.7h-3.5v1.1h2.9v2.4h-2.9v1.3L309.6,290.7L309.6,290.7z"/>
		<path fill="#FFFFFF" d="M317.8,293.3l-2.6-3.9l-0.6-0.9l0,0l0,1.1v3.7h-2.8v-10.1h2.6l2.8,4.4l0,0l0-1.1l0-3.3h2.8v10.1
			L317.8,293.3L317.8,293.3z"/>
		<path fill="#FFFFFF" d="M327.4,286v7.4h-3.2V286h-2.1l0.1-2.8h7.4l0.1,2.8H327.4z"/>
		<path fill="#FFFFFF" d="M334.4,293.5c-1.1,0-2.2-0.2-3-0.7l0.4-2.6c0.9,0.4,1.7,0.6,2.6,0.6c0.7,0,0.9-0.2,0.9-0.5
			c0-1-3.9-0.7-3.9-4c0-1.8,1.1-3.3,3.8-3.3c0.9,0,2,0.2,2.8,0.5l-0.3,2.6c-0.8-0.2-1.6-0.3-2.2-0.3c-0.9,0-1,0.2-1,0.5
			c0,1,3.8,0.7,3.8,4C338.3,292.2,336.8,293.5,334.4,293.5z"/>
		<g>
			<path fill="#FFFFFF" d="M396.7,259.8h-3.9l-0.8,4.6l-0.2,1.4h-0.1l-1.6-5.9h-4.1l4,9.9l0,0.1c-0.2,0.5-0.7,0.7-1.3,0.7
				c-0.3,0-0.6-0.1-0.9-0.2l-0.3,2.4c0.6,0.2,1.2,0.3,1.9,0.3c2.1,0,3.5-1,4.2-3.3L396.7,259.8z M386.1,263.6c0-2.6-1.4-4-3.4-4
				c-1.1,0-2,0.4-2.7,1.2c-0.6-0.8-1.4-1.2-2.5-1.2c-0.9,0-1.7,0.4-2.4,0.9l-0.5-0.8l-2.7,0.2v10.3h3.7v-7.1
				c0.2-0.2,0.4-0.4,0.8-0.4c0.6,0,0.8,0.3,0.8,1v6.6h3.7v-6.6c0-0.7,0.2-1,0.8-1c0.5,0,0.8,0.3,0.8,1v6.6h3.7V263.6z M371,266.1
				c0.1-0.5,0.1-1.1,0.1-1.7c0-3.3-1.5-4.8-4.3-4.8c-3.2,0-4.6,1.9-4.6,5.4c0,3.5,1.7,5.4,5.3,5.4c1.3,0,2.6-0.3,3.4-0.6l-0.4-2.8
				c-0.8,0.2-1.7,0.4-2.5,0.4c-1.2,0-1.8-0.3-2-1.2C366,266.1,371,266.1,371,266.1z M367.7,263.8h-1.8c0.1-1.1,0.3-1.3,0.9-1.3
				C367.4,262.5,367.7,262.8,367.7,263.8 M358.4,270.2h2.9V257l-3.7,0.2v1.7l0,1.4l0,0c-0.6-0.4-1.2-0.7-1.9-0.7
				c-2.3,0-3.6,1.9-3.6,5.3c0,3.8,1.4,5.5,3.7,5.5c1,0,1.8-0.3,2.3-0.9L358.4,270.2z M357.6,267c-0.1,0.3-0.4,0.5-0.8,0.5
				c-0.8,0-0.9-0.4-0.9-2.5c0-1.9,0.2-2.3,0.9-2.3c0.4,0,0.6,0.2,0.8,0.4V267z M352.7,244.3l0-0.3c-0.5-0.4-0.2-1.2-0.4-1.7
				c-0.1-0.2-0.3-0.4-0.5-0.6c-0.4-0.2-0.6,0.3-0.8,0.5c-0.1,0.6,0.2,1.1,0.3,1.7c0.1,0.3,0,0.6,0.2,0.8L352.7,244.3z M350.8,241.1
				c0-0.2,0.1-0.4,0-0.5l-1.3-1.1l-0.3,0c-0.2,0.2-0.6,0.3-0.5,0.6c0.4,0.5,0.7,1.4,1.4,1.5C350.4,241.4,350.7,241.4,350.8,241.1
				 M324.1,239.9c0.2-0.5,0.4-1,0.5-1.5c-0.1-0.1-0.2-0.1-0.3-0.1c-0.2,0-0.4,0-0.6,0l0,0c-0.3-0.1-0.6,0-0.9-0.1
				c-0.3,0.4-0.5,0.8-0.4,1.3c0.2,0.3,0.5,0.3,0.8,0.5C323.5,240,323.9,240.1,324.1,239.9 M277.3,238.1c-0.1,0.1-0.1,0.1-0.1,0.2
				c0.7,0.4,0.8,1.1,1.2,1.7c0.6,0.3,1.1-0.2,1.6-0.5c0.1-0.2-0.1-0.3-0.1-0.4c-0.2-0.4-0.3-0.8-0.5-1.1c-0.5,0-1,0-1.5,0.1l0,0
				C277.6,238.2,277.4,238.1,277.3,238.1 M350.6,218.1c-0.1-0.1,0-0.3-0.2-0.2c-0.3,0.4-0.7,0.6-1.1,0.7c-1.5,0.2-3,0.6-4.1,1.8
				c-0.4,0.5-0.4,1.3-0.1,1.9c0.9,1.8,3.2,2.9,3.7,4.9c0.3,0.9-0.1,1.6-0.8,2.2c-1,0.6-2.4,0.5-3.4,0c-2.4-1.2-4.4-3.4-7.1-4
				c-1.5-0.2-2.8-0.9-4-2c-1-0.8-2.3-0.9-3.4-1.3c-1.1-1.1-2.3-1.8-3.6-2.3c-0.7-0.3-1.7-0.2-2.3-0.8c-0.4-0.6-1.1-1.2-1.7-1.6
				c-0.9-0.5-2.3-1-3.3-0.4c-0.1,0.1-0.2,0.1-0.2,0.2c-2.1-3.5-5.1-6.3-8.7-8.1v-9l-13.7,2.9v4.5c-5.7,1.3-10.4,4.8-13.4,9.6
				c-0.7,0-1.4,0.1-2,0.4c-1.6,1.4-3.6,1.9-5.5,2.7c-1,0.5-1.7,1.7-2.8,2.2c-1.4,0-2.7,0.3-3.7,1.3c-0.9,1-1.9,1.8-3.1,2
				c-2.2,0.1-4,1-5.5,2.5c-1.5,1-3,2.3-5,1.9c-0.8-0.2-1.5-0.9-1.7-1.6c-0.5-1.6,0.5-2.9,1.7-3.9c1.1-1,2.7-2,2.3-3.7
				c-0.3-1.4-1.9-1.7-3-2c-1.2,0-2.1-0.7-3.1-1.3c-0.2,0.4-0.3,0.8-0.3,1.2c0.1,1.1,1,2.3,2.1,2.6c0.7,0.4,1.7-0.2,2.3,0.3
				c0.2,0.2,0.1,0.4,0.1,0.6c-1.3,1.3-3.3,2.6-3.6,4.5c-0.3,1.5,0.3,2.9,1.4,3.9c1.3,1,3.3,1.2,4.8,0.5c0.2-0.1,0.4-0.1,0.5,0.1
				l0.2,2c0.1,1,0.8,1.7,0.7,2.6c-0.5,0.5-1.1,0.8-1.7,1.1l-1.5,0.2c-0.4,0.3-0.6,0.8-0.7,1.3c-0.1,1.1-1.3,1.7-2.1,2.3
				c-0.3,0.5-0.8,1.3-1.5,1.3c-0.5,0.6-0.5,1.4-0.7,2.1c0.7,0.1,1.3,0.3,2.1,0.2c0.9-0.2,1-1.2,1.5-1.8c0.6-0.6,1.4,0.1,2-0.2
				c0.8-0.4,1.6-0.9,2.3-1.7c1.6-0.8,3.4,0.5,4.9-0.4c0.7-0.8,1.8-0.6,2.3-1.6c0.3-0.8,0.8-1.4,0.9-2.2c-0.2-0.2-0.3-0.3-0.5-0.4
				c-0.2,0.3-0.4,0.7-0.6,1c-1,1.6-2.7,2.1-4.4,2.2c-2.2-0.1-4.3,0.4-5.7,2.2h-0.2c-0.1,0-0.2-0.1-0.2-0.2c0.8-1.4,2.2-2.3,3.6-2.5
				c2.3-0.2,4.9-0.3,6.2-2.6c0.8-1.2,0.6-2.9,0.9-4.3c0-0.2,0.1-0.3,0.3-0.3c0.1,0,0.2,0.1,0.3,0.2c-0.2,1.2-0.2,2.4,0.2,3.5
				c0.7,1,2.1,0.4,3.1,0.3c1.8-0.4,3.4,0.6,5.3,0.2c0.2-0.1,0.4-0.2,0.3-0.5c-0.1-0.4-0.3-0.7-0.2-1.2c0.1-0.1,0.2-0.2,0.3-0.2
				c0.3,0.2,0.2,0.5,0.3,0.8c0.7,2.1,3.9,2,4.1,4.5c-0.3,0.9-1.3,1.3-2.1,1.5c-1.5,0.3-1.8-1.5-2.7-2.3c-0.7-0.5-1.7-0.1-2.5,0
				c-0.2,0.1-0.3,0.3-0.2,0.5l0.9,1.5c0.3,0.7,1.2-0.1,1.6,0.6c0.3,0.8,1.1,1.7,2,1.7c1.4-0.3,2.6-0.9,3.9-1.4
				c0.5-0.6,1.4-0.2,2-0.5c0.2-0.1,0.3-0.2,0.4-0.4c3.8,5,9.9,8.3,16.6,8.3c7,0,13.2-3.5,17-8.7c0,0.1,0.1,0.2,0.1,0.3
				c0.2,0.8,1,0.3,1.5,0.5c0.7,1,1.9,1,2.9,1.4c0.7,0.2,1.4,0.6,2.2,0.5c0.8-0.2,1.2-1,1.3-1.8c0.2-0.4,0.9,0,1.1-0.4
				c0.3-0.5,0.8-1,1-1.5c-0.3-0.5-1-0.2-1.5-0.3c-0.1,0.1-0.3,0-0.4,0l0,0c-1.1-0.1-1.1,1.2-1.7,1.8c-0.2,0.2-0.5,0.2-0.8,0.3
				c-0.9-0.3-2.3-0.4-2.3-1.7c0.3-0.7,1.1-1.4,1.8-1.9c0.7-0.1,1.4-0.5,1.9-1.2c0.4-0.3,0.2-1.1,0.9-1.1c0.3,0.5,0,1.1-0.2,1.6
				c1.3,0.1,2.5-0.1,3.7-0.3c1.8-0.4,3.5,0.5,5.2-0.1c0.9-0.4,0.9-1.4,1-2.3l0,0l0,0c0-0.5-0.1-0.9-0.2-1.3c0-0.2-0.1-0.5,0-0.6
				c0.1-0.1,0.2-0.1,0.3,0c0.7,1.6,0.4,3.6,1.3,5.2c0.6,1.3,1.9,2.2,3.3,2.3c0.1,0,0.1-0.1,0.2,0c2.3-0.5,4.3,0.5,5.6,2.2v0.1
				c-0.1,0.1-0.2,0.2-0.3,0.2c-0.3-0.3-0.6-0.5-0.9-0.8c-1.3-1.2-3.1-1.3-4.8-1.1c-1.8,0.1-3.5-1.5-4.1-3.1
				c-0.2-0.2-0.1-0.5-0.4-0.5c-0.1,0.1-0.1,0.2-0.1,0.2c0.1,1.2,0.3,2.3,1.1,3.2c0.8,0.4,1.4,1.2,2.3,1.3c1.2-0.3,2.7-0.2,3.8,0.3
				c0.9,0.3,1.6,1.1,2.4,1.6c0.4,0.2,1,0.1,1.4-0.2c1-0.3,1.2,0.9,1.9,1.4c0.6,0.4,1.4,0.3,2.2,0.3l0.1-0.1c-0.1-0.7-0.2-1.4-0.5-2
				c-0.9,0-1.4-1-1.9-1.6c-0.4-0.4-0.9-0.7-1.1-1.2c-0.3-0.8-0.2-1.9-0.9-2.4c-0.7-0.1-1.5,0-2.1-0.5c-0.3-0.3-0.4-0.7-0.3-1.1
				c0.4-1,0.7-2.1,0.5-3.2c0-0.4-0.4-0.8,0-1.1c1.3,0.4,3.1,0.5,4.3-0.3c1.1-0.7,1.9-1.9,1.8-3.3c-0.3-1.9-1.6-3.4-3.1-4.8
				c-0.2-0.2-0.4-0.3-0.3-0.6c0-0.1,0.1-0.3,0.2-0.4c0.8-0.1,1.6-0.2,2.3-0.5C350.5,220.8,350.8,219.4,350.6,218.1 M284.1,222.7
				c0.4,0.3,0.5,0.7,0.7,1.1c0.2,0.7,0.3,1.6,0.1,2.3l-0.1,0.1c-0.1-0.2-0.1-0.4-0.2-0.6c-0.2-0.9-0.5-1.7-1.1-2.5
				c0-0.2,0-0.3,0.1-0.4C283.8,222.7,284,222.6,284.1,222.7 M308.9,208.6c-2.4-1-5.1-1.6-7.9-1.6c-1.1,0-2.1,0.1-3.2,0.2l0-1.1
				l11.1-2.2L308.9,208.6z M319.5,222.3c-0.9,0.7-1.8,1.7-2.3,2.6h-0.1c-0.1-1.6,1.1-3,2.5-3.9c0.2,0,0.5,0,0.6,0.2
				C320.3,221.8,319.8,222,319.5,222.3 M321.1,235.6l-1.5,2l-0.2,0.5c-0.2,0.4-0.1,1.1-0.1,1.5c-0.4-0.2-0.4-0.7-0.5-1
				c-0.3-1.5,1.1-2.3,1.6-3.4c-0.3-0.1-0.6-0.3-1-0.4c-0.8,0.9-1.2,2-1.8,3c0,0.3,0,0.7,0.1,1c-3.5,5.4-9.7,9-16.6,9
				c-6.6,0-12.5-3.2-16.1-8.2c0.3-0.5,0.5-0.9,0.4-1.5c0-0.8-0.8-1.3-1-2c-0.2-0.4-0.3-0.7-0.5-1.1c-0.4-0.2-0.9-0.3-1.3,0
				c0.5,1,1.1,2,1.6,3.1c0.1,0.9-0.4,1.6-0.9,2.2c-0.1,0.1-0.2,0-0.3-0.1c0.2-0.6,0.4-1.3,0.4-1.9c-0.6-1.1-1.4-2.2-2-3.4
				c0-0.2,0.1-0.4,0.3-0.5c0.6-0.3,1.4-0.2,1.8-0.7c0.6-1,0.9-2,1.1-3.1c0.1-0.1,0.1-0.2,0.2-0.1c0.1,0.1,0.1,0.2,0.2,0.3
				c0.2,1.3-0.1,2.4-0.7,3.4c-0.1,0.1,0,0.2,0.1,0.3c0.4,0.2,0.9,0,1.3-0.1c0.8-0.6,1.9-0.3,2.8-0.6c0,0.1,0.2,0.1,0.1,0.2
				c-0.4,0.5-0.6,1.1-0.8,1.7c-0.5,0.6-1.3,1.1-1.3,1.9c0.1,0.3,0.4,0,0.6,0c0.1,0,0.2,0.2,0.2,0.3c-0.2,0.4-0.6,0.7-0.6,1.1
				c0.2,0.5,0,1.3,0.7,1.5c1.6,0.3,2.7-1,4.3-0.9c1.2,0.3,2.2-0.2,3-1.1c0.2-0.1,0.4,0.1,0.6,0.1c0.9,0.9,1.8,1.4,3,1.6
				c0.4,0,0.8,0.1,1.1,0c0.1-0.1,0-0.2,0-0.3c-0.8-0.3-1.7-0.8-2.3-1.6c-0.4-1-0.8-1.9-1.5-2.8c-0.1-0.1-0.1-0.2,0-0.2
				c0.8,0.2,1.5,1,1.9,1.7c0.7,1,1.6,1.9,2.9,1.7c0.2,0,0.4,0,0.3-0.3c-1.9-0.6-2.2-2.7-3.7-3.8c-0.7-1.8-1.4-3.7-1.7-5.7
				c-0.1-1.8-1.1-3.2-2.2-4.6c-1.8-2.7-4.6-4.2-6.9-6.2l-0.8-0.4c-0.3-0.2-0.6-0.3-1-0.4c2.7-4.3,7.1-7.5,12.3-8.7v6.7
				c-0.3-0.2-0.5-0.2-0.7-0.2c-2.3,0-4.4,2.2-4.4,3.6c0,1,0.8,1.6,1.8,1.6c1.1,0,2.5-0.6,3.5-1.7c0.8-0.9,1.1-1.7,1.1-3.2l0-7
				c1-0.2,2.1-0.3,3.2-0.3c2.8,0,5.5,0.6,7.9,1.7l0,2.6c-0.3-0.2-0.5-0.2-0.7-0.2c-2.3,0-4.4,2.2-4.4,3.6c0,1,0.8,1.6,1.8,1.6
				c1.1,0,2.5-0.6,3.5-1.7c0.8-0.9,1.1-1.7,1.1-3.2v-2.1c3.3,1.7,6,4.4,7.9,7.6c-2.6,2-5.3,3.5-7.7,5.7c-1.6,1.5-2.5,3.3-3,5.3
				c-1.2,3.4-1.5,7.6-5.1,9.7c0,0.1,0,0.2,0.1,0.3c0.8,0.2,1.7,0,2.3-0.7c0.6-0.9,1.2-1.7,2-2.5h0.2c0.3,0.1,0.1,0.3,0.1,0.5
				c-1.1,1-1.1,2.6-2.6,3.4c-0.2,0.1-0.6,0.4-0.3,0.6c1.6,0.2,2.8-1,3.9-2l0.2,0c0.6,0.4,1.1,1.3,2,1.1c1.7-0.5,2.8,0.6,4.2,1
				c0.4,0.2,0.7-0.1,1-0.4c0.6-0.4,0.3-1.2,0.3-1.7l0.1-0.1c0.3,0,0.6,0.2,0.8-0.1c0.1-0.8-0.6-1.3-0.9-1.9c-0.2-1.2-1.6-2-1.8-3.2
				c0.1-0.1,0.1-0.1,0.2-0.2c0.6,0.3,1.1,0.9,1.6,1.2c0.9,0.4,1.9,0.4,3,0.5c0.2,0,0.2-0.2,0.1-0.3c-0.5-1.2-1-2.5-0.9-3.9
				c0.1-0.4-0.1-1.1,0.4-1.3c0.1,0,0.2,0.2,0.2,0.3c0.1,1.3,0.1,2.7,0.7,3.8c0.3,0.8,1.2,1.3,1.8,1.7
				C321.2,234.9,321.3,235.3,321.1,235.6 M310.3,231.9c-0.7,0.4-0.9,1.1-1,1.7c0,0.1-0.2,0.1-0.3,0.1c-0.3-0.3,0-0.8,0-1.1
				c0.3-1.2,1.6-1.8,2.3-2.8c0.7,0,0.7,0.7,1.1,1.1c0.1,0.3,0.5,0.7,0.1,1c-0.2,0-0.4-0.2-0.5-0.3c-0.1-0.1-0.1-0.3-0.3-0.3
				C311.1,231.1,310.7,231.5,310.3,231.9 M310.9,236.6c0.4,0,0.7,0.2,1,0.5c0.1,0.2,0.3,0.5,0.1,0.8c-0.3,0.1-0.6,0-0.8,0
				c-0.3-0.2-0.3-0.5-0.4-0.8C310.8,236.8,310.7,236.6,310.9,236.6 M292.5,231c-0.2-0.1-0.4-0.1-0.6,0.1l-0.6,0.7
				c-0.2-0.1-0.1-0.4-0.1-0.6c0.2-0.5,0.5-1.1,0.7-1.6c0.1-0.2,0.3-0.1,0.5-0.1c0.6,0.4,0.7,1.1,1.3,1.5c0.5,0.6,0.7,1.5,0.3,2.3
				c-0.1,0-0.3,0.2-0.3,0C293.8,232.3,293.2,231.5,292.5,231 M292.2,237.6c-0.4,0.1-0.8,0.3-1.3,0.2c-0.1-0.3,0.2-0.5,0.2-0.7
				c0.3-0.3,0.6-0.7,1.1-0.5l0.1,0.3C292.4,237.2,292.3,237.4,292.2,237.6 M250.7,244.5c0.2-0.7,0.4-1.5,0.6-2.3l-0.7-0.7
				c-0.1,0-0.2,0.1-0.3,0.1c-0.5,0.3-0.5,0.9-0.5,1.5c0,0.4-0.4,0.6-0.4,0.9C249.9,244.3,250.3,244.5,250.7,244.5 M249.7,260.9
				c0-2-1.5-3.3-4.4-3.3h-5.3v12.7h5.2c3.3,0,4.8-1.5,4.8-3.8c0-1.5-0.7-2.5-1.9-2.9v0C249.1,263,249.7,262.1,249.7,260.9
				 M245.9,261.5c0,0.7-0.1,0.8-0.7,0.8h-1.3v-1.6h1.3C245.7,260.7,245.9,260.9,245.9,261.5 M246.1,266.1c0,0.8-0.1,0.9-0.8,0.9
				h-1.4v-1.8h1.4C245.9,265.2,246.1,265.5,246.1,266.1 M232.1,270.2h2.9V257l-3.7,0.2v1.7l0,1.4l0,0c-0.6-0.4-1.2-0.7-1.9-0.7
				c-2.3,0-3.6,1.9-3.6,5.3c0,3.8,1.4,5.5,3.7,5.5c1,0,1.8-0.3,2.3-0.9L232.1,270.2z M231.3,267c-0.1,0.3-0.4,0.5-0.8,0.5
				c-0.8,0-0.9-0.4-0.9-2.5c0-1.9,0.2-2.3,0.9-2.3c0.4,0,0.6,0.2,0.8,0.4V267z M225,266.1c0.1-0.5,0.1-1.1,0.1-1.7
				c0-3.3-1.5-4.8-4.3-4.8c-3.2,0-4.6,1.9-4.6,5.4c0,3.5,1.7,5.4,5.3,5.4c1.3,0,2.6-0.3,3.4-0.6l-0.4-2.8c-0.8,0.2-1.7,0.4-2.5,0.4
				c-1.2,0-1.8-0.3-2-1.2C220,266.1,225,266.1,225,266.1z M221.7,263.8h-1.8c0.1-1.1,0.3-1.3,0.9-1.3
				C221.5,262.5,221.7,262.8,221.7,263.8 M215.6,261.8c0-3-1.8-4.2-5.2-4.2h-4.6v12.7h4V266h0.6l1.4,4.2h4.5l-2.3-5
				C215.1,264.6,215.6,263.3,215.6,261.8 M211.5,261.9c0,1.1-0.2,1.2-1,1.2h-0.7v-2.4h0.7C211.3,260.7,211.5,260.9,211.5,261.9
				 M251.5,241.2c0.1,0.1,0.2,0.3,0.4,0.3c0.4,0.2,0.7-0.1,1-0.4c0.2-0.4,0.6-0.7,0.7-1.2c-0.1-0.3-0.5-0.6-0.8-0.4
				C252.4,240.2,251.1,240.2,251.5,241.2 M254.6,259.8H251v6.6c0,2.6,1.5,4,4.5,4c3,0,4.5-1.3,4.5-4v-6.6h-3.6v6.6
				c0,0.7-0.2,0.9-0.8,0.9c-0.6,0-0.8-0.3-0.8-0.9V259.8z M264.7,257l-3.7,0.2v13h3.7V257z M269.7,257l-3.7,0.2v13h3.7V257z
				 M279.1,257.5h-4.3v12.7h3.5V266l0-1.4l0,0l0.4,1.3l1.4,4.3h2.5l1.4-4.2l0.4-1.3l0.1,0l0,1.4v4.2h3.6v-12.7h-4.3l-1.9,5.4
				l-0.4,1.3h-0.1l-0.4-1.3L279.1,257.5z M293,259.8h-3.7v6.6c0,2.6,1.5,4,4.5,4s4.5-1.3,4.5-4v-6.6h-3.6v6.6c0,0.7-0.2,0.9-0.8,0.9
				c-0.6,0-0.8-0.3-0.8-0.9V259.8L293,259.8z M303.2,267.1c0,0.3-0.3,0.4-0.8,0.4c-0.7,0-1.9-0.2-2.7-0.6l-0.3,2.9
				c0.9,0.4,1.9,0.6,3.1,0.6c2.9,0,4.1-1.4,4.1-3.6c0-3.5-3.9-2.8-3.9-3.8c0-0.2,0.2-0.4,0.6-0.4c0.7,0,1.8,0.2,2.6,0.4l0.3-2.9
				c-0.8-0.3-1.8-0.5-2.9-0.5c-2.8,0-4.1,1.6-4.1,3.5C299.2,266.8,303.2,266.1,303.2,267.1 M307.5,257.9c0,1,0.6,1.4,1.9,1.4
				c1.4,0,1.9-0.5,1.9-1.4c0-0.9-0.6-1.4-1.9-1.4C308.1,256.6,307.5,257,307.5,257.9 M311.3,259.7l-3.7,0.2v10.3h3.7V259.7z
				 M312.3,265.1c0,3.5,1.7,5.3,4.8,5.3c1,0,1.8-0.2,2.4-0.5l-0.2-2.7c-0.4,0.1-0.9,0.2-1.4,0.2c-1.1,0-1.8-0.7-1.8-2.3
				c0-1.8,0.4-2.3,1.9-2.3c0.4,0,0.8,0.1,1.2,0.2l0.2-3c-0.6-0.2-1.5-0.4-2.2-0.4C313.8,259.6,312.3,261.7,312.3,265.1 M326.3,257.5
				l-3.6,12.7h4.2l0.4-1.9h2.8l0.4,1.9h4.4l-3.7-12.7H326.3z M327.9,265.1l0.5-2.7l0.3-1.4h0.1l0.2,1.4l0.5,2.7
				C329.5,265.1,327.9,265.1,327.9,265.1z M334.8,265.1c0,3.5,1.7,5.3,4.8,5.3c1,0,1.8-0.2,2.4-0.5l-0.2-2.7
				c-0.4,0.1-0.9,0.2-1.4,0.2c-1.1,0-1.8-0.7-1.8-2.3c0-1.8,0.4-2.3,1.9-2.3c0.4,0,0.8,0.1,1.2,0.2l0.2-3c-0.6-0.2-1.5-0.4-2.2-0.4
				C336.3,259.6,334.8,261.7,334.8,265.1 M342.6,266.8c0,2.3,1.2,3.5,3.1,3.5c1,0,1.8-0.3,2.4-0.9l0.2,0.7h2.8V264
				c0-3-1.1-4.4-4.3-4.4c-1.3,0-2.6,0.2-3.6,0.6l0.3,2.8c0.9-0.3,1.5-0.5,2.6-0.5c1.1,0,1.4,0.4,1.4,0.9v0.2
				c-0.4-0.1-0.8-0.2-1.4-0.2C344,263.5,342.6,264.9,342.6,266.8 M346,266.8c0-0.6,0.3-0.9,0.8-0.9c0.3,0,0.5,0,0.7,0.1v0.9
				c0,0.5-0.4,0.7-0.8,0.7C346.3,267.6,346,267.3,346,266.8"/>
		</g>
	</g>
</g>
</svg>
