<?xml version="1.0" encoding="utf-8"?>
<!-- Generator: Adobe Illustrator 18.1.0, SVG Export Plug-In . SVG Version: 6.00 Build 0)  -->
<svg version="1.1" id="Layer_1" xmlns="http://www.w3.org/2000/svg" xmlns:xlink="http://www.w3.org/1999/xlink" x="0px" y="0px"
	 viewBox="0 0 246 81.4" enable-background="new 0 0 246 81.4" xml:space="preserve">
<g>
	<path fill="#FFFFFF" d="M28,23.3v16.4h-7.1V23.3h-4.7l0.1-6.1h16.4l0.1,6.1H28z"/>
	<path fill="#FFFFFF" d="M46.1,40c-6.7,0-9.8-3.5-9.8-11.6c0-8.2,3-11.6,9.8-11.6c6.8,0,9.8,3.5,9.8,11.6C55.9,36.8,52.9,40,46.1,40
		z M46,22.9c-1.9,0-2.4,0.8-2.4,5.5c0,4.7,0.5,5.6,2.5,5.6c2,0,2.4-0.9,2.4-5.6C48.5,23.6,48,22.9,46,22.9z"/>
	<path fill="#FFFFFF" d="M72.2,39.6l-3.4-8.7h-0.8v8.7h-7V17.1h7v8.4h1l3.4-8.4h7.8l-4.9,10.8l5.1,11.7H72.2z"/>
	<path fill="#FFFFFF" d="M84.9,17.1h7.2v22.5h-7.2V17.1z"/>
	<path fill="#FFFFFF" d="M105.5,17.1l3.3,9.7l0.8,2.3h0.1l0.7-2.3l3.4-9.7h7.7v22.5h-6.4v-7.4l0.1-2.4l-0.1,0l-0.8,2.3l-2.5,7.5
		h-4.5l-2.5-7.6l-0.7-2.3l-0.1,0l0,2.4v7.4h-6.1V17.1H105.5z"/>
	<path fill="#FFFFFF" d="M136.3,40c-6.7,0-9.8-3.5-9.8-11.6c0-8.2,3-11.6,9.8-11.6c6.8,0,9.8,3.5,9.8,11.6
		C146.2,36.8,143.1,40,136.3,40z M136.3,22.9c-1.9,0-2.4,0.8-2.4,5.5c0,4.7,0.5,5.6,2.5,5.6c1.9,0,2.4-0.9,2.4-5.6
		C138.8,23.6,138.3,22.9,136.3,22.9z"/>
	<path fill="#FFFFFF" d="M164.4,39.6l-5.7-8.6l-1.3-2.1l-0.1,0l0,2.4v8.2h-6.2V17.1h5.8l6.2,9.8l0.1,0l-0.1-2.4l0-7.3h6.2v22.5
		H164.4z"/>
	<path fill="#FFFFFF" d="M181.2,40c-2.4,0-4.8-0.5-6.7-1.5l0.9-5.8c1.9,0.9,3.8,1.4,5.7,1.4c1.5,0,2-0.4,2-1.1
		c0-2.1-8.6-1.6-8.6-8.9c0-4.1,2.5-7.3,8.4-7.3c2.1,0,4.4,0.4,6.1,1l-0.8,5.7c-1.8-0.5-3.6-0.8-4.9-0.8c-1.9,0-2.1,0.4-2.1,1
		c0,2.2,8.5,1.6,8.5,8.9C189.6,37.2,186.4,40,181.2,40z"/>
	<path fill="#FFFFFF" d="M204.9,23.3v16.4h-7.1V23.3H193l0.1-6.1h16.4l0.2,6.1H204.9z"/>
	<path fill="#FFFFFF" d="M223.8,36.2h-5l-0.7,3.4h-7.4l6.4-22.5h8.6l6.5,22.5h-7.8L223.8,36.2z M220.8,25.7l-1,4.8h2.8l-0.9-4.8
		l-0.4-2.4h-0.1L220.8,25.7z"/>
</g>
<g>
	<path fill="#FFFFFF" d="M71.5,59.5l-2.3,3c-2.4-1.9-5.6-3.7-8.6-5.2v11.2h-3.6V46.7h3.6v6.8C64.2,55.1,68.3,57.3,71.5,59.5z"/>
	<path fill="#FFFFFF" d="M84.3,58.2l-0.6-4l-7.2,0.9L76,51.9l7.3-0.9l-0.6-4.1l3.6-0.4l0.6,4l6.7-0.8l0.5,3.2l-6.7,0.8l0.6,4l8-1
		l0.5,3.2l-8,1l1,7.2l-3.6,0.5l-1-7.3L76,62.6l-0.5-3.2L84.3,58.2z"/>
	<path fill="#FFFFFF" d="M108.3,55.7v-4.1h-5.8v-3.2h17.7v3.2h-8.3v4.1h9.7V59h-9.7v3.5c0,1.5,0.4,2,2.2,2.1c0.5,0,1.3,0,2.3,0
		c1.6,0,3.2,0,4.4-0.1v3.4c-1.2,0.1-2.9,0.1-4.5,0.1c-1,0-2,0-2.6,0c-3.9-0.1-5.4-1.5-5.4-5.2v0V59h-7.1v-3.2H108.3z"/>
	<path fill="#FFFFFF" d="M134.9,52.9l-2.3,2.9c-1.4-1.3-4.2-3.3-6.3-4.4l2.2-2.9C130.6,49.8,133.3,51.6,134.9,52.9z M143.6,52.9
		l2.3,2.7c-3.5,5.5-10.5,10.6-17.2,12.8l-1.8-3.4C133.4,63.3,140.2,58.5,143.6,52.9z"/>
	<path fill="#FFFFFF" d="M170.5,66.3l-3.2,2.2c-1.6-2.2-3.9-4.7-6.2-6.8c-2.6,2.9-5.6,5.1-8.8,6.8l-2.3-2.9
		c6.6-2.9,11.5-8.7,13-13.5h-11.3v-3.2h13.4l2.5,1.4c-1.1,3.3-2.5,6.2-4.3,8.7C165.8,61.3,168.4,63.9,170.5,66.3z"/>
	<path fill="#FFFFFF" d="M181.9,55.1c1.5,0.8,3.3,2,4.7,3.1c1.1-1.8,1.9-3.8,2.3-5.7h-6.4c-1.8,2.8-4.1,5.5-6.3,7.3l-2.7-2.2
		c3.4-2.5,6.8-7.3,8.2-11l3.3,1.1c-0.2,0.6-0.5,1.1-0.8,1.7h6.6l2.4,1.4c-1.8,8.3-6.4,15.2-13.6,17.9l-2.4-2.9c3-1,5.4-2.7,7.3-4.8
		c-1.5-1.2-3.3-2.5-4.8-3.3L181.9,55.1z"/>
</g>
</svg>
