<?xml version="1.0" encoding="utf-8"?>
<!-- Generator: Adobe Illustrator 18.1.0, SVG Export Plug-In . SVG Version: 6.00 Build 0)  -->
<svg version="1.1" id="Layer_1" xmlns="http://www.w3.org/2000/svg" xmlns:xlink="http://www.w3.org/1999/xlink" x="0px" y="0px"
	 viewBox="0 0 124.8 98.2" enable-background="new 0 0 124.8 98.2" xml:space="preserve">
<g>
	<path fill="#FFFFFF" d="M16.7,56.9v8.2h-3.6v-8.2h-2.4l0.1-3.1H19l0.1,3.1H16.7z"/>
	<path fill="#FFFFFF" d="M25.7,65.3c-3.3,0-4.9-1.8-4.9-5.8c0-4.1,1.5-5.8,4.9-5.8s4.9,1.7,4.9,5.8C30.6,63.7,29.1,65.3,25.7,65.3z
		 M25.7,56.7c-1,0-1.2,0.4-1.2,2.8c0,2.4,0.3,2.8,1.2,2.8c1,0,1.2-0.5,1.2-2.8C27,57.1,26.7,56.7,25.7,56.7z"/>
	<path fill="#FFFFFF" d="M38.8,65.1l-1.7-4.3h-0.4v4.3h-3.5V53.9h3.5v4.2h0.5l1.7-4.2h3.9l-2.4,5.4l2.5,5.9H38.8z"/>
	<path fill="#FFFFFF" d="M45.2,53.9h3.6v11.2h-3.6V53.9z"/>
	<path fill="#FFFFFF" d="M55.4,53.9l1.7,4.8l0.4,1.2h0l0.4-1.2l1.7-4.8h3.9v11.2h-3.2v-3.7l0-1.2l0,0l-0.4,1.2l-1.3,3.8h-2.2
		l-1.3-3.8l-0.4-1.2l0,0l0,1.2v3.7h-3.1V53.9H55.4z"/>
	<path fill="#FFFFFF" d="M70.9,65.3c-3.3,0-4.9-1.8-4.9-5.8c0-4.1,1.5-5.8,4.9-5.8c3.4,0,4.9,1.7,4.9,5.8
		C75.8,63.7,74.3,65.3,70.9,65.3z M70.9,56.7c-1,0-1.2,0.4-1.2,2.8c0,2.4,0.3,2.8,1.2,2.8c1,0,1.2-0.5,1.2-2.8
		C72.1,57.1,71.9,56.7,70.9,56.7z"/>
	<path fill="#FFFFFF" d="M84.9,65.1l-2.8-4.3l-0.6-1l0,0l0,1.2v4.1h-3.1V53.9h2.9l3.1,4.9l0,0l0-1.2l0-3.7h3.1v11.2H84.9z"/>
	<path fill="#FFFFFF" d="M93.3,65.3c-1.2,0-2.4-0.3-3.4-0.8l0.4-2.9c0.9,0.4,1.9,0.7,2.8,0.7c0.8,0,1-0.2,1-0.6
		c0-1.1-4.3-0.8-4.3-4.5c0-2,1.3-3.7,4.2-3.7c1,0,2.2,0.2,3.1,0.5l-0.4,2.9c-0.9-0.2-1.8-0.4-2.5-0.4c-0.9,0-1.1,0.2-1.1,0.5
		c0,1.1,4.3,0.8,4.3,4.4C97.5,63.9,95.9,65.3,93.3,65.3z"/>
	<path fill="#FFFFFF" d="M105.1,56.9v8.2h-3.6v-8.2h-2.4l0.1-3.1h8.2l0.1,3.1H105.1z"/>
	<path fill="#FFFFFF" d="M114.6,63.4h-2.5l-0.3,1.7H108l3.2-11.2h4.3l3.3,11.2h-3.9L114.6,63.4z M113.1,58.2l-0.5,2.4h1.4l-0.5-2.4
		l-0.2-1.2h0L113.1,58.2z"/>
</g>
<g>
	<path fill="#FFFFFF" d="M33.2,76.6l-1.4,1.8c-1.5-1.1-3.4-2.2-5.2-3.1V82h-2.2V68.9h2.2V73C28.8,74,31.3,75.3,33.2,76.6z"/>
	<path fill="#FFFFFF" d="M40.9,75.9l-0.3-2.4L36.2,74l-0.3-1.9l4.4-0.6l-0.4-2.4l2.1-0.3l0.3,2.4l4-0.5l0.3,1.9l-4,0.5l0.4,2.4
		l4.8-0.6l0.3,1.9l-4.8,0.6l0.6,4.3l-2.2,0.3l-0.6-4.4l-5.3,0.7l-0.3-1.9L40.9,75.9z"/>
	<path fill="#FFFFFF" d="M55.3,74.4v-2.5h-3.5V70h10.6v1.9h-5v2.5h5.8v1.9h-5.8v2.1c0,0.9,0.3,1.2,1.3,1.3c0.3,0,0.8,0,1.4,0
		c0.9,0,1.9,0,2.6-0.1v2c-0.7,0-1.7,0-2.7,0c-0.6,0-1.2,0-1.5,0c-2.4-0.1-3.3-0.9-3.3-3.1v0v-2.2H51v-1.9H55.3z"/>
	<path fill="#FFFFFF" d="M71.2,72.7l-1.4,1.8c-0.8-0.8-2.5-2-3.8-2.6l1.3-1.7C68.7,70.8,70.3,71.9,71.2,72.7z M76.5,72.7l1.4,1.6
		c-2.1,3.3-6.3,6.4-10.3,7.7l-1.1-2.1C70.4,78.9,74.4,76,76.5,72.7z"/>
	<path fill="#FFFFFF" d="M92.6,80.7L90.7,82c-1-1.4-2.3-2.9-3.7-4.1c-1.6,1.7-3.4,3.1-5.3,4.1l-1.4-1.7c3.9-1.8,6.9-5.2,7.8-8.1
		h-6.8v-1.9h8.1l1.5,0.8c-0.6,2-1.5,3.7-2.6,5.2C89.8,77.7,91.4,79.3,92.6,80.7z"/>
	<path fill="#FFFFFF" d="M99.5,74c0.9,0.5,2,1.2,2.8,1.8c0.7-1.1,1.1-2.3,1.4-3.4h-3.9c-1.1,1.7-2.5,3.3-3.8,4.4l-1.6-1.3
		c2.1-1.5,4.1-4.4,4.9-6.6l2,0.6c-0.1,0.3-0.3,0.7-0.5,1h3.9l1.5,0.8c-1.1,5-3.9,9.1-8.2,10.8l-1.5-1.7c1.8-0.6,3.3-1.6,4.4-2.9
		c-0.9-0.7-2-1.5-2.9-2L99.5,74z"/>
</g>
<polygon fill="#FFFFFF" points="69.1,19.2 64.7,11.5 60.2,19.2 63.7,19.2 63.7,42.2 65.7,42.2 65.7,19.2 "/>
</svg>
